<svg width="400" height="440" viewBox="0 0 400 440" fill="none" xmlns="http://www.w3.org/2000/svg">
<path d="M225.797 186.451C216.289 192.987 204.351 196.914 199.57 198.061V207.95C203.804 207.663 215.88 204.768 230.304 195.481C244.729 186.193 250.794 168.392 252.024 160.653H240.959C239.866 166.529 235.304 179.916 225.797 186.451Z" fill="#A5A4A4"/>
<path d="M169.655 167.981C179.162 174.517 191.101 178.444 195.882 179.591V189.48C191.647 189.193 179.572 186.298 165.147 177.011C150.722 167.723 144.658 149.922 143.428 142.183H154.493C155.585 148.059 160.148 161.446 169.655 167.981Z" fill="#A5A4A4"/>
<rect x="186.866" y="159.365" width="18.031" height="280.344" fill="#A5A4A4"/>
<path d="M274.562 167.691H111.874C90.9742 165.541 91.7938 135.442 92.6133 119.533C93.4329 103.624 109.415 97.1745 114.332 97.1745C119.25 97.1745 127.036 97.1745 127.036 88.575C127.036 72.6659 133.593 61.0566 145.477 59.3367C157.361 57.6167 163.918 42.9976 163.918 39.1278C163.918 35.258 161.459 0 191.784 0C222.108 0 220.469 28.3784 221.289 36.118C222.108 43.8575 222.108 52.0271 238.5 59.3367C256.531 63.2064 258.17 79.5455 258.17 85.5652C258.17 91.5848 259.81 96.7445 268.005 96.7445C288.905 96.7445 292.593 114.804 292.593 132.863C292.593 150.921 289.315 167.691 274.562 167.691Z" fill="#467A80"/>
<path d="M133.502 326.681C123.995 332.948 112.056 336.713 107.275 337.812V347.294C111.51 347.019 123.585 344.243 138.01 335.339C152.435 326.434 158.499 309.367 159.729 301.947H148.664C147.572 307.581 143.009 320.415 133.502 326.681Z" fill="#A5A4A4"/>
<path d="M77.3601 308.999C86.8673 315.266 98.806 319.031 103.587 320.13V329.612C99.3524 329.337 87.2771 326.561 72.8523 317.657C58.4276 308.752 52.3626 291.685 51.1332 284.265H62.1977C63.2904 289.899 67.8528 302.733 77.3601 308.999Z" fill="#A5A4A4"/>
<rect x="94.2527" y="301.21" width="18.031" height="138.514" fill="#A5A4A4"/>
<path d="M181.977 308.619H19.5476C-1.31866 307.075 -0.50037 285.47 0.317916 274.049C1.1362 262.629 17.0928 257.999 22.0025 257.999C26.9122 257.999 34.6859 257.999 34.6859 251.826C34.6859 240.406 41.2322 232.072 53.0974 230.838C64.9625 229.603 71.5088 219.109 71.5088 216.331C71.5088 213.553 69.0539 188.243 99.3305 188.243C129.607 188.243 127.971 208.615 128.789 214.17C129.607 219.726 129.607 225.591 145.973 230.838C163.975 233.616 165.612 245.344 165.612 249.666C165.612 253.987 167.248 257.691 175.431 257.691C196.297 257.691 199.98 270.654 199.98 283.618C199.98 296.581 196.707 308.619 181.977 308.619Z" fill="#467A80"/>
<path d="M359.708 294.221C350.201 300.474 338.262 304.231 333.481 305.328V314.79C337.716 314.516 349.791 311.746 364.216 302.86C378.641 293.974 384.706 276.942 385.935 269.538H374.871C373.778 275.16 369.216 287.968 359.708 294.221Z" fill="#A5A4A4"/>
<path d="M303.566 276.466C313.074 282.719 325.012 286.476 329.793 287.573V297.035C325.559 296.761 313.483 293.991 299.059 285.105C284.634 276.219 278.569 259.188 277.34 251.783H288.404C289.497 257.405 294.059 270.213 303.566 276.466Z" fill="#A5A4A4"/>
<rect x="320.459" y="268.619" width="18.031" height="171.137" fill="#A5A4A4"/>
<path d="M386.679 276.003H266.854C251.461 273.946 252.064 245.149 252.668 229.927C253.272 214.706 265.043 208.535 268.665 208.535C272.287 208.535 278.021 208.535 278.021 200.308C278.021 185.086 282.851 173.979 291.604 172.333C300.357 170.688 305.186 156.701 305.186 152.998C305.186 149.296 303.375 115.562 325.71 115.562C348.045 115.562 346.838 142.714 347.442 150.118C348.045 157.523 348.045 165.34 360.118 172.333C373.399 176.036 374.606 191.668 374.606 197.428C374.606 203.187 375.813 208.124 381.85 208.124C397.243 208.124 399.959 225.402 399.959 242.68C399.959 259.959 397.545 276.003 386.679 276.003Z" fill="#467A80"/>
</svg>
