<svg width="1148" height="186" viewBox="0 0 1148 186" fill="none" xmlns="http://www.w3.org/2000/svg">
<path opacity="0.2" d="M1148 152.454C1148 232.423 1083.21 297.229 1003.36 297.229C960.477 297.229 922.013 278.557 895.514 249.01C880.432 258.696 862.467 264.27 843.197 264.27C803.097 264.27 768.569 240.122 753.488 205.585C742.148 214.395 727.943 219.618 712.511 219.618H712.258C708.068 295.748 645.035 356.187 567.777 356.187C515.81 356.187 470.118 328.706 444.671 287.464C403.518 280.74 368.212 256.591 346.505 222.834C326.455 246.982 296.195 262.341 262.272 262.341C247.268 262.341 232.986 259.378 219.892 253.882C210.305 320.072 153.273 371 84.3935 371C26.5036 371 -23.0271 335.06 -42.9797 284.229C-54.7487 287.639 -67.219 289.374 -80.1181 289.374C-155.7 289.374 -217 228.155 -217 152.454C-217 76.7532 -155.7 15.6118 -80.1181 15.6118C-22.2282 15.6118 27.3025 51.5522 47.2552 102.305C59.0241 98.8944 71.4944 97.1597 84.3935 97.1597C111.419 97.1597 136.613 105.014 157.891 118.521C172.095 74.4729 213.423 42.6451 262.252 42.6451C293.039 42.6451 320.922 55.3723 340.894 75.8762C365.386 30.6974 413.261 0 468.267 0C520.233 0 565.926 27.4816 591.373 68.7233C619.626 73.3425 645.073 86.1672 665.299 104.664C677.516 92.6185 694.078 85.3095 712.472 85.3095C733.048 85.3095 751.364 94.548 763.659 109.127C781.527 84.452 810.481 68.3918 843.177 68.3918C856.427 68.3918 869.073 71.0035 880.588 75.7982C906.133 34.9853 951.553 7.77671 1003.34 7.77671C1083.21 7.77671 1147.98 72.5823 1147.98 152.454H1148Z" fill="#8C8176"/>
</svg>
