<svg width="29" height="29" viewBox="0 0 29 29" fill="none" xmlns="http://www.w3.org/2000/svg">
<path d="M14.5 1.8125C11.9907 1.8125 9.53766 2.55661 7.45121 3.95073C5.36476 5.34485 3.73857 7.32637 2.77828 9.6447C1.818 11.963 1.56674 14.5141 2.05629 16.9752C2.54584 19.4363 3.75421 21.697 5.52859 23.4714C7.30297 25.2458 9.56366 26.4542 12.0248 26.9437C14.4859 27.4333 17.037 27.182 19.3553 26.2217C21.6736 25.2614 23.6552 23.6352 25.0493 21.5488C26.4434 19.4623 27.1875 17.0094 27.1875 14.5C27.1875 11.1351 25.8508 7.90795 23.4714 5.52858C21.0921 3.14921 17.8649 1.8125 14.5 1.8125ZM14.5 25.375C12.3491 25.375 10.2466 24.7372 8.45818 23.5422C6.6698 22.3473 5.27592 20.6488 4.45282 18.6617C3.62971 16.6745 3.41435 14.4879 3.83397 12.3784C4.25358 10.2688 5.28932 8.33111 6.81022 6.81021C8.33112 5.28932 10.2689 4.25357 12.3784 3.83396C14.4879 3.41435 16.6745 3.62971 18.6617 4.45281C20.6488 5.27591 22.3473 6.66979 23.5422 8.45817C24.7372 10.2466 25.375 12.3491 25.375 14.5C25.375 17.3842 24.2292 20.1503 22.1898 22.1898C20.1503 24.2292 17.3842 25.375 14.5 25.375Z" fill="#A5A4A4"/>
<path d="M14.5 22.6563C15.2508 22.6563 15.8594 22.0476 15.8594 21.2969C15.8594 20.5461 15.2508 19.9375 14.5 19.9375C13.7492 19.9375 13.1406 20.5461 13.1406 21.2969C13.1406 22.0476 13.7492 22.6563 14.5 22.6563Z" fill="#A5A4A4"/>
<path d="M15.4063 7.25001H14.0469C13.511 7.24882 12.9802 7.35348 12.4848 7.55801C11.9895 7.76253 11.5395 8.06287 11.1606 8.4418C10.7816 8.82073 10.4813 9.27077 10.2768 9.76609C10.0722 10.2614 9.96757 10.7923 9.96876 11.3281V11.7813H11.7813V11.3281C11.7813 10.7273 12.02 10.151 12.4448 9.7261C12.8697 9.30121 13.446 9.06251 14.0469 9.06251H15.4063C16.0071 9.06251 16.5834 9.30121 17.0083 9.7261C17.4332 10.151 17.6719 10.7273 17.6719 11.3281C17.6719 11.929 17.4332 12.5053 17.0083 12.9302C16.5834 13.3551 16.0071 13.5938 15.4063 13.5938H13.5938V17.6719H15.4063V15.4063C16.4878 15.4063 17.5251 14.9766 18.2899 14.2118C19.0547 13.447 19.4844 12.4097 19.4844 11.3281C19.4844 10.2465 19.0547 9.20926 18.2899 8.44447C17.5251 7.67967 16.4878 7.25001 15.4063 7.25001Z" fill="#A5A4A4"/>
</svg>
