<svg width="111" height="126" viewBox="0 0 111 126" fill="none" xmlns="http://www.w3.org/2000/svg">
<g clip-path="url(#clip0_154_1586)">
<path d="M16.4693 0C23.3614 0 28.9591 5.56176 28.9591 12.4097V46.5537H3.97949V12.4097C3.97949 5.56176 9.57716 0 16.4693 0Z" fill="#E6AE4E"/>
<path d="M0.787109 28.4171C9.43726 28.4171 16.4693 35.3954 16.4693 43.9988V57.486C7.81918 57.486 0.787109 50.5078 0.787109 41.9044V28.4171Z" fill="#53797E"/>
<path d="M0 83.27C8.65015 83.27 15.6822 90.2483 15.6822 98.8516V112.339C7.02332 112.33 0 105.352 0 96.7573V83.27Z" fill="#739193"/>
<path d="M32.1429 28.4171V41.9044C32.1429 50.4991 25.1196 57.486 16.4607 57.486V43.9988C16.4607 35.4041 23.484 28.4171 32.1429 28.4171Z" fill="#53797E"/>
<path d="M31.3558 59.7629V73.2502C31.3558 81.8448 24.3325 88.8318 15.6736 88.8318V75.3445C15.6736 66.7498 22.6969 59.7629 31.3558 59.7629Z" fill="#739193"/>
<path d="M17.2565 49.2477H14.9824V126H17.2565V49.2477Z" fill="#53797E"/>
<path d="M55.898 0C62.7901 0 68.379 5.56176 68.379 12.4097V46.5537H43.3994V12.4097C43.4082 5.56176 49.0058 0 55.898 0Z" fill="#E6AE4E"/>
<path d="M40.2156 28.4171C48.8657 28.4171 55.8978 35.3954 55.8978 43.9988V57.486C47.2476 57.486 40.2156 50.5078 40.2156 41.9044V28.4171Z" fill="#53797E"/>
<path d="M39.4285 83.27C48.0786 83.27 55.1107 90.2483 55.1107 98.8516V112.339C46.4605 112.339 39.4285 105.361 39.4285 96.7573V83.27Z" fill="#739193"/>
<path d="M71.5714 28.4171V41.9044C71.5714 50.4991 64.5481 57.486 55.8892 57.486V43.9988C55.8892 35.4041 62.9125 28.4171 71.5714 28.4171Z" fill="#53797E"/>
<path d="M70.7843 59.7629V73.2502C70.7843 81.8448 63.7609 88.8318 55.1021 88.8318V75.3445C55.1021 66.7498 62.1254 59.7629 70.7843 59.7629Z" fill="#739193"/>
<path d="M56.6849 49.2477H54.4109V126H56.6849V49.2477Z" fill="#53797E"/>
<path d="M95.3267 0C102.219 0 107.808 5.56176 107.808 12.4097V46.5537H82.8281V12.4097C82.8369 5.56176 88.4345 0 95.3267 0Z" fill="#E6AE4E"/>
<path d="M79.6443 28.4171C88.2944 28.4171 95.3265 35.3954 95.3265 43.9988V57.486C86.6764 57.486 79.6443 50.5078 79.6443 41.9044V28.4171Z" fill="#53797E"/>
<path d="M78.8572 83.27C87.5073 83.27 94.5394 90.2483 94.5394 98.8516V112.339C85.8892 112.339 78.8572 105.361 78.8572 96.7573V83.27Z" fill="#739193"/>
<path d="M111 28.4171V41.9044C111 50.4991 103.977 57.486 95.3179 57.486V43.9988C95.3179 35.4041 102.341 28.4171 111 28.4171Z" fill="#53797E"/>
<path d="M110.213 59.7629V73.2502C110.213 81.8448 103.19 88.8318 94.5308 88.8318V75.3445C94.5308 66.7498 101.554 59.7629 110.213 59.7629Z" fill="#739193"/>
<path d="M96.1137 49.2477H93.8396V126H96.1137V49.2477Z" fill="#53797E"/>
</g>
<defs>
<clipPath id="clip0_154_1586">
<rect width="111" height="126" fill="white"/>
</clipPath>
</defs>
</svg>
