<svg width="328" height="410" viewBox="0 0 328 410" fill="none" xmlns="http://www.w3.org/2000/svg">
<g clip-path="url(#clip0_59_4408)">
<path d="M3.85742 21.1079V232.422H324.142V21.1079H3.85742ZM316.041 224.901H11.9583V28.6296H316.041V224.901Z" fill="#2F5C63"/>
<path d="M31.1178 9.06461H27.4531V21.1079H31.1178V9.06461Z" fill="#2F5C63"/>
<path d="M302.047 9.06461H298.382V21.1079H302.047V9.06461Z" fill="#2F5C63"/>
<path d="M328 0H0V9.0646H328V0Z" fill="#2F5C63"/>
<path d="M180.834 232.422H147.895V400.064H180.834V232.422Z" fill="#2F5C63"/>
<path d="M199.95 400.064H127.364V412H199.95V400.064Z" fill="#2F5C63"/>
<path d="M316.042 28.6296H11.9585V224.901H316.042V28.6296Z" fill="white"/>
<path d="M11.9583 28.6296V224.901H81.9731V232.422H3.85742V21.1079H81.9731V28.6296H11.9583Z" fill="#214347"/>
<path d="M47.4266 0H0V9.0646H47.4266V0Z" fill="#214347"/>
<path d="M180.834 232.422V250.873C177.384 247.809 171.319 243.63 163.99 243.63C161.075 243.63 158.182 244.166 155.481 245.001V232.422H180.834Z" fill="#214347"/>
<path d="M155.481 232.422V245.001C152.674 245.837 150.08 246.973 147.895 248.087V232.422H155.481Z" fill="#214347"/>
<path d="M155.481 245.001V400.064H147.895V248.087C150.08 246.973 152.674 245.837 155.481 245.001Z" fill="#214347"/>
<path d="M150.745 400.064H127.364V412H150.745V400.064Z" fill="#214347"/>
</g>
<defs>
<clipPath id="clip0_59_4408">
<rect width="328" height="412" fill="white"/>
</clipPath>
</defs>
</svg>
