<svg width="933" height="747" viewBox="0 0 933 747" fill="none" xmlns="http://www.w3.org/2000/svg">
<path d="M624.126 325.066C630.347 325.066 635.39 320.027 635.39 313.811C635.39 307.595 630.347 302.555 624.126 302.555C617.905 302.555 612.862 307.595 612.862 313.811C612.862 320.027 617.905 325.066 624.126 325.066Z" fill="#928D80"/>
<path d="M685.661 297.245C689.158 297.245 691.993 294.413 691.993 290.919C691.993 287.424 689.158 284.592 685.661 284.592C682.164 284.592 679.329 287.424 679.329 290.919C679.329 294.413 682.164 297.245 685.661 297.245Z" fill="#928D80"/>
<path d="M720.838 196.681C723.312 196.681 725.318 194.677 725.318 192.204C725.318 189.732 723.312 187.728 720.838 187.728C718.364 187.728 716.358 189.732 716.358 192.204C716.358 194.677 718.364 196.681 720.838 196.681Z" fill="#928D80"/>
<path d="M654.498 308.741C666.065 308.741 675.443 299.371 675.443 287.812C675.443 276.253 666.065 266.883 654.498 266.883C642.93 266.883 633.552 276.253 633.552 287.812C633.552 299.371 642.93 308.741 654.498 308.741Z" fill="#928D80"/>
<path d="M694.649 203.05C704.063 203.05 711.694 195.425 711.694 186.019C711.694 176.613 704.063 168.987 694.649 168.987C685.236 168.987 677.605 176.613 677.605 186.019C677.605 195.425 685.236 203.05 694.649 203.05Z" fill="#928D80"/>
<path d="M705.023 179.918C709.995 179.918 714.026 175.89 714.026 170.922C714.026 165.954 709.995 161.926 705.023 161.926C700.051 161.926 696.02 165.954 696.02 170.922C696.02 175.89 700.051 179.918 705.023 179.918Z" fill="#928D80"/>
<path d="M677.026 280.143C686.759 280.143 694.649 272.259 694.649 262.533C694.649 252.807 686.759 244.923 677.026 244.923C667.292 244.923 659.402 252.807 659.402 262.533C659.402 272.259 667.292 280.143 677.026 280.143Z" fill="#928D80"/>
<path d="M696.02 267.73C718.672 267.73 737.034 250.823 737.034 229.967C737.034 209.111 718.672 192.204 696.02 192.204C673.369 192.204 655.006 209.111 655.006 229.967C655.006 250.823 673.369 267.73 696.02 267.73Z" fill="#928D80"/>
<path d="M630.98 294.463C642.462 294.463 651.77 285.163 651.77 273.69C651.77 262.217 642.462 252.916 630.98 252.916C619.498 252.916 610.191 262.217 610.191 273.69C610.191 285.163 619.498 294.463 630.98 294.463Z" fill="#928D80"/>
<path d="M631.744 348.269H610.191L610.742 329.232H631.192L631.744 348.269Z" fill="#EC675A"/>
<path d="M632.295 367.278H609.64L610.191 348.269H631.744L632.295 367.278Z" fill="#ECB880"/>
<path d="M632.846 386.286H609.074L609.639 367.278H632.295L632.846 386.286Z" fill="#EC675A"/>
<path d="M633.397 405.323H608.523L609.074 386.286H632.846L633.397 405.323Z" fill="#ECB880"/>
<path d="M633.948 424.331H607.972L608.523 405.323H633.397L633.948 424.331Z" fill="#EC675A"/>
<path d="M634.514 443.368H607.421L607.972 424.331H633.948L634.514 443.368Z" fill="#ECB880"/>
<path d="M635.065 462.377H606.869L607.421 443.368H634.514L635.065 462.377Z" fill="#EC675A"/>
<path d="M635.616 481.385H606.318L606.869 462.377H635.065L635.616 481.385Z" fill="#ECB880"/>
<path d="M636.167 500.422H605.767L606.318 481.385H635.616L636.167 500.422Z" fill="#EC675A"/>
<path d="M636.718 519.43H605.216L605.767 500.422H636.167L636.718 519.43Z" fill="#ECB880"/>
<path d="M637.27 538.467H604.665L605.216 519.43H636.718L637.27 538.467Z" fill="#EC675A"/>
<path d="M637.792 556.318H604.142L604.665 538.467H637.269L637.792 556.318Z" fill="#FFFDFE"/>
<path d="M632.535 327.862H609.385C607.473 327.862 605.922 329.411 605.922 331.322V335.291C605.922 337.202 607.473 338.751 609.385 338.751H632.535C634.447 338.751 635.997 337.202 635.997 335.291V331.322C635.997 329.411 634.447 327.862 632.535 327.862Z" fill="#EC675A"/>
<path d="M181.678 334.161C186.712 334.161 190.794 330.083 190.794 325.052C190.794 320.021 186.712 315.943 181.678 315.943C176.643 315.943 172.562 320.021 172.562 325.052C172.562 330.083 176.643 334.161 181.678 334.161Z" fill="#928D80"/>
<path d="M231.468 311.65C234.302 311.65 236.599 309.355 236.599 306.524C236.599 303.693 234.302 301.397 231.468 301.397C228.635 301.397 226.338 303.693 226.338 306.524C226.338 309.355 228.635 311.65 231.468 311.65Z" fill="#928D80"/>
<path d="M259.946 230.25C261.945 230.25 263.565 228.631 263.565 226.634C263.565 224.638 261.945 223.019 259.946 223.019C257.948 223.019 256.328 224.638 256.328 226.634C256.328 228.631 257.948 230.25 259.946 230.25Z" fill="#928D80"/>
<path d="M206.255 320.957C215.622 320.957 223.215 313.369 223.215 304.01C223.215 294.651 215.622 287.063 206.255 287.063C196.889 287.063 189.296 294.651 189.296 304.01C189.296 313.369 196.889 320.957 206.255 320.957Z" fill="#928D80"/>
<path d="M238.761 235.404C246.379 235.404 252.555 229.233 252.555 221.621C252.555 214.009 246.379 207.838 238.761 207.838C231.143 207.838 224.967 214.009 224.967 221.621C224.967 229.233 231.143 235.404 238.761 235.404Z" fill="#928D80"/>
<path d="M247.142 216.678C251.162 216.678 254.421 213.422 254.421 209.405C254.421 205.388 251.162 202.132 247.142 202.132C243.122 202.132 239.864 205.388 239.864 209.405C239.864 213.422 243.122 216.678 247.142 216.678Z" fill="#928D80"/>
<path d="M224.487 297.81C232.362 297.81 238.747 291.431 238.747 283.561C238.747 275.691 232.362 269.312 224.487 269.312C216.611 269.312 210.227 275.691 210.227 283.561C210.227 291.431 216.611 297.81 224.487 297.81Z" fill="#928D80"/>
<path d="M239.863 287.755C258.198 287.755 273.062 274.073 273.062 257.195C273.062 240.317 258.198 226.634 239.863 226.634C221.528 226.634 206.665 240.317 206.665 257.195C206.665 274.073 221.528 287.755 239.863 287.755Z" fill="#928D80"/>
<path d="M187.218 309.391C196.514 309.391 204.05 301.86 204.05 292.571C204.05 283.282 196.514 275.751 187.218 275.751C177.922 275.751 170.386 283.282 170.386 292.571C170.386 301.86 177.922 309.391 187.218 309.391Z" fill="#928D80"/>
<path d="M187.84 352.943H170.386L170.838 337.536H187.388L187.84 352.943Z" fill="#EC675A"/>
<path d="M188.292 368.323H169.948L170.386 352.943H187.84L188.292 368.323Z" fill="#ECB880"/>
<path d="M188.73 383.716H169.495L169.948 368.323H188.292L188.73 383.716Z" fill="#EC675A"/>
<path d="M189.182 399.123H169.043L169.495 383.716H188.73L189.182 399.123Z" fill="#ECB880"/>
<path d="M189.621 414.502H168.605L169.043 399.123H189.183L189.621 414.502Z" fill="#EC675A"/>
<path d="M190.073 429.91H168.153L168.605 414.502H189.621L190.073 429.91Z" fill="#ECB880"/>
<path d="M190.525 445.303H167.7L168.153 429.91H190.073L190.525 445.303Z" fill="#EC675A"/>
<path d="M190.963 460.682H167.262L167.7 445.303H190.525L190.963 460.682Z" fill="#ECB880"/>
<path d="M191.416 476.089H166.81L167.262 460.682H190.963L191.416 476.089Z" fill="#EC675A"/>
<path d="M191.868 491.468H166.372L166.81 476.089H191.416L191.868 491.468Z" fill="#ECB880"/>
<path d="M192.306 506.876H165.92L166.372 491.468H191.868L192.306 506.876Z" fill="#EC675A"/>
<path d="M192.73 521.337H165.496L165.92 506.876H192.306L192.73 521.337Z" fill="#FFFDFE"/>
<path d="M188.49 336.435H169.735C168.19 336.435 166.937 337.686 166.937 339.231V342.451C166.937 343.995 168.19 345.247 169.735 345.247H188.49C190.035 345.247 191.288 343.995 191.288 342.451V339.231C191.288 337.686 190.035 336.435 188.49 336.435Z" fill="#EC675A"/>
<path d="M550.055 363.38C556.791 363.38 562.252 357.923 562.252 351.192C562.252 344.461 556.791 339.005 550.055 339.005C543.319 339.005 537.858 344.461 537.858 351.192C537.858 357.923 543.319 363.38 550.055 363.38Z" fill="#C6D0C4"/>
<path d="M569.219 268.182C572.716 268.182 575.551 265.349 575.551 261.855C575.551 258.361 572.716 255.528 569.219 255.528C565.722 255.528 562.888 258.361 562.888 261.855C562.888 265.349 565.722 268.182 569.219 268.182Z" fill="#C6D0C4"/>
<path d="M591.026 330.517C593.501 330.517 595.507 328.513 595.507 326.041C595.507 323.568 593.501 321.564 591.026 321.564C588.552 321.564 586.546 323.568 586.546 326.041C586.546 328.513 588.552 330.517 591.026 330.517Z" fill="#C6D0C4"/>
<path d="M577.727 312.469C585.072 312.469 591.026 306.52 591.026 299.18C591.026 291.841 585.072 285.891 577.727 285.891C570.382 285.891 564.428 291.841 564.428 299.18C564.428 306.52 570.382 312.469 577.727 312.469Z" fill="#C6D0C4"/>
<path d="M651.827 249.668C661.24 249.668 668.871 242.042 668.871 232.636C668.871 223.23 661.24 215.605 651.827 215.605C642.413 215.605 634.782 223.23 634.782 232.636C634.782 242.042 642.413 249.668 651.827 249.668Z" fill="#C6D0C4"/>
<path d="M672.546 242.875C677.518 242.875 681.548 238.847 681.548 233.879C681.548 228.911 677.518 224.883 672.546 224.883C667.574 224.883 663.543 228.911 663.543 233.879C663.543 238.847 667.574 242.875 672.546 242.875Z" fill="#C6D0C4"/>
<path d="M606.106 313.571C618.548 313.571 628.634 303.492 628.634 291.06C628.634 278.628 618.548 268.549 606.106 268.549C593.665 268.549 583.578 278.628 583.578 291.06C583.578 303.492 593.665 313.571 606.106 313.571Z" fill="#C6D0C4"/>
<path d="M625.101 289.563C642.281 289.563 656.208 275.647 656.208 258.48C656.208 241.313 642.281 227.397 625.101 227.397C607.921 227.397 593.994 241.313 593.994 258.48C593.994 275.647 607.921 289.563 625.101 289.563Z" fill="#C6D0C4"/>
<path d="M560.612 334.246C572.094 334.246 581.402 324.945 581.402 313.472C581.402 301.999 572.094 292.698 560.612 292.698C549.13 292.698 539.823 301.999 539.823 313.472C539.823 324.945 549.13 334.246 560.612 334.246Z" fill="#C6D0C4"/>
<path d="M560.81 376.782H539.257L539.808 357.745H560.259L560.81 376.782Z" fill="#EC675A"/>
<path d="M561.375 395.79H538.706L539.257 376.782H560.81L561.375 395.79Z" fill="#FFFDFE"/>
<path d="M561.927 414.799H538.155L538.706 395.79H561.375L561.927 414.799Z" fill="#EC675A"/>
<path d="M562.478 433.836H537.604L538.155 414.799H561.927L562.478 433.836Z" fill="#FFFDFE"/>
<path d="M563.029 452.844H537.052L537.604 433.836H562.478L563.029 452.844Z" fill="#EC675A"/>
<path d="M563.58 471.881H536.501L537.053 452.844H563.029L563.58 471.881Z" fill="#FFFDFE"/>
<path d="M564.131 490.889H535.936L536.501 471.881H563.58L564.131 490.889Z" fill="#EC675A"/>
<path d="M564.683 509.898H535.385L535.936 490.889H564.131L564.683 509.898Z" fill="#FFFDFE"/>
<path d="M565.248 528.935H534.834L535.385 509.898H564.683L565.248 528.935Z" fill="#EC675A"/>
<path d="M565.799 547.943H534.282L534.834 528.935H565.248L565.799 547.943Z" fill="#FFFDFE"/>
<path d="M566.336 566.98H533.731L534.282 547.943H565.799L566.336 566.98Z" fill="#EC675A"/>
<path d="M566.859 584.844H533.222L533.731 566.98H566.336L566.859 584.844Z" fill="#FFFDFE"/>
<path d="M560.994 355.923H537.844C535.932 355.923 534.381 357.472 534.381 359.383V363.352C534.381 365.262 535.932 366.811 537.844 366.811H560.994C562.906 366.811 564.456 365.262 564.456 363.352V359.383C564.456 357.472 562.906 355.923 560.994 355.923Z" fill="#EC675A"/>
<path d="M799.757 310.563C807.086 310.563 813.028 304.626 813.028 297.302C813.028 289.978 807.086 284.041 799.757 284.041C792.427 284.041 786.486 289.978 786.486 297.302C786.486 304.626 792.427 310.563 799.757 310.563Z" fill="#928D80"/>
<path d="M872.273 277.771C876.395 277.771 879.735 274.432 879.735 270.314C879.735 266.196 876.395 262.858 872.273 262.858C868.152 262.858 864.811 266.196 864.811 270.314C864.811 274.432 868.152 277.771 872.273 277.771Z" fill="#928D80"/>
<path d="M913.754 159.229C916.665 159.229 919.025 156.871 919.025 153.961C919.025 151.052 916.665 148.694 913.754 148.694C910.842 148.694 908.482 151.052 908.482 153.961C908.482 156.871 910.842 159.229 913.754 159.229Z" fill="#928D80"/>
<path d="M835.541 291.328C849.178 291.328 860.232 280.282 860.232 266.657C860.232 253.031 849.178 241.985 835.541 241.985C821.905 241.985 810.851 253.031 810.851 266.657C810.851 280.282 821.905 291.328 835.541 291.328Z" fill="#928D80"/>
<path d="M882.887 166.742C893.986 166.742 902.984 157.751 902.984 146.66C902.984 135.569 893.986 126.578 882.887 126.578C871.788 126.578 862.79 135.569 862.79 146.66C862.79 157.751 871.788 166.742 882.887 166.742Z" fill="#928D80"/>
<path d="M895.112 139.472C900.974 139.472 905.726 134.724 905.726 128.866C905.726 123.009 900.974 118.26 895.112 118.26C889.25 118.26 884.498 123.009 884.498 128.866C884.498 134.724 889.25 139.472 895.112 139.472Z" fill="#928D80"/>
<path d="M862.111 257.618C873.585 257.618 882.887 248.324 882.887 236.859C882.887 225.394 873.585 216.099 862.111 216.099C850.637 216.099 841.336 225.394 841.336 236.859C841.336 248.324 850.637 257.618 862.111 257.618Z" fill="#928D80"/>
<path d="M884.498 242.988C911.201 242.988 932.847 223.059 932.847 198.475C932.847 173.891 911.201 153.961 884.498 153.961C857.796 153.961 836.149 173.891 836.149 198.475C836.149 223.059 857.796 242.988 884.498 242.988Z" fill="#928D80"/>
<path d="M807.827 274.48C821.361 274.48 832.333 263.517 832.333 249.992C832.333 236.468 821.361 225.505 807.827 225.505C794.292 225.505 783.32 236.468 783.32 249.992C783.32 263.517 794.292 274.48 807.827 274.48Z" fill="#928D80"/>
<path d="M808.717 337.917H783.32L783.956 315.477H808.067L808.717 337.917Z" fill="#EC675A"/>
<path d="M809.381 360.329H782.67L783.32 337.917H808.717L809.381 360.329Z" fill="#ECB880"/>
<path d="M810.031 382.741H782.006L782.67 360.329H809.381L810.031 382.741Z" fill="#EC675A"/>
<path d="M810.681 405.167H781.355L782.006 382.741H810.031L810.681 405.167Z" fill="#ECB880"/>
<path d="M811.332 427.579H780.705L781.355 405.167H810.681L811.332 427.579Z" fill="#EC675A"/>
<path d="M811.982 450.02H780.055L780.705 427.579H811.332L811.982 450.02Z" fill="#ECB880"/>
<path d="M812.632 472.432H779.405L780.055 450.02H811.982L812.632 472.432Z" fill="#EC675A"/>
<path d="M813.282 494.829H778.755L779.405 472.432H812.632L813.282 494.829Z" fill="#ECB880"/>
<path d="M813.946 517.27H778.105L778.755 494.829H813.282L813.946 517.27Z" fill="#EC675A"/>
<path d="M814.596 539.682H777.455L778.105 517.27H813.946L814.596 539.682Z" fill="#ECB880"/>
<path d="M815.232 562.122H776.805L777.455 539.682H814.596L815.232 562.122Z" fill="#EC675A"/>
<path d="M815.854 583.164H776.197L776.805 562.122H815.232L815.854 583.164Z" fill="#ECB880"/>
<path d="M809.664 313.867H782.373C780.117 313.867 778.289 315.695 778.289 317.949V322.623C778.289 324.877 780.117 326.704 782.373 326.704H809.664C811.92 326.704 813.748 324.877 813.748 322.623V317.949C813.748 315.695 811.92 313.867 809.664 313.867Z" fill="#EC675A"/>
<path d="M712.443 355.726C720.381 355.726 726.816 349.295 726.816 341.363C726.816 333.431 720.381 327.001 712.443 327.001C704.505 327.001 698.07 333.431 698.07 341.363C698.07 349.295 704.505 355.726 712.443 355.726Z" fill="#C6D0C4"/>
<path d="M735.013 243.51C739.135 243.51 742.476 240.172 742.476 236.054C742.476 231.936 739.135 228.597 735.013 228.597C730.892 228.597 727.551 231.936 727.551 236.054C727.551 240.172 730.892 243.51 735.013 243.51Z" fill="#C6D0C4"/>
<path d="M760.721 316.974C763.633 316.974 765.993 314.616 765.993 311.707C765.993 308.797 763.633 306.439 760.721 306.439C757.81 306.439 755.45 308.797 755.45 311.707C755.45 314.616 757.81 316.974 760.721 316.974Z" fill="#C6D0C4"/>
<path d="M745.062 295.72C753.718 295.72 760.735 288.708 760.735 280.059C760.735 271.409 753.718 264.397 745.062 264.397C736.406 264.397 729.388 271.409 729.388 280.059C729.388 288.708 736.406 295.72 745.062 295.72Z" fill="#C6D0C4"/>
<path d="M832.404 221.692C843.503 221.692 852.501 212.701 852.501 201.61C852.501 190.519 843.503 181.528 832.404 181.528C821.304 181.528 812.307 190.519 812.307 201.61C812.307 212.701 821.304 221.692 832.404 221.692Z" fill="#C6D0C4"/>
<path d="M856.826 213.684C862.688 213.684 867.44 208.936 867.44 203.078C867.44 197.221 862.688 192.473 856.826 192.473C850.964 192.473 846.212 197.221 846.212 203.078C846.212 208.936 850.964 213.684 856.826 213.684Z" fill="#C6D0C4"/>
<path d="M778.501 297.019C793.175 297.019 805.071 285.133 805.071 270.47C805.071 255.807 793.175 243.92 778.501 243.92C763.826 243.92 751.931 255.807 751.931 270.47C751.931 285.133 763.826 297.019 778.501 297.019Z" fill="#C6D0C4"/>
<path d="M800.887 268.733C821.142 268.733 837.562 252.325 837.562 232.085C837.562 211.846 821.142 195.438 800.887 195.438C780.632 195.438 764.212 211.846 764.212 232.085C764.212 252.325 780.632 268.733 800.887 268.733Z" fill="#C6D0C4"/>
<path d="M724.88 321.394C738.415 321.394 749.387 310.431 749.387 296.906C749.387 283.382 738.415 272.419 724.88 272.419C711.345 272.419 700.373 283.382 700.373 296.906C700.373 310.431 711.345 321.394 724.88 321.394Z" fill="#C6D0C4"/>
<path d="M725.106 371.528H699.709L700.359 349.088H724.47L725.106 371.528Z" fill="#EC675A"/>
<path d="M725.77 393.94H699.059L699.709 371.528H725.106L725.77 393.94Z" fill="#FFFDFE"/>
<path d="M726.42 416.352H698.395L699.059 393.94H725.77L726.42 416.352Z" fill="#EC675A"/>
<path d="M727.07 438.792H697.745L698.395 416.352H726.42L727.07 438.792Z" fill="#FFFDFE"/>
<path d="M727.721 461.19H697.109L697.745 438.792H727.071L727.721 461.19Z" fill="#EC675A"/>
<path d="M728.385 483.63H696.458L697.109 461.19H727.721L728.385 483.63Z" fill="#FFFDFE"/>
<path d="M729.021 506.042H695.794L696.458 483.63H728.385L729.021 506.042Z" fill="#EC675A"/>
<path d="M729.671 528.454H695.144L695.794 506.042H729.021L729.671 528.454Z" fill="#FFFDFE"/>
<path d="M730.335 550.88H694.494L695.144 528.454H729.671L730.335 550.88Z" fill="#EC675A"/>
<path d="M730.985 573.292H693.844L694.494 550.88H730.335L730.985 573.292Z" fill="#FFFDFE"/>
<path d="M731.636 595.733H693.194L693.844 573.292H730.985L731.636 595.733Z" fill="#EC675A"/>
<path d="M732.243 616.775H692.586L693.194 595.733H731.636L732.243 616.775Z" fill="#FFFDFE"/>
<path d="M725.332 346.927H698.041C695.786 346.927 693.957 348.755 693.957 351.009V355.683C693.957 357.937 695.786 359.764 698.041 359.764H725.332C727.588 359.764 729.417 357.937 729.417 355.683V351.009C729.417 348.755 727.588 346.927 725.332 346.927Z" fill="#EC675A"/>
<path d="M502.342 105.452C522.441 105.452 538.734 89.1705 538.734 69.0869C538.734 49.0032 522.441 32.7221 502.342 32.7221C482.243 32.7221 465.949 49.0032 465.949 69.0869C465.949 89.1705 482.243 105.452 502.342 105.452Z" fill="white"/>
<path d="M526.325 55.7555C541.562 55.7555 553.913 43.4135 553.913 28.1889C553.913 12.9643 541.562 0.622345 526.325 0.622345C511.089 0.622345 498.738 12.9643 498.738 28.1889C498.738 43.4135 511.089 55.7555 526.325 55.7555Z" fill="white"/>
<path d="M538.593 72.3491C538.367 74.8205 537.886 77.2919 537.137 79.7633C532.36 95.3118 518.058 105.353 502.568 105.423C511.048 100.932 520.262 87.4175 525.534 75.3571C527.23 71.4876 528.516 67.7735 529.265 64.5536C529.929 61.6021 529.887 58.5234 529.392 55.5719C528.106 47.2822 523.541 39.9951 523.018 39.1619C522.976 39.1195 522.962 39.0913 522.962 39.0913C522.962 39.0913 531.766 36.6058 539.54 29.6294C544.543 25.1385 546.352 15.9167 546.988 9.90063C553.136 16.8629 555.623 26.7484 552.697 36.2668C550.026 44.9379 543.469 51.3352 535.526 54.1597C538.056 59.7662 539.172 66.0223 538.579 72.335L538.593 72.3491Z" fill="#ECECEC"/>
<path d="M391.058 271.981C428.915 271.981 459.603 241.316 459.603 203.488C459.603 165.661 428.915 134.995 391.058 134.995C353.202 134.995 322.513 165.661 322.513 203.488C322.513 241.316 353.202 271.981 391.058 271.981Z" fill="white"/>
<path d="M452.495 209.264C480.274 209.264 502.794 186.761 502.794 159.003C502.794 131.245 480.274 108.742 452.495 108.742C424.715 108.742 402.195 131.245 402.195 159.003C402.195 186.761 424.715 209.264 452.495 209.264Z" fill="white"/>
<path d="M515.528 200.932C539.771 200.932 559.425 181.293 559.425 157.068C559.425 132.843 539.771 113.205 515.528 113.205C491.284 113.205 471.631 132.843 471.631 157.068C471.631 181.293 491.284 200.932 515.528 200.932Z" fill="white"/>
<path d="M541.773 159.992C566.017 159.992 585.67 140.353 585.67 116.128C585.67 91.9028 566.017 72.2644 541.773 72.2644C517.529 72.2644 497.876 91.9028 497.876 116.128C497.876 140.353 517.529 159.992 541.773 159.992Z" fill="white"/>
<path d="M559.411 156.277C559.524 160.797 558.902 165.415 557.503 169.948C550.366 193.122 525.817 206.115 502.638 198.997C497.932 197.557 493.65 195.396 489.862 192.628C481.934 201.412 471.122 207.146 459.392 208.756C459.01 213.684 458.077 218.655 456.565 223.598C445.442 259.737 407.099 280.045 370.919 268.93C334.724 257.816 314.415 219.488 325.538 183.35C326.668 179.664 328.082 176.162 329.764 172.843C334.569 188.42 347.882 212.159 384.896 223.527C416.682 233.286 434.221 222.892 443.478 208.431C450.997 196.639 453.017 182.149 452.721 173.591V173.563C452.721 173.563 467.956 177.39 475.856 175.808H475.885C483.813 174.241 498.455 163.127 500.321 157.139C500.321 157.139 501.253 157.647 502.794 158.382C508.376 161.037 522.043 166.926 529.604 164.595C532.615 163.663 535.484 162.053 538.126 159.808C543.864 154.879 548.486 146.957 550.988 136.676C550.988 136.676 552.146 136.436 553.941 135.843C559.524 134.106 571.381 129.346 574.363 119.616C578.307 106.779 579.875 95.1 572.159 84.4518C583.72 95.5378 588.751 112.626 583.72 128.993C579.819 141.675 570.661 151.321 559.397 156.249L559.411 156.277Z" fill="#ECECEC"/>
<path d="M502.554 105.451L502.567 105.437" stroke="#ECECEC" stroke-miterlimit="10"/>
<path d="M417.643 286.117H364.276L365.647 267.08H416.272L417.643 286.117Z" fill="#EC675A"/>
<path d="M419.028 305.126H362.92L364.276 286.117H417.643L419.028 305.126Z" fill="#FFFDFE"/>
<path d="M420.384 324.134H361.535L362.92 305.126H419.028L420.384 324.134Z" fill="#EC675A"/>
<path d="M421.755 343.171H360.178L361.535 324.134H420.384L421.755 343.171Z" fill="#FFFDFE"/>
<path d="M423.112 362.179H358.807L360.178 343.171H421.755L423.112 362.179Z" fill="#EC675A"/>
<path d="M424.497 381.216H357.45L358.807 362.179H423.112L424.497 381.216Z" fill="#FFFDFE"/>
<path d="M425.854 400.225H356.065L357.45 381.216H424.497L425.854 400.225Z" fill="#EC675A"/>
<path d="M427.225 419.233H354.708L356.065 400.225H425.854L427.225 419.233Z" fill="#FFFDFE"/>
<path d="M428.61 438.27H353.338L354.708 419.233H427.225L428.61 438.27Z" fill="#EC675A"/>
<path d="M429.967 457.278H351.981L353.337 438.27H428.61L429.967 457.278Z" fill="#FFFDFE"/>
<path d="M431.338 476.315H350.61L351.981 457.278H429.967L431.338 476.315Z" fill="#EC675A"/>
<path d="M432.624 494.166H349.324L350.61 476.315H431.338L432.624 494.166Z" fill="#FFFDFE"/>
<path d="M421.247 288.32H357.662C354.657 288.32 352.221 290.754 352.221 293.757V293.771C352.221 296.774 354.657 299.208 357.662 299.208H421.247C424.252 299.208 426.688 296.774 426.688 293.771V293.757C426.688 290.754 424.252 288.32 421.247 288.32Z" fill="#ECECEC"/>
<path d="M824.348 580.17H517.379V746.417H824.348V580.17Z" fill="#2F5C63"/>
<mask id="mask0_74_151" style="mask-type:luminance" maskUnits="userSpaceOnUse" x="517" y="580" width="308" height="167">
<path d="M824.348 580.17H517.379V746.417H824.348V580.17Z" fill="white"/>
</mask>
<g mask="url(#mask0_74_151)">
<path d="M565.361 663.802H530.424V676.992H565.361V663.802Z" fill="#214347"/>
<path d="M740.808 696.862H705.871V710.052H740.808V696.862Z" stroke="#467A80" stroke-miterlimit="10"/>
<path d="M735.692 705.674H709.956V715.39H735.692V705.674Z" fill="#214347"/>
<path d="M839.004 597.357H804.067V610.547H839.004V597.357Z" fill="#214347"/>
<path d="M833.888 606.183H808.152V615.899H833.888V606.183Z" fill="#467A80"/>
</g>
<path d="M719.34 676.568H651.205V746.431H719.34V676.568Z" fill="#132F36"/>
<path d="M641.467 676.568H573.304V746.431H641.467V676.568Z" fill="#132F36"/>
<path d="M585.105 436.349V580.17H750.263V436.349H585.105ZM735.296 564.607H600.227V548.338H735.296V564.607ZM735.296 538.933H600.227V522.693H735.296V538.933ZM735.296 513.273H600.227V497.004H735.296V513.273ZM735.296 487.599H600.227V471.358H735.296V487.599ZM735.296 461.939H600.227V445.67H735.296V461.939Z" fill="#2F5C63"/>
<path d="M741.274 415.081H596.029V436.349H741.274V415.081Z" fill="#2F5C63"/>
<path d="M735.296 445.67H600.227V461.939H735.296V445.67Z" fill="#FFFDFE"/>
<path d="M735.296 471.344H600.227V487.585H735.296V471.344Z" fill="#FFFDFE"/>
<path d="M735.296 522.678H600.227V538.919H735.296V522.678Z" fill="#FFFDFE"/>
<path d="M735.296 497.004H600.227V513.273H735.296V497.004Z" fill="#FFFDFE"/>
<path d="M735.296 548.338H600.227V564.607H735.296V548.338Z" fill="#FFFDFE"/>
<path d="M517.379 487.938V746.431H0.634277V484.887L122.687 426.69V487.938L254.449 424.119V487.938H517.379Z" fill="#EC6559"/>
<mask id="mask1_74_151" style="mask-type:luminance" maskUnits="userSpaceOnUse" x="0" y="424" width="518" height="323">
<path d="M517.379 487.938V746.431H0.634277V484.887L122.687 426.69V487.938L254.449 424.119V487.938H517.379Z" fill="white"/>
</mask>
<g mask="url(#mask1_74_151)">
<path d="M65.9288 515.914H31.7128V529.457H65.9288V515.914Z" fill="#D25954"/>
<path d="M126.8 662.079H92.5836V675.622H126.8V662.079Z" stroke="#D25954" stroke-miterlimit="10"/>
<path d="M307.292 547.901H273.076V561.444H307.292V547.901Z" fill="#D25954"/>
<path d="M323.573 554.806H297.71V565.045H323.573V554.806Z" fill="#EE706B"/>
<path d="M499.43 514.586H473.567V524.825H499.43V514.586Z" fill="#EE706B"/>
<path d="M354.553 691.919H320.337V705.462H354.553V691.919Z" fill="#D25954"/>
<path d="M522.481 505.139H488.265V518.682H522.481V505.139Z" stroke="#D25954" stroke-miterlimit="10"/>
</g>
<path d="M415.721 669.281H336.618V746.431H415.721V669.281Z" fill="#132F36"/>
<path d="M795.475 608.824H533.124V647.236H795.475V608.824Z" fill="#FFFDFE"/>
<mask id="mask2_74_151" style="mask-type:luminance" maskUnits="userSpaceOnUse" x="533" y="608" width="263" height="40">
<path d="M795.475 608.824H533.124V647.236H795.475V608.824Z" fill="white"/>
</mask>
<g mask="url(#mask2_74_151)">
<path d="M549.546 602.497V653.577" stroke="#DDDDDD" stroke-miterlimit="10"/>
<path d="M566.011 602.497V653.577" stroke="#DDDDDD" stroke-miterlimit="10"/>
<path d="M582.49 602.497V653.577" stroke="#DDDDDD" stroke-miterlimit="10"/>
<path d="M598.955 602.497V653.577" stroke="#DDDDDD" stroke-miterlimit="10"/>
<path d="M615.434 602.497V653.577" stroke="#DDDDDD" stroke-miterlimit="10"/>
<path d="M631.913 602.497V653.577" stroke="#DDDDDD" stroke-miterlimit="10"/>
<path d="M648.378 602.497V653.577" stroke="#DDDDDD" stroke-miterlimit="10"/>
<path d="M664.857 602.497V653.577" stroke="#DDDDDD" stroke-miterlimit="10"/>
<path d="M697.801 602.497V653.577" stroke="#DDDDDD" stroke-miterlimit="10"/>
<path d="M681.322 602.497V653.577" stroke="#DDDDDD" stroke-miterlimit="10"/>
<path d="M714.28 602.497V653.577" stroke="#DDDDDD" stroke-miterlimit="10"/>
<path d="M730.745 602.497V653.577" stroke="#DDDDDD" stroke-miterlimit="10"/>
<path d="M747.224 602.497V653.577" stroke="#DDDDDD" stroke-miterlimit="10"/>
<path d="M763.689 602.497V653.577" stroke="#DDDDDD" stroke-miterlimit="10"/>
<path d="M780.168 602.497V653.577" stroke="#DDDDDD" stroke-miterlimit="10"/>
<path d="M525.845 626.915H802.753" stroke="#DDDDDD" stroke-miterlimit="10"/>
</g>
<path d="M457.568 565.864H38.2563V627.253H457.568V565.864Z" fill="#FFFDFE"/>
<mask id="mask3_74_151" style="mask-type:luminance" maskUnits="userSpaceOnUse" x="38" y="565" width="420" height="63">
<path d="M457.568 565.864H38.2563V627.253H457.568V565.864Z" fill="white"/>
</mask>
<g mask="url(#mask3_74_151)">
<path d="M64.5013 555.739V637.393" stroke="#DDDDDD" stroke-miterlimit="10"/>
<path d="M90.8312 555.739V637.393" stroke="#DDDDDD" stroke-miterlimit="10"/>
<path d="M117.161 555.739V637.393" stroke="#DDDDDD" stroke-miterlimit="10"/>
<path d="M143.491 555.739V637.393" stroke="#DDDDDD" stroke-miterlimit="10"/>
<path d="M169.82 555.739V637.393" stroke="#DDDDDD" stroke-miterlimit="10"/>
<path d="M196.15 555.739V637.393" stroke="#DDDDDD" stroke-miterlimit="10"/>
<path d="M222.48 555.739V637.393" stroke="#DDDDDD" stroke-miterlimit="10"/>
<path d="M248.81 555.739V637.393" stroke="#DDDDDD" stroke-miterlimit="10"/>
<path d="M301.469 555.739V637.393" stroke="#DDDDDD" stroke-miterlimit="10"/>
<path d="M275.14 555.739V637.393" stroke="#DDDDDD" stroke-miterlimit="10"/>
<path d="M327.799 555.739V637.393" stroke="#DDDDDD" stroke-miterlimit="10"/>
<path d="M354.129 555.739V637.393" stroke="#DDDDDD" stroke-miterlimit="10"/>
<path d="M380.459 555.739V637.393" stroke="#DDDDDD" stroke-miterlimit="10"/>
<path d="M406.789 555.739V637.393" stroke="#DDDDDD" stroke-miterlimit="10"/>
<path d="M433.118 555.739V637.393" stroke="#DDDDDD" stroke-miterlimit="10"/>
<path d="M26.6249 594.772H469.2" stroke="#DDDDDD" stroke-miterlimit="10"/>
</g>
<path d="M136.396 530.093V746.431H118.758V530.093C118.758 525.22 122.701 521.28 127.577 521.28C130.022 521.28 132.213 522.269 133.81 523.865C135.407 525.46 136.396 527.649 136.396 530.093Z" fill="#132F36"/>
<path d="M193.776 530.093V746.431H176.138V530.093C176.138 525.22 180.081 521.28 184.957 521.28C187.388 521.28 189.593 522.269 191.19 523.865C192.787 525.46 193.776 527.649 193.776 530.093Z" fill="#132F36"/>
<path opacity="0.2" d="M146.162 541.532V746.431H128.524V541.532C128.524 538.792 129.796 536.335 131.774 534.753C133.258 533.524 135.152 532.818 137.23 532.818H137.442C142.261 532.818 146.176 536.716 146.176 541.546L146.162 541.532Z" fill="#132F36"/>
<path opacity="0.2" d="M203.542 541.532V746.431H185.904V541.532C185.904 538.792 187.176 536.32 189.154 534.725C190.652 533.524 192.546 532.804 194.61 532.804H194.822C199.641 532.804 203.556 536.702 203.556 541.532H203.542Z" fill="#132F36"/>
<path d="M719.34 690.323H694.254V710.518H719.34V690.323Z" fill="#EB5C54"/>
<mask id="mask4_74_151" style="mask-type:luminance" maskUnits="userSpaceOnUse" x="694" y="690" width="26" height="21">
<path d="M719.34 690.323H694.254V710.518H719.34V690.323Z" fill="white"/>
</mask>
<g mask="url(#mask4_74_151)">
<path d="M704.416 688.502H699.949V697.328H704.416V688.502Z" fill="#B32B18"/>
<path d="M704.416 706.451H699.949V712.34H704.416V706.451Z" fill="#B32B18"/>
</g>
<path d="M697.589 710.518H674.878V727.719H697.589V710.518Z" fill="#B32B18"/>
<mask id="mask5_74_151" style="mask-type:luminance" maskUnits="userSpaceOnUse" x="674" y="710" width="24" height="18">
<path d="M697.589 710.518H674.878V727.719H697.589V710.518Z" fill="white"/>
</mask>
<g mask="url(#mask5_74_151)">
<path d="M682.82 708.64H678.057V715.263H682.82V708.64Z" fill="#EB5C54"/>
</g>
<path d="M719.34 710.518H697.589V730.19H719.34V710.518Z" fill="#F0837E"/>
<mask id="mask6_74_151" style="mask-type:luminance" maskUnits="userSpaceOnUse" x="697" y="710" width="23" height="21">
<path d="M719.34 710.518H697.589V730.19H719.34V710.518Z" fill="white"/>
</mask>
<g mask="url(#mask6_74_151)">
<path d="M705.066 726.561H700.6V730.939H705.066V726.561Z" fill="#DA4B37"/>
</g>
<path d="M719.34 730.19H697.589V746.417H719.34V730.19Z" fill="#B32B18"/>
<mask id="mask7_74_151" style="mask-type:luminance" maskUnits="userSpaceOnUse" x="697" y="730" width="23" height="17">
<path d="M719.34 730.19H697.589V746.417H719.34V730.19Z" fill="white"/>
</mask>
<g mask="url(#mask7_74_151)">
<path d="M705.052 728.439H700.585V732.817H705.052V728.439Z" fill="#EB5C54"/>
</g>
<path d="M697.589 727.719H670.51V746.417H697.589V727.719Z" fill="#EB5C54"/>
<path d="M361.619 710.518H386.706V690.323H361.619V710.518Z" fill="#EB5C54"/>
<mask id="mask8_74_151" style="mask-type:luminance" maskUnits="userSpaceOnUse" x="361" y="690" width="26" height="21">
<path d="M361.619 710.518H386.706V690.323H361.619V710.518Z" fill="white"/>
</mask>
<g mask="url(#mask8_74_151)">
<path d="M381.024 688.502H376.558V697.328H381.024V688.502Z" fill="#B32B18"/>
<path d="M381.024 706.451H376.558V712.34H381.024V706.451Z" fill="#B32B18"/>
</g>
<path d="M383.37 727.719H406.082V710.518H383.37V727.719Z" fill="#B32B18"/>
<mask id="mask9_74_151" style="mask-type:luminance" maskUnits="userSpaceOnUse" x="383" y="710" width="24" height="18">
<path d="M383.37 727.719H406.082V710.518H383.37V727.719Z" fill="white"/>
</mask>
<g mask="url(#mask9_74_151)">
<path d="M402.916 708.64H398.153V715.263H402.916V708.64Z" fill="#EB5C54"/>
</g>
<path d="M361.619 730.19H383.37V710.518H361.619V730.19Z" fill="#F0837E"/>
<mask id="mask10_74_151" style="mask-type:luminance" maskUnits="userSpaceOnUse" x="361" y="710" width="23" height="21">
<path d="M361.619 730.19H383.37V710.518H361.619V730.19Z" fill="white"/>
</mask>
<g mask="url(#mask10_74_151)">
<path d="M380.36 726.561H375.894V730.939H380.36V726.561Z" fill="#DA4B37"/>
</g>
<path d="M361.619 746.431H383.37V730.204H361.619V746.431Z" fill="#B32B18"/>
<mask id="mask11_74_151" style="mask-type:luminance" maskUnits="userSpaceOnUse" x="361" y="730" width="23" height="17">
<path d="M361.619 746.431H383.37V730.204H361.619V746.431Z" fill="white"/>
</mask>
<g mask="url(#mask11_74_151)">
<path d="M380.388 728.439H375.922V732.817H380.388V728.439Z" fill="#EB5C54"/>
</g>
<path d="M383.384 746.431H410.463V727.733H383.384V746.431Z" fill="#EB5C54"/>
<path d="M361.619 719.683H346.61V746.417H361.619V719.683Z" fill="#EB5C54"/>
<mask id="mask12_74_151" style="mask-type:luminance" maskUnits="userSpaceOnUse" x="346" y="719" width="16" height="28">
<path d="M361.619 719.683H346.61V746.417H361.619V719.683Z" fill="white"/>
</mask>
<g mask="url(#mask12_74_151)">
<path d="M355.895 718.13H353.069V722.169H355.895V718.13Z" fill="#B32B18"/>
<path d="M355.528 744.101H352.701V748.14H355.528V744.101Z" fill="#B32B18"/>
</g>
<path d="M0.634277 484.887L132.396 422.058" stroke="#074449" stroke-miterlimit="10" stroke-linecap="round"/>
<path d="M122.616 487.5L262.844 419.233" stroke="#074449" stroke-miterlimit="10" stroke-linecap="round"/>
</svg>
