<svg width="272" height="271" viewBox="0 0 272 271" fill="none" xmlns="http://www.w3.org/2000/svg">
<path d="M98.5645 135.774L98.5687 136.824L95.3627 136.829L95.3684 136.273L93.6484 136.27L93.6506 136.82L86.9765 136.814L86.9823 136.258L85.2763 136.257L85.2785 136.807L78.6044 136.802L78.6102 136.246L76.9042 136.245L76.8984 136.801L73.6943 136.791L73.6981 135.735L98.5645 135.774Z" fill="#ECECEC"/>
<path d="M98.5777 123.939L73.7077 123.9L73.7066 124.58L98.5766 124.619L98.5777 123.939Z" fill="#FFFDFE"/>
<path d="M98.5696 124.616L73.6996 124.576L73.6818 135.736L98.5517 135.776L98.5696 124.616Z" fill="#D25954"/>
<path d="M79.0056 126.231L78.9956 126.231C78.6532 126.231 78.3752 126.508 78.3746 126.85L78.3634 133.85C78.3629 134.193 78.64 134.471 78.9824 134.471L78.9924 134.471C79.3349 134.472 79.6129 134.195 79.6134 133.852L79.6246 126.852C79.6252 126.51 79.348 126.232 79.0056 126.231Z" fill="#EE706B"/>
<path d="M76.1628 126.233L76.1528 126.233C75.8104 126.232 75.5324 126.509 75.5318 126.852L75.5207 133.852C75.5201 134.194 75.7973 134.472 76.1397 134.473L76.1497 134.473C76.4921 134.473 76.7701 134.196 76.7707 133.854L76.7818 126.854C76.7824 126.511 76.5053 126.233 76.1628 126.233Z" fill="#EE706B"/>
<path d="M81.8663 126.233L81.8563 126.233C81.5138 126.233 81.2358 126.51 81.2353 126.852L81.2241 133.852C81.2235 134.195 81.5007 134.473 81.8431 134.473L81.8531 134.473C82.1955 134.474 82.4735 134.197 82.4741 133.854L82.4853 126.854C82.4858 126.512 82.2087 126.234 81.8663 126.233Z" fill="#EE706B"/>
<path d="M84.709 126.242L84.699 126.242C84.3566 126.241 84.0785 126.518 84.078 126.861L84.0668 133.861C84.0663 134.203 84.3434 134.481 84.6858 134.482L84.6958 134.482C85.0382 134.482 85.3163 134.205 85.3168 133.863L85.328 126.863C85.3285 126.52 85.0514 126.242 84.709 126.242Z" fill="#EE706B"/>
<path d="M90.4185 126.25L90.4085 126.25C90.066 126.25 89.788 126.527 89.7875 126.869L89.7763 133.869C89.7757 134.212 90.0529 134.49 90.3953 134.49L90.4053 134.49C90.7477 134.491 91.0257 134.214 91.0263 133.871L91.0375 126.871C91.038 126.529 90.7609 126.251 90.4185 126.25Z" fill="#EE706B"/>
<path d="M87.5757 126.252L87.5657 126.252C87.2233 126.251 86.9453 126.529 86.9447 126.871L86.9336 133.871C86.933 134.213 87.2102 134.491 87.5526 134.492L87.5626 134.492C87.905 134.493 88.183 134.215 88.1836 133.873L88.1947 126.873C88.1953 126.531 87.9182 126.253 87.5757 126.252Z" fill="#EE706B"/>
<path d="M93.2792 126.253L93.2692 126.253C92.9267 126.252 92.6487 126.529 92.6482 126.872L92.637 133.872C92.6364 134.214 92.9136 134.492 93.256 134.493L93.266 134.493C93.6084 134.493 93.8864 134.216 93.887 133.874L93.8982 126.874C93.8987 126.531 93.6216 126.253 93.2792 126.253Z" fill="#EE706B"/>
<path d="M96.1298 126.255L96.1198 126.255C95.7774 126.254 95.4994 126.531 95.4988 126.874L95.4876 133.874C95.4871 134.216 95.7642 134.494 96.1067 134.495L96.1167 134.495C96.4591 134.495 96.7371 134.218 96.7376 133.876L96.7488 126.876C96.7494 126.533 96.4722 126.255 96.1298 126.255Z" fill="#EE706B"/>
<path d="M98.5459 148.664L98.5481 149.728L95.3441 149.719L95.3419 149.169L93.6358 149.168L93.638 149.718L86.9579 149.705L86.9557 149.155L85.2637 149.155L85.2599 149.697L78.5858 149.692L78.5836 149.142L76.8776 149.141L76.8798 149.691L73.6757 149.682L73.6795 148.626L98.5459 148.664Z" fill="#ECECEC"/>
<path d="M98.5493 136.839L73.6794 136.799L73.6783 137.479L98.5483 137.519L98.5493 136.839Z" fill="#FFFDFE"/>
<path d="M98.5512 137.515L73.6813 137.476L73.6634 148.636L98.5334 148.675L98.5512 137.515Z" fill="#D25954"/>
<path d="M78.9952 139.125L78.9852 139.125C78.6428 139.124 78.3648 139.401 78.3642 139.744L78.3531 146.744C78.3525 147.086 78.6296 147.364 78.9721 147.365L78.9821 147.365C79.3245 147.365 79.6025 147.088 79.6031 146.746L79.6142 139.746C79.6148 139.403 79.3377 139.125 78.9952 139.125Z" fill="#EE706B"/>
<path d="M76.1346 139.122L76.1246 139.122C75.7822 139.122 75.5041 139.399 75.5036 139.741L75.4924 146.741C75.4919 147.084 75.769 147.362 76.1114 147.362L76.1214 147.362C76.4638 147.363 76.7419 147.086 76.7424 146.743L76.7536 139.743C76.7541 139.401 76.477 139.123 76.1346 139.122Z" fill="#EE706B"/>
<path d="M81.844 139.131L81.834 139.131C81.4916 139.13 81.2135 139.407 81.213 139.75L81.2018 146.75C81.2013 147.092 81.4784 147.37 81.8208 147.371L81.8308 147.371C82.1732 147.371 82.4513 147.094 82.4518 146.752L82.463 139.752C82.4635 139.409 82.1864 139.131 81.844 139.131Z" fill="#EE706B"/>
<path d="M84.6947 139.133L84.6847 139.133C84.3423 139.133 84.0643 139.41 84.0637 139.752L84.0525 146.752C84.052 147.095 84.3291 147.373 84.6715 147.373L84.6815 147.373C85.0239 147.374 85.302 147.097 85.3025 146.754L85.3137 139.754C85.3143 139.412 85.0371 139.134 84.6947 139.133Z" fill="#EE706B"/>
<path d="M90.3981 139.144L90.3881 139.144C90.0456 139.143 89.7676 139.42 89.7671 139.763L89.7559 146.763C89.7553 147.105 90.0325 147.383 90.3749 147.384L90.3849 147.384C90.7273 147.384 91.0053 147.107 91.0059 146.765L91.0171 139.765C91.0176 139.422 90.7405 139.144 90.3981 139.144Z" fill="#EE706B"/>
<path d="M87.5474 139.141L87.5374 139.141C87.195 139.141 86.917 139.418 86.9164 139.76L86.9052 146.76C86.9047 147.103 87.1818 147.381 87.5242 147.381L87.5343 147.381C87.8767 147.382 88.1547 147.105 88.1552 146.762L88.1664 139.762C88.167 139.42 87.8898 139.142 87.5474 139.141Z" fill="#EE706B"/>
<path d="M93.2568 139.15L93.2468 139.15C92.9044 139.149 92.6264 139.427 92.6258 139.769L92.6147 146.769C92.6141 147.111 92.8913 147.389 93.2337 147.39L93.2437 147.39C93.5861 147.391 93.8641 147.113 93.8647 146.771L93.8758 139.771C93.8764 139.429 93.5993 139.151 93.2568 139.15Z" fill="#EE706B"/>
<path d="M96.1075 139.152L96.0975 139.152C95.7551 139.152 95.4771 139.429 95.4765 139.771L95.4654 146.771C95.4648 147.114 95.742 147.392 96.0844 147.392L96.0944 147.392C96.4368 147.393 96.7148 147.116 96.7154 146.773L96.7265 139.773C96.7271 139.431 96.45 139.153 96.1075 139.152Z" fill="#EE706B"/>
<path d="M98.591 122.878L98.5872 123.934L95.3892 123.933L95.387 123.383L93.6749 123.374L93.6771 123.924L87.003 123.918L87.0008 123.368L85.3028 123.361L85.297 123.917L78.6309 123.906L78.6287 123.356L76.9227 123.354L76.9249 123.904L73.7129 123.901L73.7166 122.845L98.591 122.878Z" fill="#ECECEC"/>
<path d="M98.5919 111.048L73.7219 111.008L73.7208 111.688L98.5908 111.728L98.5919 111.048Z" fill="#FFFDFE"/>
<path d="M98.5898 111.732L73.7198 111.693L73.702 122.853L98.572 122.892L98.5898 111.732Z" fill="#214347"/>
<path d="M79.0278 113.334L79.0178 113.334C78.6753 113.333 78.3973 113.61 78.3968 113.953L78.3856 120.953C78.385 121.295 78.6622 121.573 79.0046 121.574L79.0146 121.574C79.357 121.574 79.635 121.297 79.6356 120.955L79.6468 113.955C79.6473 113.612 79.3702 113.334 79.0278 113.334Z" fill="#467A80"/>
<path d="M76.1851 113.325L76.1751 113.325C75.8326 113.325 75.5546 113.602 75.5541 113.944L75.5429 120.944C75.5423 121.287 75.8195 121.565 76.1619 121.565L76.1719 121.565C76.5143 121.566 76.7923 121.289 76.7929 120.946L76.8041 113.946C76.8046 113.604 76.5275 113.326 76.1851 113.325Z" fill="#467A80"/>
<path d="M81.8865 113.35L81.8765 113.35C81.5341 113.349 81.2561 113.627 81.2555 113.969L81.2444 120.969C81.2438 121.311 81.521 121.589 81.8634 121.59L81.8734 121.59C82.2158 121.59 82.4938 121.313 82.4944 120.971L82.5055 113.971C82.5061 113.629 82.229 113.35 81.8865 113.35Z" fill="#467A80"/>
<path d="M84.7372 113.342L84.7272 113.342C84.3848 113.342 84.1068 113.619 84.1062 113.961L84.0951 120.961C84.0945 121.304 84.3717 121.582 84.7141 121.582L84.7241 121.582C85.0665 121.583 85.3445 121.306 85.3451 120.963L85.3562 113.963C85.3568 113.621 85.0797 113.343 84.7372 113.342Z" fill="#467A80"/>
<path d="M90.4466 113.361L90.4366 113.361C90.0942 113.36 89.8162 113.637 89.8157 113.98L89.8045 120.98C89.8039 121.322 90.0811 121.6 90.4235 121.601L90.4335 121.601C90.7759 121.601 91.0539 121.324 91.0545 120.982L91.0657 113.982C91.0662 113.639 90.7891 113.361 90.4466 113.361Z" fill="#467A80"/>
<path d="M87.5899 113.351L87.58 113.351C87.2375 113.35 86.9595 113.627 86.959 113.97L86.9478 120.97C86.9472 121.312 87.2244 121.59 87.5668 121.591L87.5768 121.591C87.9192 121.591 88.1972 121.314 88.1978 120.972L88.209 113.972C88.2095 113.629 87.9324 113.351 87.5899 113.351Z" fill="#467A80"/>
<path d="M93.2894 113.369L93.2794 113.369C92.937 113.369 92.6589 113.646 92.6584 113.988L92.6472 120.988C92.6466 121.331 92.9238 121.609 93.2662 121.609L93.2762 121.609C93.6186 121.61 93.8966 121.333 93.8972 120.99L93.9084 113.99C93.9089 113.648 93.6318 113.37 93.2894 113.369Z" fill="#467A80"/>
<path d="M96.1501 113.361L96.1401 113.361C95.7977 113.361 95.5196 113.638 95.5191 113.98L95.5079 120.98C95.5074 121.323 95.7845 121.601 96.1269 121.601L96.1369 121.601C96.4793 121.602 96.7574 121.325 96.7579 120.982L96.7691 113.982C96.7696 113.64 96.4925 113.362 96.1501 113.361Z" fill="#467A80"/>
<path d="M123.426 148.705L123.422 149.761L120.21 149.758L120.216 149.202L118.51 149.201L118.504 149.757L111.838 149.745L111.836 149.195L110.13 149.194L110.132 149.744L103.452 149.731L103.458 149.175L101.752 149.174L101.746 149.73L98.5481 149.728L98.5459 148.664L123.426 148.705Z" fill="#ECECEC"/>
<path d="M123.416 136.872L98.5462 136.832L98.5451 137.512L123.415 137.552L123.416 136.872Z" fill="#FFFDFE"/>
<path d="M123.424 137.556L98.5541 137.517L98.5363 148.677L123.406 148.716L123.424 137.556Z" fill="#D25954"/>
<path d="M103.862 139.158L103.852 139.158C103.51 139.157 103.232 139.434 103.231 139.777L103.22 146.777C103.219 147.119 103.497 147.397 103.839 147.398L103.849 147.398C104.191 147.398 104.469 147.121 104.47 146.779L104.481 139.779C104.482 139.436 104.205 139.158 103.862 139.158Z" fill="#EE706B"/>
<path d="M101.011 139.165L101.001 139.165C100.659 139.165 100.381 139.442 100.38 139.784L100.369 146.784C100.369 147.127 100.646 147.405 100.988 147.405L100.998 147.405C101.341 147.406 101.619 147.129 101.619 146.786L101.63 139.786C101.631 139.444 101.354 139.166 101.011 139.165Z" fill="#EE706B"/>
<path d="M106.711 139.174L106.701 139.174C106.358 139.173 106.08 139.451 106.08 139.793L106.069 146.793C106.068 147.135 106.345 147.413 106.688 147.414L106.698 147.414C107.04 147.415 107.318 147.137 107.319 146.795L107.33 139.795C107.33 139.453 107.053 139.175 106.711 139.174Z" fill="#EE706B"/>
<path d="M109.572 139.176L109.562 139.176C109.219 139.176 108.941 139.453 108.941 139.795L108.929 146.795C108.929 147.138 109.206 147.416 109.548 147.416L109.558 147.416C109.901 147.417 110.179 147.14 110.179 146.797L110.191 139.797C110.191 139.455 109.914 139.177 109.572 139.176Z" fill="#EE706B"/>
<path d="M115.281 139.185L115.271 139.185C114.929 139.184 114.65 139.461 114.65 139.804L114.639 146.804C114.638 147.146 114.915 147.424 115.258 147.425L115.268 147.425C115.61 147.425 115.888 147.148 115.889 146.806L115.9 139.806C115.9 139.463 115.623 139.185 115.281 139.185Z" fill="#EE706B"/>
<path d="M112.414 139.175L112.404 139.175C112.062 139.174 111.784 139.451 111.783 139.794L111.772 146.794C111.772 147.136 112.049 147.414 112.391 147.415L112.401 147.415C112.743 147.415 113.022 147.138 113.022 146.796L113.033 139.796C113.034 139.453 112.757 139.175 112.414 139.175Z" fill="#EE706B"/>
<path d="M118.124 139.193L118.114 139.193C117.771 139.193 117.493 139.47 117.493 139.812L117.481 146.812C117.481 147.155 117.758 147.433 118.1 147.433L118.11 147.433C118.453 147.434 118.731 147.157 118.731 146.814L118.743 139.814C118.743 139.472 118.466 139.194 118.124 139.193Z" fill="#EE706B"/>
<path d="M120.984 139.195L120.974 139.195C120.632 139.195 120.354 139.472 120.353 139.814L120.342 146.814C120.342 147.157 120.619 147.435 120.961 147.435L120.971 147.435C121.314 147.436 121.592 147.159 121.592 146.816L121.603 139.816C121.604 139.474 121.327 139.196 120.984 139.195Z" fill="#EE706B"/>
<path d="M148.336 123.636L148.333 124.692L145.127 124.696L145.132 124.14L143.42 124.131L143.415 124.687L136.748 124.676L136.746 124.126L135.048 124.119L135.042 124.675L128.376 124.663L128.374 124.113L126.668 124.112L126.664 124.654L123.458 124.659L123.456 123.595L148.336 123.636Z" fill="#ECECEC"/>
<path d="M148.338 111.803L123.468 111.764L123.467 112.444L148.337 112.483L148.338 111.803Z" fill="#FFFDFE"/>
<path d="M148.336 112.488L123.466 112.448L123.448 123.608L148.318 123.648L148.336 112.488Z" fill="#D25954"/>
<path d="M128.78 114.097L128.77 114.097C128.427 114.096 128.149 114.373 128.149 114.716L128.138 121.716C128.137 122.058 128.414 122.336 128.757 122.337L128.767 122.337C129.109 122.337 129.387 122.06 129.388 121.718L129.399 114.718C129.399 114.375 129.122 114.097 128.78 114.097Z" fill="#EE706B"/>
<path d="M125.923 114.087L125.913 114.087C125.571 114.086 125.293 114.363 125.292 114.706L125.281 121.706C125.28 122.048 125.558 122.326 125.9 122.327L125.91 122.327C126.252 122.327 126.53 122.05 126.531 121.708L126.542 114.708C126.543 114.365 126.266 114.087 125.923 114.087Z" fill="#EE706B"/>
<path d="M131.633 114.105L131.623 114.105C131.28 114.105 131.002 114.382 131.002 114.724L130.99 121.724C130.99 122.067 131.267 122.345 131.609 122.345L131.619 122.345C131.962 122.346 132.24 122.069 132.24 121.726L132.252 114.726C132.252 114.384 131.975 114.106 131.633 114.105Z" fill="#EE706B"/>
<path d="M134.483 114.107L134.473 114.107C134.131 114.107 133.853 114.384 133.852 114.726L133.841 121.726C133.841 122.069 134.118 122.347 134.46 122.347L134.47 122.347C134.813 122.348 135.091 122.071 135.091 121.728L135.102 114.728C135.103 114.386 134.826 114.108 134.483 114.107Z" fill="#EE706B"/>
<path d="M140.193 114.116L140.183 114.116C139.84 114.115 139.562 114.393 139.562 114.735L139.551 121.735C139.55 122.077 139.827 122.355 140.17 122.356L140.18 122.356C140.522 122.357 140.8 122.079 140.801 121.737L140.812 114.737C140.812 114.395 140.535 114.117 140.193 114.116Z" fill="#EE706B"/>
<path d="M137.336 114.106L137.326 114.106C136.984 114.105 136.706 114.382 136.705 114.725L136.694 121.725C136.693 122.067 136.97 122.345 137.313 122.346L137.323 122.346C137.665 122.346 137.943 122.069 137.944 121.727L137.955 114.727C137.956 114.384 137.678 114.106 137.336 114.106Z" fill="#EE706B"/>
<path d="M143.035 114.124L143.025 114.124C142.683 114.124 142.405 114.401 142.404 114.743L142.393 121.743C142.393 122.086 142.67 122.364 143.012 122.364L143.022 122.364C143.365 122.365 143.643 122.088 143.643 121.745L143.654 114.745C143.655 114.403 143.378 114.125 143.035 114.124Z" fill="#EE706B"/>
<path d="M145.896 114.127L145.886 114.127C145.544 114.126 145.266 114.403 145.265 114.746L145.254 121.746C145.253 122.088 145.531 122.366 145.873 122.367L145.883 122.367C146.225 122.367 146.503 122.09 146.504 121.748L146.515 114.748C146.516 114.405 146.239 114.127 145.896 114.127Z" fill="#EE706B"/>
<path d="M123.439 135.807L123.441 136.871L120.237 136.862L120.235 136.312L118.529 136.31L118.531 136.861L111.851 136.847L111.855 136.305L110.157 136.298L110.159 136.848L103.479 136.835L103.476 136.285L101.77 136.283L101.773 136.833L98.5686 136.824L98.5644 135.774L123.439 135.807Z" fill="#ECECEC"/>
<path d="M123.444 123.983L98.5745 123.943L98.5734 124.623L123.443 124.663L123.444 123.983Z" fill="#FFFDFE"/>
<path d="M123.446 124.659L98.5764 124.619L98.5585 135.779L123.428 135.819L123.446 124.659Z" fill="#214347"/>
<path d="M103.882 126.274L103.872 126.274C103.53 126.274 103.252 126.551 103.251 126.893L103.24 133.893C103.24 134.236 103.517 134.514 103.859 134.514L103.869 134.514C104.212 134.515 104.49 134.238 104.49 133.895L104.501 126.895C104.502 126.553 104.225 126.275 103.882 126.274Z" fill="#467A80"/>
<path d="M101.03 126.266L101.02 126.266C100.677 126.265 100.399 126.542 100.399 126.885L100.387 133.885C100.387 134.227 100.664 134.505 101.006 134.506L101.016 134.506C101.359 134.506 101.637 134.229 101.637 133.887L101.649 126.887C101.649 126.544 101.372 126.266 101.03 126.266Z" fill="#467A80"/>
<path d="M106.733 126.276L106.723 126.276C106.381 126.276 106.103 126.553 106.102 126.895L106.091 133.895C106.09 134.238 106.368 134.516 106.71 134.516L106.72 134.516C107.062 134.517 107.34 134.24 107.341 133.897L107.352 126.897C107.353 126.555 107.076 126.277 106.733 126.276Z" fill="#467A80"/>
<path d="M109.592 126.283L109.582 126.283C109.239 126.282 108.961 126.559 108.961 126.902L108.95 133.902C108.949 134.244 109.226 134.522 109.569 134.523L109.579 134.523C109.921 134.523 110.199 134.246 110.2 133.904L110.211 126.904C110.211 126.561 109.934 126.283 109.592 126.283Z" fill="#467A80"/>
<path d="M115.303 126.287L115.293 126.287C114.951 126.287 114.673 126.564 114.672 126.906L114.661 133.906C114.66 134.249 114.938 134.527 115.28 134.527L115.29 134.527C115.632 134.528 115.91 134.251 115.911 133.908L115.922 126.908C115.923 126.566 115.646 126.288 115.303 126.287Z" fill="#467A80"/>
<path d="M112.443 126.285L112.433 126.285C112.09 126.284 111.812 126.562 111.812 126.904L111.8 133.904C111.8 134.246 112.077 134.524 112.419 134.525L112.429 134.525C112.772 134.526 113.05 134.248 113.05 133.906L113.062 126.906C113.062 126.564 112.785 126.286 112.443 126.285Z" fill="#467A80"/>
<path d="M118.146 126.296L118.136 126.296C117.794 126.295 117.515 126.572 117.515 126.915L117.504 133.915C117.503 134.257 117.78 134.535 118.123 134.536L118.133 134.536C118.475 134.536 118.753 134.259 118.754 133.917L118.765 126.917C118.765 126.574 118.488 126.296 118.146 126.296Z" fill="#467A80"/>
<path d="M121.003 126.296L120.993 126.296C120.65 126.295 120.372 126.572 120.372 126.915L120.361 133.915C120.36 134.257 120.637 134.535 120.98 134.536L120.99 134.536C121.332 134.536 121.61 134.259 121.611 133.917L121.622 126.917C121.622 126.574 121.345 126.296 121.003 126.296Z" fill="#467A80"/>
<path d="M148.293 148.744L148.289 149.8L145.091 149.799L145.089 149.249L143.377 149.239L143.379 149.789L136.705 149.784L136.702 149.234L135.004 149.227L135.007 149.777L128.333 149.771L128.33 149.221L126.624 149.22L126.627 149.77L123.422 149.761L123.426 148.705L148.293 148.744Z" fill="#ECECEC"/>
<path d="M148.293 136.915L123.423 136.875L123.422 137.555L148.292 137.595L148.293 136.915Z" fill="#FFFDFE"/>
<path d="M148.291 137.599L123.421 137.56L123.403 148.72L148.273 148.759L148.291 137.599Z" fill="#214347"/>
<path d="M128.735 139.209L128.725 139.209C128.382 139.208 128.104 139.485 128.104 139.828L128.093 146.828C128.092 147.17 128.369 147.448 128.712 147.449L128.722 147.449C129.064 147.449 129.342 147.172 129.343 146.83L129.354 139.83C129.354 139.487 129.077 139.209 128.735 139.209Z" fill="#467A80"/>
<path d="M125.884 139.206L125.874 139.206C125.532 139.206 125.254 139.483 125.253 139.825L125.242 146.825C125.241 147.168 125.519 147.446 125.861 147.446L125.871 147.446C126.213 147.447 126.491 147.17 126.492 146.827L126.503 139.827C126.504 139.485 126.227 139.207 125.884 139.206Z" fill="#467A80"/>
<path d="M131.588 139.207L131.578 139.207C131.235 139.206 130.957 139.484 130.957 139.826L130.945 146.826C130.945 147.168 131.222 147.446 131.564 147.447L131.574 147.447C131.917 147.448 132.195 147.17 132.195 146.828L132.207 139.828C132.207 139.486 131.93 139.208 131.588 139.207Z" fill="#467A80"/>
<path d="M134.438 139.209L134.428 139.209C134.086 139.209 133.808 139.486 133.807 139.828L133.796 146.828C133.796 147.171 134.073 147.449 134.415 147.449L134.425 147.449C134.768 147.45 135.046 147.173 135.046 146.83L135.057 139.83C135.058 139.488 134.781 139.21 134.438 139.209Z" fill="#467A80"/>
<path d="M140.148 139.228L140.138 139.228C139.795 139.227 139.517 139.504 139.517 139.847L139.506 146.847C139.505 147.189 139.782 147.467 140.125 147.468L140.135 147.468C140.477 147.468 140.755 147.191 140.756 146.849L140.767 139.849C140.767 139.506 140.49 139.228 140.148 139.228Z" fill="#467A80"/>
<path d="M137.297 139.226L137.287 139.226C136.945 139.225 136.667 139.502 136.666 139.845L136.655 146.845C136.654 147.187 136.931 147.465 137.274 147.466L137.284 147.466C137.626 147.466 137.904 147.189 137.905 146.847L137.916 139.847C137.917 139.504 137.639 139.226 137.297 139.226Z" fill="#467A80"/>
<path d="M143.008 139.22L142.998 139.22C142.656 139.22 142.378 139.497 142.377 139.839L142.366 146.839C142.366 147.182 142.643 147.46 142.985 147.46L142.995 147.46C143.338 147.461 143.616 147.184 143.616 146.841L143.627 139.841C143.628 139.499 143.351 139.221 143.008 139.22Z" fill="#467A80"/>
<path d="M145.851 139.228L145.841 139.228C145.499 139.228 145.221 139.505 145.22 139.847L145.209 146.847C145.208 147.19 145.486 147.468 145.828 147.468L145.838 147.468C146.18 147.469 146.458 147.192 146.459 146.849L146.47 139.849C146.471 139.507 146.194 139.229 145.851 139.228Z" fill="#467A80"/>
<path d="M148.311 135.854L148.315 136.904L145.109 136.909L145.115 136.353L143.403 136.343L143.397 136.899L136.731 136.888L136.729 136.338L135.023 136.337L135.025 136.887L128.351 136.881L128.357 136.325L126.651 136.324L126.639 136.872L123.441 136.871L123.439 135.807L148.311 135.854Z" fill="#ECECEC"/>
<path d="M148.321 124.016L123.451 123.976L123.45 124.656L148.32 124.696L148.321 124.016Z" fill="#FFFDFE"/>
<path d="M148.319 124.7L123.449 124.66L123.431 135.82L148.301 135.86L148.319 124.7Z" fill="#214347"/>
<path d="M128.757 126.301L128.747 126.301C128.405 126.301 128.127 126.578 128.126 126.92L128.115 133.92C128.114 134.263 128.392 134.541 128.734 134.541L128.744 134.541C129.086 134.542 129.364 134.265 129.365 133.922L129.376 126.922C129.377 126.58 129.1 126.302 128.757 126.301Z" fill="#467A80"/>
<path d="M125.906 126.309L125.896 126.309C125.554 126.308 125.276 126.586 125.275 126.928L125.264 133.928C125.264 134.27 125.541 134.548 125.883 134.549L125.893 134.549C126.236 134.55 126.514 134.272 126.514 133.93L126.525 126.93C126.526 126.588 126.249 126.31 125.906 126.309Z" fill="#467A80"/>
<path d="M131.616 126.318L131.606 126.318C131.264 126.317 130.986 126.594 130.985 126.937L130.974 133.937C130.973 134.279 131.25 134.557 131.593 134.558L131.603 134.558C131.945 134.558 132.223 134.281 132.224 133.939L132.235 126.939C132.236 126.596 131.958 126.318 131.616 126.318Z" fill="#467A80"/>
<path d="M134.467 126.32L134.457 126.32C134.114 126.319 133.836 126.596 133.836 126.939L133.824 133.939C133.824 134.281 134.101 134.559 134.443 134.56L134.453 134.56C134.796 134.56 135.074 134.283 135.074 133.941L135.086 126.941C135.086 126.598 134.809 126.32 134.467 126.32Z" fill="#467A80"/>
<path d="M140.17 126.32L140.16 126.32C139.818 126.32 139.54 126.597 139.539 126.939L139.528 133.939C139.527 134.282 139.804 134.56 140.147 134.56L140.157 134.56C140.499 134.561 140.777 134.284 140.778 133.941L140.789 126.941C140.79 126.599 140.512 126.321 140.17 126.32Z" fill="#467A80"/>
<path d="M137.319 126.328L137.309 126.328C136.967 126.328 136.689 126.605 136.688 126.947L136.677 133.947C136.677 134.29 136.954 134.568 137.296 134.568L137.306 134.568C137.649 134.569 137.927 134.292 137.927 133.949L137.938 126.949C137.939 126.607 137.662 126.329 137.319 126.328Z" fill="#467A80"/>
<path d="M143.019 126.337L143.009 126.337C142.666 126.336 142.388 126.613 142.388 126.956L142.377 133.956C142.376 134.298 142.653 134.576 142.996 134.577L143.006 134.577C143.348 134.577 143.626 134.3 143.627 133.958L143.638 126.958C143.638 126.615 143.361 126.337 143.019 126.337Z" fill="#467A80"/>
<path d="M145.872 126.345L145.862 126.345C145.519 126.344 145.241 126.622 145.241 126.964L145.229 133.964C145.229 134.306 145.506 134.584 145.848 134.585L145.858 134.585C146.201 134.586 146.479 134.308 146.479 133.966L146.491 126.966C146.491 126.624 146.214 126.346 145.872 126.345Z" fill="#467A80"/>
<path d="M173.203 123.674L173.205 124.738L170.001 124.729L169.999 124.179L168.293 124.178L168.295 124.728L161.615 124.715L161.621 124.159L159.921 124.165L159.923 124.715L153.243 124.702L153.24 124.152L151.534 124.151L151.537 124.701L148.333 124.692L148.336 123.636L173.203 123.674Z" fill="#ECECEC"/>
<path d="M173.211 111.854L148.341 111.815L148.34 112.495L173.21 112.534L173.211 111.854Z" fill="#FFFDFE"/>
<path d="M173.213 112.531L148.343 112.491L148.325 123.651L173.195 123.691L173.213 112.531Z" fill="#D25954"/>
<path d="M153.657 114.14L153.647 114.14C153.304 114.139 153.026 114.417 153.026 114.759L153.014 121.759C153.014 122.101 153.291 122.379 153.634 122.38L153.643 122.38C153.986 122.381 154.264 122.103 154.264 121.761L154.276 114.761C154.276 114.419 153.999 114.141 153.657 114.14Z" fill="#EE706B"/>
<path d="M150.796 114.138L150.786 114.138C150.444 114.137 150.166 114.414 150.165 114.757L150.154 121.757C150.153 122.099 150.43 122.377 150.773 122.378L150.783 122.378C151.125 122.378 151.403 122.101 151.404 121.759L151.415 114.759C151.416 114.416 151.138 114.138 150.796 114.138Z" fill="#EE706B"/>
<path d="M156.499 114.138L156.489 114.138C156.147 114.138 155.869 114.415 155.868 114.757L155.857 121.757C155.857 122.1 156.134 122.378 156.476 122.378L156.486 122.378C156.829 122.379 157.107 122.102 157.107 121.759L157.118 114.759C157.119 114.417 156.842 114.139 156.499 114.138Z" fill="#EE706B"/>
<path d="M159.36 114.141L159.35 114.141C159.008 114.14 158.73 114.417 158.729 114.76L158.718 121.76C158.717 122.102 158.995 122.38 159.337 122.381L159.347 122.381C159.689 122.381 159.967 122.104 159.968 121.762L159.979 114.762C159.98 114.419 159.703 114.141 159.36 114.141Z" fill="#EE706B"/>
<path d="M165.059 114.159L165.049 114.159C164.707 114.159 164.429 114.436 164.429 114.778L164.417 121.778C164.417 122.121 164.694 122.399 165.036 122.399L165.046 122.399C165.389 122.4 165.667 122.123 165.667 121.78L165.679 114.78C165.679 114.438 165.402 114.16 165.059 114.159Z" fill="#EE706B"/>
<path d="M162.209 114.157L162.199 114.157C161.856 114.156 161.578 114.433 161.578 114.776L161.567 121.776C161.566 122.118 161.843 122.396 162.186 122.397L162.196 122.397C162.538 122.397 162.816 122.12 162.817 121.778L162.828 114.778C162.828 114.435 162.551 114.157 162.209 114.157Z" fill="#EE706B"/>
<path d="M167.912 114.157L167.902 114.157C167.56 114.157 167.282 114.434 167.281 114.776L167.27 121.776C167.27 122.119 167.547 122.397 167.889 122.397L167.899 122.397C168.242 122.398 168.52 122.121 168.52 121.778L168.531 114.778C168.532 114.436 168.255 114.158 167.912 114.157Z" fill="#EE706B"/>
<path d="M170.763 114.16L170.753 114.16C170.411 114.159 170.132 114.436 170.132 114.779L170.121 121.779C170.12 122.121 170.397 122.399 170.74 122.4L170.75 122.4C171.092 122.4 171.37 122.123 171.371 121.781L171.382 114.781C171.382 114.438 171.105 114.16 170.763 114.16Z" fill="#EE706B"/>
<path d="M198.039 148.823L198.035 149.879L194.831 149.87L194.835 149.328L193.123 149.319L193.125 149.869L186.451 149.864L186.449 149.314L184.751 149.306L184.753 149.856L178.079 149.851L178.077 149.301L176.365 149.292L176.367 149.842L173.169 149.841L173.167 148.777L198.039 148.823Z" fill="#ECECEC"/>
<path d="M198.051 136.993L173.181 136.953L173.18 137.634L198.05 137.673L198.051 136.993Z" fill="#FFFDFE"/>
<path d="M198.049 137.678L173.179 137.638L173.161 148.798L198.031 148.838L198.049 137.678Z" fill="#D25954"/>
<path d="M178.479 139.285L178.469 139.285C178.126 139.284 177.848 139.561 177.848 139.904L177.836 146.904C177.836 147.246 178.113 147.524 178.455 147.525L178.465 147.525C178.808 147.525 179.086 147.248 179.086 146.906L179.098 139.906C179.098 139.563 178.821 139.285 178.479 139.285Z" fill="#EE706B"/>
<path d="M175.628 139.283L175.618 139.283C175.275 139.282 174.997 139.559 174.997 139.902L174.986 146.902C174.985 147.244 175.262 147.522 175.605 147.523L175.615 147.523C175.957 147.523 176.235 147.246 176.236 146.904L176.247 139.904C176.247 139.561 175.97 139.283 175.628 139.283Z" fill="#EE706B"/>
<path d="M181.345 139.285L181.335 139.285C180.993 139.285 180.715 139.562 180.714 139.904L180.703 146.904C180.703 147.247 180.98 147.525 181.322 147.525L181.332 147.525C181.675 147.526 181.953 147.249 181.953 146.906L181.964 139.906C181.965 139.564 181.688 139.286 181.345 139.285Z" fill="#EE706B"/>
<path d="M184.188 139.293L184.178 139.293C183.836 139.293 183.558 139.57 183.557 139.912L183.546 146.912C183.545 147.255 183.822 147.533 184.165 147.533L184.175 147.533C184.517 147.534 184.795 147.257 184.796 146.914L184.807 139.914C184.808 139.572 184.53 139.294 184.188 139.293Z" fill="#EE706B"/>
<path d="M189.891 139.304L189.881 139.304C189.539 139.303 189.261 139.581 189.26 139.923L189.249 146.923C189.249 147.265 189.526 147.543 189.868 147.544L189.878 147.544C190.221 147.545 190.499 147.267 190.499 146.925L190.51 139.925C190.511 139.583 190.234 139.305 189.891 139.304Z" fill="#EE706B"/>
<path d="M187.049 139.296L187.039 139.296C186.696 139.295 186.418 139.572 186.418 139.915L186.407 146.915C186.406 147.257 186.683 147.535 187.026 147.536L187.036 147.536C187.378 147.536 187.656 147.259 187.657 146.917L187.668 139.917C187.668 139.574 187.391 139.296 187.049 139.296Z" fill="#EE706B"/>
<path d="M192.748 139.304L192.738 139.304C192.396 139.304 192.118 139.581 192.117 139.923L192.106 146.923C192.105 147.266 192.383 147.544 192.725 147.544L192.735 147.544C193.077 147.545 193.355 147.268 193.356 146.925L193.367 139.925C193.368 139.583 193.091 139.305 192.748 139.304Z" fill="#EE706B"/>
<path d="M195.601 139.313L195.591 139.313C195.248 139.312 194.97 139.589 194.97 139.932L194.959 146.932C194.958 147.274 195.235 147.552 195.578 147.553L195.588 147.553C195.93 147.553 196.208 147.276 196.209 146.934L196.22 139.934C196.22 139.591 195.943 139.313 195.601 139.313Z" fill="#EE706B"/>
<path d="M198.058 135.933L198.062 136.983L194.85 136.98L194.856 136.424L193.142 136.429L193.144 136.979L186.47 136.974L186.476 136.417L184.77 136.416L184.772 136.966L178.092 136.953L178.104 136.405L176.392 136.396L176.386 136.952L173.188 136.95L173.186 135.887L198.058 135.933Z" fill="#ECECEC"/>
<path d="M198.071 124.1L173.201 124.06L173.2 124.74L198.07 124.78L198.071 124.1Z" fill="#FFFDFE"/>
<path d="M198.063 124.776L173.193 124.736L173.175 135.896L198.045 135.936L198.063 124.776Z" fill="#D25954"/>
<path d="M178.507 126.385L178.497 126.385C178.154 126.385 177.876 126.662 177.876 127.004L177.865 134.004C177.864 134.347 178.141 134.625 178.484 134.625L178.494 134.625C178.836 134.626 179.114 134.349 179.115 134.006L179.126 127.006C179.126 126.664 178.849 126.386 178.507 126.385Z" fill="#EE706B"/>
<path d="M175.656 126.393L175.646 126.393C175.304 126.393 175.026 126.67 175.025 127.012L175.014 134.012C175.013 134.355 175.291 134.633 175.633 134.633L175.643 134.633C175.985 134.634 176.263 134.357 176.264 134.014L176.275 127.014C176.276 126.672 175.999 126.394 175.656 126.393Z" fill="#EE706B"/>
<path d="M181.35 126.394L181.34 126.394C180.997 126.393 180.719 126.67 180.719 127.013L180.707 134.013C180.707 134.355 180.984 134.633 181.326 134.634L181.336 134.634C181.679 134.634 181.957 134.357 181.957 134.015L181.969 127.015C181.969 126.672 181.692 126.394 181.35 126.394Z" fill="#EE706B"/>
<path d="M184.21 126.396L184.2 126.396C183.858 126.395 183.58 126.673 183.579 127.015L183.568 134.015C183.568 134.357 183.845 134.635 184.187 134.636L184.197 134.636C184.54 134.637 184.818 134.359 184.818 134.017L184.829 127.017C184.83 126.675 184.553 126.397 184.21 126.396Z" fill="#EE706B"/>
<path d="M189.92 126.405L189.91 126.405C189.567 126.404 189.289 126.681 189.289 127.024L189.277 134.024C189.277 134.366 189.554 134.644 189.897 134.645L189.907 134.645C190.249 134.645 190.527 134.368 190.527 134.026L190.539 127.026C190.539 126.683 190.262 126.405 189.92 126.405Z" fill="#EE706B"/>
<path d="M187.059 126.412L187.049 126.412C186.707 126.412 186.429 126.689 186.428 127.031L186.417 134.031C186.416 134.374 186.693 134.652 187.036 134.652L187.046 134.652C187.388 134.653 187.666 134.376 187.667 134.033L187.678 127.033C187.679 126.691 187.401 126.413 187.059 126.412Z" fill="#EE706B"/>
<path d="M192.762 126.413L192.752 126.413C192.41 126.412 192.132 126.69 192.131 127.032L192.12 134.032C192.12 134.374 192.397 134.652 192.739 134.653L192.749 134.653C193.092 134.653 193.37 134.376 193.37 134.034L193.381 127.034C193.382 126.692 193.105 126.413 192.762 126.413Z" fill="#EE706B"/>
<path d="M195.623 126.415L195.613 126.415C195.271 126.415 194.993 126.692 194.992 127.034L194.981 134.034C194.98 134.377 195.258 134.655 195.6 134.655L195.61 134.655C195.952 134.656 196.23 134.379 196.231 134.036L196.242 127.036C196.243 126.694 195.966 126.416 195.623 126.415Z" fill="#EE706B"/>
<path d="M173.167 148.777L173.169 149.841L169.957 149.838L169.963 149.281L168.257 149.28L168.251 149.836L161.579 149.817L161.577 149.267L159.885 149.268L159.879 149.824L153.199 149.81L153.205 149.254L151.499 149.253L151.493 149.809L148.289 149.8L148.293 148.744L173.167 148.777Z" fill="#ECECEC"/>
<path d="M173.174 136.95L148.304 136.91L148.303 137.59L173.173 137.63L173.174 136.95Z" fill="#FFFDFE"/>
<path d="M173.176 137.627L148.306 137.587L148.288 148.747L173.158 148.787L173.176 137.627Z" fill="#214347"/>
<path d="M153.612 139.242L153.602 139.242C153.259 139.241 152.981 139.518 152.981 139.861L152.97 146.861C152.969 147.203 153.246 147.481 153.589 147.482L153.599 147.482C153.941 147.482 154.219 147.205 154.22 146.863L154.231 139.863C154.231 139.52 153.954 139.242 153.612 139.242Z" fill="#467A80"/>
<path d="M150.759 139.234L150.749 139.234C150.407 139.233 150.129 139.51 150.128 139.853L150.117 146.853C150.116 147.195 150.393 147.473 150.736 147.474L150.746 147.474C151.088 147.474 151.366 147.197 151.367 146.855L151.378 139.855C151.379 139.512 151.101 139.234 150.759 139.234Z" fill="#467A80"/>
<path d="M156.462 139.244L156.452 139.244C156.11 139.244 155.832 139.521 155.831 139.863L155.82 146.863C155.82 147.206 156.097 147.484 156.439 147.484L156.449 147.484C156.792 147.485 157.07 147.208 157.07 146.865L157.081 139.865C157.082 139.523 156.805 139.245 156.462 139.244Z" fill="#467A80"/>
<path d="M159.321 139.26L159.311 139.26C158.969 139.26 158.691 139.537 158.69 139.879L158.679 146.879C158.678 147.222 158.956 147.5 159.298 147.5L159.308 147.5C159.65 147.501 159.928 147.224 159.929 146.881L159.94 139.881C159.941 139.539 159.664 139.261 159.321 139.26Z" fill="#467A80"/>
<path d="M165.025 139.261L165.015 139.261C164.672 139.26 164.394 139.538 164.394 139.88L164.382 146.88C164.382 147.222 164.659 147.5 165.001 147.501L165.011 147.501C165.354 147.502 165.632 147.224 165.632 146.882L165.644 139.882C165.644 139.54 165.367 139.262 165.025 139.261Z" fill="#467A80"/>
<path d="M162.164 139.259L162.154 139.259C161.812 139.258 161.533 139.535 161.533 139.878L161.522 146.878C161.521 147.22 161.798 147.498 162.141 147.499L162.151 147.499C162.493 147.499 162.771 147.222 162.772 146.88L162.783 139.88C162.783 139.537 162.506 139.259 162.164 139.259Z" fill="#467A80"/>
<path d="M167.875 139.263L167.865 139.263C167.523 139.263 167.245 139.54 167.244 139.882L167.233 146.882C167.233 147.225 167.51 147.503 167.852 147.503L167.862 147.503C168.205 147.504 168.483 147.227 168.483 146.884L168.494 139.884C168.495 139.542 168.218 139.264 167.875 139.263Z" fill="#467A80"/>
<path d="M170.724 139.28L170.714 139.28C170.372 139.279 170.094 139.556 170.093 139.899L170.082 146.899C170.081 147.241 170.358 147.519 170.701 147.52L170.711 147.52C171.053 147.52 171.331 147.243 171.332 146.901L171.343 139.901C171.344 139.558 171.066 139.28 170.724 139.28Z" fill="#467A80"/>
<path d="M173.185 135.887L173.188 136.951L169.984 136.941L169.981 136.391L168.275 136.39L168.278 136.94L161.598 136.927L161.595 136.377L159.903 136.378L159.906 136.928L153.225 136.914L153.223 136.364L151.517 136.363L151.519 136.913L148.315 136.904L148.311 135.854L173.185 135.887Z" fill="#ECECEC"/>
<path d="M173.188 124.059L148.318 124.019L148.317 124.699L173.187 124.739L173.188 124.059Z" fill="#FFFDFE"/>
<path d="M173.196 124.743L148.326 124.703L148.308 135.863L173.178 135.903L173.196 124.743Z" fill="#214347"/>
<path d="M153.632 126.358L153.622 126.358C153.28 126.358 153.002 126.635 153.001 126.977L152.99 133.977C152.989 134.32 153.266 134.598 153.609 134.598L153.619 134.598C153.961 134.599 154.239 134.322 154.24 133.979L154.251 126.979C154.252 126.637 153.974 126.359 153.632 126.358Z" fill="#467A80"/>
<path d="M150.773 126.342L150.763 126.342C150.421 126.342 150.143 126.619 150.142 126.961L150.131 133.961C150.131 134.303 150.408 134.582 150.75 134.582L150.76 134.582C151.103 134.583 151.381 134.305 151.381 133.963L151.392 126.963C151.393 126.621 151.116 126.343 150.773 126.342Z" fill="#467A80"/>
<path d="M156.483 126.361L156.473 126.361C156.13 126.36 155.852 126.637 155.852 126.98L155.841 133.98C155.84 134.322 156.117 134.6 156.46 134.601L156.47 134.601C156.812 134.601 157.09 134.324 157.091 133.982L157.102 126.982C157.102 126.639 156.825 126.361 156.483 126.361Z" fill="#467A80"/>
<path d="M159.335 126.359L159.325 126.359C158.983 126.358 158.705 126.636 158.704 126.978L158.693 133.978C158.693 134.32 158.97 134.598 159.312 134.599L159.322 134.599C159.665 134.6 159.943 134.322 159.943 133.98L159.954 126.98C159.955 126.638 159.678 126.36 159.335 126.359Z" fill="#467A80"/>
<path d="M165.043 126.371L165.033 126.371C164.69 126.371 164.412 126.648 164.412 126.99L164.401 133.99C164.4 134.333 164.677 134.611 165.02 134.611L165.03 134.611C165.372 134.612 165.65 134.335 165.651 133.992L165.662 126.992C165.662 126.65 165.385 126.372 165.043 126.371Z" fill="#467A80"/>
<path d="M162.186 126.361L162.176 126.361C161.834 126.361 161.556 126.638 161.555 126.98L161.544 133.98C161.543 134.323 161.821 134.601 162.163 134.601L162.173 134.601C162.515 134.602 162.793 134.325 162.794 133.982L162.805 126.982C162.806 126.64 162.529 126.362 162.186 126.361Z" fill="#467A80"/>
<path d="M167.896 126.38L167.886 126.38C167.543 126.379 167.265 126.656 167.265 126.999L167.253 133.999C167.253 134.341 167.53 134.619 167.872 134.62L167.882 134.62C168.225 134.62 168.503 134.343 168.503 134.001L168.515 127.001C168.515 126.658 168.238 126.38 167.896 126.38Z" fill="#467A80"/>
<path d="M170.746 126.372L170.736 126.372C170.394 126.372 170.116 126.649 170.115 126.991L170.104 133.991C170.104 134.334 170.381 134.612 170.723 134.612L170.733 134.612C171.076 134.613 171.354 134.336 171.354 133.993L171.365 126.993C171.366 126.651 171.089 126.373 170.746 126.372Z" fill="#467A80"/>
<path d="M237.832 119.209L236.812 119.207L236.782 137.557L237.802 137.559L237.832 119.209Z" fill="#ECECEC"/>
<path d="M238.156 113.619L235.416 113.615L235.407 119.205L238.147 119.209L238.156 113.619Z" fill="#ECECEC"/>
<path d="M239.266 113.613L238.156 113.611L238.147 119.201L239.257 119.203L239.266 113.613Z" fill="#A5A4A4"/>
<path d="M63.6763 94.3691C64.5363 94.3704 65.2352 95.0716 65.2338 95.9316L65.2313 97.4916L62.1113 97.4866L62.1138 95.9266C62.1152 95.0666 62.8163 94.3677 63.6763 94.3691Z" fill="#E30613"/>
<path d="M66.6167 96.7021L60.7167 96.6927L60.7132 98.8827L66.6132 98.8921L66.6167 96.7021Z" fill="#A5A4A4"/>
<path d="M40.7792 114.496L39.4592 114.494L39.4169 140.964L40.7369 140.966L40.7792 114.496Z" fill="#A5A4A4"/>
<path d="M39.4605 114.494L29.6605 114.479L29.6182 140.948L39.4182 140.964L39.4605 114.494Z" fill="#ECECEC"/>
<path d="M67.3508 111.625L40.7808 111.583L40.7339 140.963L67.3039 141.005L67.3508 111.625Z" fill="#ECECEC"/>
<path d="M67.3512 110.343L40.7812 110.301L40.7791 111.581L67.3491 111.623L67.3512 110.343Z" fill="#A5A4A4"/>
<path d="M69.238 98.2923L39.048 98.244L39.0288 110.294L69.2187 110.342L69.238 98.2923Z" fill="#ECECEC"/>
<path d="M67.341 113.884L52.701 113.861L52.6915 119.851L67.3315 119.874L67.341 113.884Z" fill="#FFFDFE"/>
<path d="M48.198 122.778L44.158 122.772L44.1553 124.452L48.1953 124.458L48.198 122.778Z" fill="#FFFDFE"/>
<path d="M53.4896 122.799L49.4496 122.793L49.4469 124.473L53.4869 124.479L53.4896 122.799Z" fill="#FFFDFE"/>
<path d="M58.7651 122.802L54.7251 122.795L54.7224 124.475L58.7624 124.482L58.7651 122.802Z" fill="#FFFDFE"/>
<path d="M64.0546 122.807L60.0146 122.8L60.012 124.48L64.052 124.487L64.0546 122.807Z" fill="#FFFDFE"/>
<path d="M48.1958 125.699L44.1558 125.693L44.1531 127.373L48.1931 127.379L48.1958 125.699Z" fill="#FFFDFE"/>
<path d="M53.4773 125.71L49.4373 125.704L49.4346 127.384L53.4746 127.39L53.4773 125.71Z" fill="#FFFDFE"/>
<path d="M58.7628 125.713L54.7228 125.706L54.7202 127.386L58.7602 127.393L58.7628 125.713Z" fill="#FFFDFE"/>
<path d="M64.0444 125.734L60.0044 125.727L60.0017 127.407L64.0417 127.414L64.0444 125.734Z" fill="#FFFDFE"/>
<path d="M48.1995 128.628L44.1595 128.622L44.1569 130.302L48.1969 130.308L48.1995 128.628Z" fill="#FFFDFE"/>
<path d="M53.4751 128.631L49.4351 128.625L49.4324 130.305L53.4724 130.311L53.4751 128.631Z" fill="#FFFDFE"/>
<path d="M58.7566 128.642L54.7166 128.635L54.7139 130.316L58.7539 130.322L58.7566 128.642Z" fill="#FFFDFE"/>
<path d="M64.0421 128.645L60.0021 128.638L59.9995 130.318L64.0395 130.325L64.0421 128.645Z" fill="#FFFDFE"/>
<path d="M48.1893 131.545L44.1494 131.539L44.1467 133.219L48.1867 133.225L48.1893 131.545Z" fill="#FFFDFE"/>
<path d="M53.4709 131.556L49.4309 131.55L49.4282 133.23L53.4682 133.236L53.4709 131.556Z" fill="#FFFDFE"/>
<path d="M58.7543 131.563L54.7144 131.557L54.7117 133.237L58.7517 133.243L58.7543 131.563Z" fill="#FFFDFE"/>
<path d="M64.0359 131.574L59.9959 131.567L59.9932 133.247L64.0332 133.254L64.0359 131.574Z" fill="#FFFDFE"/>
<path d="M48.1831 134.474L44.1431 134.468L44.1404 136.148L48.1804 136.154L48.1831 134.474Z" fill="#FFFDFE"/>
<path d="M53.4686 134.477L49.4286 134.471L49.4259 136.151L53.4659 136.157L53.4686 134.477Z" fill="#FFFDFE"/>
<path d="M58.7501 134.488L54.7101 134.482L54.7075 136.161L58.7474 136.168L58.7501 134.488Z" fill="#FFFDFE"/>
<path d="M64.0256 134.491L59.9857 134.484L59.983 136.164L64.023 136.171L64.0256 134.491Z" fill="#FFFDFE"/>
<path d="M52.7533 86.4335L51.7333 86.4318L51.704 104.782L52.724 104.783L52.7533 86.4335Z" fill="#ECECEC"/>
<path d="M53.0694 80.8398L50.3294 80.8354L50.3205 86.4254L53.0605 86.4298L53.0694 80.8398Z" fill="#ECECEC"/>
<path d="M54.17 80.8433L53.06 80.8416L53.0511 86.4315L54.1611 86.4333L54.17 80.8433Z" fill="#A5A4A4"/>
<path d="M260.45 140.366L256.612 146.366C256.612 146.366 252.67 147.818 247.883 150.059L215.336 150.01L192.88 156.574L29.4639 156.324C23.3298 151.296 23.5975 143.195 23.9122 140.362L68.9768 140.434C69.2041 142.243 70.0305 143.85 71.2454 145.075C72.6852 146.531 74.6888 147.423 76.8948 147.423L193.932 147.604C198.751 147.609 202.872 144.554 204.429 140.28L260.45 140.366Z" fill="#2F5C63"/>
<path d="M230.949 163.692C230.952 164.342 231.026 164.888 231.176 165.351L49.403 165.066C45.4041 162.862 40.9281 160.856 36.2973 159.657C33.4163 158.914 31.1956 157.735 29.4719 156.318L192.888 156.568L215.344 150.004L247.891 150.053C240.462 153.526 230.958 158.896 230.957 163.686L230.949 163.692Z" fill="#214347"/>
<path d="M242.241 173.219C240.38 177.109 233.139 176.768 229.385 176.761C225.067 176.754 65.4847 176.5 65.4847 176.5C65.4847 176.5 63.9108 175.033 61.2324 172.933L242.249 173.213L242.241 173.219Z" fill="#D25954"/>
<path d="M242.681 171.131C242.684 171.931 242.523 172.63 242.241 173.219L61.2244 172.939C58.3655 170.701 54.2296 167.735 49.401 165.08L231.174 165.365C232.792 170.573 242.692 165.543 242.687 171.139L242.681 171.131Z" fill="#EC6559"/>
<path d="M260.459 139.168L260.458 140.36L204.437 140.274C204.584 139.887 204.704 139.483 204.803 139.082L260.465 139.176L260.459 139.168Z" fill="#ECECEC"/>
<path d="M260.461 136.534L260.459 139.168L204.797 139.074C205.007 138.226 205.116 137.341 205.12 136.435L260.463 136.52L260.461 136.534Z" fill="#A5A4A4"/>
<path d="M68.9788 140.42L23.9141 140.348C23.9835 139.694 24.0561 139.325 24.0561 139.325L68.9067 139.397C68.9081 139.746 68.9254 140.084 68.9728 140.412L68.9788 140.42Z" fill="#A5A4A4"/>
</svg>
