<svg width="174" height="80" viewBox="0 0 174 80" fill="none" xmlns="http://www.w3.org/2000/svg">
<path d="M173.168 0.264404H47.7236V57.9254H173.168V0.264404Z" fill="#074449"/>
<path d="M47.7236 21.4336V66.7659L43.9076 63.5884C39.4981 59.9025 33.1524 59.6483 28.4603 62.967L25.5772 65.0147C23.966 66.1445 22.0439 66.7659 20.0653 66.7659H0.929199V48.3364C0.929199 44.1139 2.61101 40.0749 5.59307 37.081L16.6027 26.0939C19.5847 23.1141 23.6268 21.4336 27.8526 21.4336H47.7377H47.7236Z" fill="white"/>
<path d="M47.7236 20.445V65.7774L43.9076 62.5999C39.4981 58.914 33.1524 58.6598 28.4603 61.9785L25.5772 64.0262C23.966 65.1559 22.0439 65.7774 20.0653 65.7774H0.929199V47.3478C0.929199 43.1253 2.61101 39.0864 5.59307 36.0925L16.6027 25.1053C19.5847 22.1255 23.6268 20.445 27.8526 20.445H47.7377H47.7236Z" fill="#ED6956"/>
<path d="M32.3186 24.9924V39.6654C32.3186 42.6028 29.9302 44.9895 26.9905 44.9895H5.72034C6.01713 42.1791 7.28908 39.5242 9.32424 37.4906L18.1432 28.7066C20.5176 26.334 23.754 24.9924 27.1176 24.9924H32.3186Z" fill="#4F6268"/>
<path d="M170.992 60.0297V66.7659H164.618C164.081 66.7659 161.961 65.4243 160.491 64.4358C159.148 63.5602 157.721 62.7976 156.166 62.4305C153.241 61.7385 150.146 61.9644 147.319 63.1506C147.319 63.1506 141.058 66.7659 140.295 66.7659H47.7095V60.0297H170.978H170.992Z" fill="white"/>
<path d="M170.992 57.9113V65.7774H164.618C164.081 65.7774 161.961 64.4358 160.491 63.4472C159.148 62.5716 157.721 61.809 156.166 61.4419C153.241 60.7499 150.146 60.9759 147.319 62.1621C147.319 62.1621 141.058 65.7774 140.295 65.7774H47.7095V57.9113H170.978H170.992Z" fill="#002C32"/>
<path d="M36.0639 61.9927C31.3293 61.9927 27.4993 65.8198 27.4993 70.5507C27.4993 75.2817 31.3293 79.137 36.0639 79.137C40.7984 79.137 44.6568 75.2817 44.6568 70.5507C44.6568 65.8198 40.8267 61.9927 36.0639 61.9927ZM36.0639 76.1289C32.997 76.1289 30.4955 73.6435 30.4955 70.5507C30.4955 67.458 32.9829 64.9866 36.0639 64.9866C39.1449 64.9866 41.6464 67.4721 41.6464 70.5507C41.6464 73.6294 39.159 76.1289 36.0639 76.1289Z" fill="#12181D"/>
<path d="M36.0638 65.0006C32.9969 65.0006 30.4954 67.4861 30.4954 70.5648C30.4954 73.6434 32.9828 76.1431 36.0638 76.1431C39.1448 76.1431 41.6463 73.6575 41.6463 70.5648C41.6463 67.472 39.1589 65.0006 36.0638 65.0006ZM36.0638 73.4739C34.4667 73.4739 33.1807 72.1888 33.1807 70.5648C33.1807 68.9407 34.4667 67.6839 36.0638 67.6839C37.6608 67.6839 38.9752 68.969 38.9752 70.5648C38.9752 72.1606 37.6891 73.4739 36.0638 73.4739Z" fill="#FBFDFE"/>
<path d="M38.9752 70.5507C38.9752 72.1607 37.6891 73.4599 36.0638 73.4599C34.4385 73.4599 33.1807 72.1748 33.1807 70.5507C33.1807 68.9267 34.4667 67.6697 36.0638 67.6697C37.6608 67.6697 38.9752 68.9549 38.9752 70.5507Z" fill="#12181D"/>
<path d="M152.788 61.9927C148.054 61.9927 144.224 65.8198 144.224 70.5507C144.224 75.2817 148.054 79.137 152.788 79.137C157.523 79.137 161.381 75.2817 161.381 70.5507C161.381 65.8198 157.551 61.9927 152.788 61.9927ZM152.788 76.1289C149.721 76.1289 147.22 73.6435 147.22 70.5507C147.22 67.458 149.707 64.9866 152.788 64.9866C155.869 64.9866 158.371 67.4721 158.371 70.5507C158.371 73.6294 155.883 76.1289 152.788 76.1289Z" fill="#12181D"/>
<path d="M152.788 65.0006C149.721 65.0006 147.22 67.4861 147.22 70.5648C147.22 73.6434 149.707 76.1431 152.788 76.1431C155.869 76.1431 158.371 73.6575 158.371 70.5648C158.371 67.472 155.883 65.0006 152.788 65.0006ZM152.788 73.4739C151.191 73.4739 149.905 72.1888 149.905 70.5648C149.905 68.9407 151.191 67.6839 152.788 67.6839C154.385 67.6839 155.7 68.969 155.7 70.5648C155.7 72.1606 154.413 73.4739 152.788 73.4739Z" fill="white"/>
<path d="M155.7 70.5507C155.7 72.1607 154.414 73.4599 152.788 73.4599C151.163 73.4599 149.905 72.1748 149.905 70.5507C149.905 68.9267 151.191 67.6697 152.788 67.6697C154.385 67.6697 155.7 68.9549 155.7 70.5507Z" fill="#12181D"/>
</svg>
