<svg width="1142" height="163" viewBox="0 0 1142 163" fill="none" xmlns="http://www.w3.org/2000/svg">
<path opacity="0.2" d="M1365 152.454C1365 232.423 1300.21 297.229 1220.36 297.229C1177.48 297.229 1139.01 278.557 1112.51 249.01C1097.43 258.696 1079.47 264.27 1060.2 264.27C1020.1 264.27 985.569 240.122 970.488 205.585C959.148 214.395 944.943 219.618 929.511 219.618H929.258C925.068 295.748 862.034 356.187 784.777 356.187C732.81 356.187 687.118 328.706 661.671 287.464C620.518 280.74 585.211 256.591 563.505 222.834C543.455 246.982 513.195 262.341 479.272 262.341C464.268 262.341 449.986 259.378 436.892 253.882C427.305 320.072 370.273 371 301.393 371C243.504 371 193.973 335.06 174.02 284.229C162.251 287.639 149.781 289.374 136.882 289.374C61.2997 289.374 0 228.155 0 152.454C0 76.7532 61.2997 15.6118 136.882 15.6118C194.772 15.6118 244.303 51.5521 264.255 102.305C276.024 98.8943 288.494 97.1597 301.393 97.1597C328.419 97.1597 353.613 105.014 374.891 118.521C389.095 74.4729 430.423 42.645 479.252 42.645C510.039 42.645 537.921 55.3723 557.894 75.8762C582.386 30.6974 630.261 0 685.267 0C737.233 0 782.925 27.4815 808.373 68.7232C836.626 73.3425 862.073 86.1671 882.299 104.664C894.516 92.6185 911.078 85.3095 929.472 85.3095C950.048 85.3095 968.364 94.548 980.659 109.127C998.527 84.452 1027.48 68.3918 1060.18 68.3918C1073.43 68.3918 1086.07 71.0036 1097.59 75.7982C1123.13 34.9853 1168.55 7.77666 1220.34 7.77666C1300.21 7.77666 1364.98 72.5823 1364.98 152.454H1365Z" fill="#8C8176"/>
</svg>
