<svg width="114" height="36" viewBox="0 0 114 36" fill="none" xmlns="http://www.w3.org/2000/svg">
<path d="M9.936 35.556C8.88 35.556 8.176 35.188 7.824 34.452C7.472 33.684 7.296 32.836 7.296 31.908C7.296 31.268 7.344 30.644 7.44 30.036C7.536 29.396 7.632 28.868 7.728 28.452C7.984 27.236 8.4 25.796 8.976 24.132C9.552 22.436 10.208 20.66 10.944 18.804C11.712 16.916 12.512 15.06 13.344 13.236C14.176 11.38 14.976 9.652 15.744 8.052C16.544 6.42 17.248 5.028 17.856 3.876C17.12 3.908 16.272 3.908 15.312 3.876C14.352 3.812 13.36 3.78 12.336 3.78C10.576 3.78 8.832 3.924 7.104 4.212C5.408 4.468 4.016 5.092 2.928 6.084C2.416 6.564 2.048 7.076 1.824 7.62C1.6 8.164 1.488 8.708 1.488 9.252C1.488 9.86 1.584 10.452 1.776 11.028C1.808 11.092 1.824 11.172 1.824 11.268C1.824 11.588 1.664 11.748 1.344 11.748C1.152 11.748 1.008 11.668 0.912 11.508C0.592 10.996 0.352 10.484 0.192 9.972C0.064 9.428 0 8.9 0 8.388C0 7.492 0.16 6.644 0.48 5.844C0.8 5.044 1.184 4.388 1.632 3.876C2.752 2.564 4.272 1.7 6.192 1.284C8.112 0.835999 10.112 0.611999 12.192 0.611999C13.792 0.611999 15.344 0.675999 16.848 0.803999C18.384 0.931999 19.744 1.028 20.928 1.092C22.048 1.156 23.44 1.268 25.104 1.428C26.768 1.556 28.384 1.62 29.952 1.62C31.36 1.62 32.624 1.524 33.744 1.332C34.864 1.14 35.68 0.787998 36.192 0.275997C36.288 0.467999 36.336 0.691998 36.336 0.947997C36.336 1.62 35.952 2.276 35.184 2.916C34.416 3.556 33.376 3.988 32.064 4.212C31.648 4.276 31.168 4.324 30.624 4.356C30.112 4.388 29.568 4.404 28.992 4.404C28.032 4.404 27.072 4.388 26.112 4.356C25.152 4.292 24.304 4.228 23.568 4.164C22.832 4.1 22.336 4.084 22.08 4.116C21.888 4.404 21.584 4.932 21.168 5.7C20.784 6.468 20.368 7.3 19.92 8.196C19.472 9.092 19.072 9.908 18.72 10.644C18.112 11.924 17.472 13.364 16.8 14.964C16.128 16.564 15.488 18.18 14.88 19.812C14.272 21.444 13.744 22.996 13.296 24.468C12.88 25.94 12.608 27.204 12.48 28.26C12.448 28.356 12.432 28.468 12.432 28.596C12.432 28.692 12.432 28.788 12.432 28.884C12.432 29.492 12.544 30.02 12.768 30.468C13.024 30.884 13.408 31.092 13.92 31.092C14.368 31.092 14.912 30.852 15.552 30.372C16.192 29.892 16.928 29.092 17.76 27.972C17.92 27.78 18.064 27.684 18.192 27.684C18.384 27.684 18.48 27.844 18.48 28.164C18.48 28.388 18.4 28.692 18.24 29.076C18.112 29.46 17.872 29.908 17.52 30.42C17.232 30.836 16.768 31.396 16.128 32.1C15.488 32.772 14.864 33.348 14.256 33.828C13.712 34.276 13.04 34.676 12.24 35.028C11.44 35.38 10.672 35.556 9.936 35.556ZM31.9879 33.828C30.5159 34.596 28.9639 34.98 27.3319 34.98C25.9559 34.98 24.6759 34.644 23.4919 33.972C22.3079 33.3 21.5079 32.228 21.0919 30.756C20.8999 30.084 20.8039 29.38 20.8039 28.644C20.8039 27.428 21.0119 26.18 21.4279 24.9C21.8759 23.588 22.4519 22.388 23.1559 21.3C24.2439 19.604 25.6199 18.196 27.2839 17.076C28.9479 15.956 30.7879 15.396 32.8039 15.396C34.3079 15.396 35.4759 15.78 36.3079 16.548C37.1399 17.316 37.5559 18.212 37.5559 19.236C37.5559 20.452 37.1399 21.524 36.3079 22.452C35.5079 23.348 34.4519 24.036 33.1399 24.516C32.4999 24.74 31.8119 24.916 31.0759 25.044C30.3719 25.14 29.6999 25.188 29.0599 25.188C27.7479 25.188 26.7399 25.012 26.0359 24.66C25.4279 26.228 25.1239 27.668 25.1239 28.98C25.1239 30.164 25.3959 31.14 25.9399 31.908C26.4839 32.644 27.3479 33.012 28.5319 33.012C29.5239 33.012 30.4999 32.74 31.4599 32.196C32.4519 31.652 33.3639 30.98 34.1959 30.18C35.0599 29.38 35.7799 28.612 36.3559 27.876C36.8039 27.332 37.1879 26.82 37.5079 26.34C37.8279 25.86 38.1639 25.316 38.5159 24.708C38.8679 24.068 39.2839 23.284 39.7639 22.356C39.8919 22.132 40.0039 22.02 40.0999 22.02C40.2919 22.02 40.3879 22.276 40.3879 22.788C40.3879 23.076 40.3399 23.396 40.2439 23.748C40.1799 24.068 40.0519 24.404 39.8599 24.756C39.4119 25.556 38.8679 26.436 38.2279 27.396C37.6199 28.324 36.9959 29.22 36.3559 30.084C35.7799 30.852 35.1239 31.556 34.3879 32.196C33.6519 32.836 32.8519 33.38 31.9879 33.828ZM27.6199 23.604C27.7799 23.7 27.9559 23.764 28.1479 23.796C28.3399 23.828 28.5319 23.844 28.7239 23.844C29.3639 23.844 30.0039 23.7 30.6439 23.412C31.2839 23.092 31.8279 22.772 32.2759 22.452C33.0119 21.94 33.6359 21.332 34.1479 20.628C34.6599 19.924 34.9479 19.124 35.0119 18.228C35.0439 17.844 34.9479 17.524 34.7239 17.268C34.5319 16.98 34.1799 16.836 33.6679 16.836C33.4119 16.836 33.0919 16.884 32.7079 16.98C32.1959 17.108 31.6839 17.348 31.1719 17.7C30.6599 18.052 30.1639 18.468 29.6839 18.948C29.5239 19.108 29.2359 19.428 28.8199 19.908C28.4359 20.356 28.0679 20.868 27.7159 21.444C27.3639 21.988 27.1879 22.468 27.1879 22.884C27.1879 23.236 27.3319 23.476 27.6199 23.604ZM52.791 34.788C51.831 34.788 51.159 34.436 50.775 33.732C50.423 32.996 50.247 32.084 50.247 30.996C50.247 30.484 50.279 29.972 50.343 29.46C50.407 28.916 50.487 28.372 50.583 27.828C50.647 27.348 50.775 26.772 50.967 26.1C51.159 25.396 51.383 24.644 51.639 23.844C51.031 25.06 50.327 26.308 49.527 27.588C48.727 28.836 47.847 30.004 46.887 31.092C45.959 32.148 44.983 33.012 43.959 33.684C42.967 34.324 41.959 34.644 40.935 34.644C40.039 34.644 39.271 34.324 38.631 33.684C38.023 33.012 37.719 31.86 37.719 30.228C37.719 28.564 38.007 26.852 38.583 25.092C39.159 23.332 39.959 21.7 40.983 20.196C42.039 18.66 43.271 17.428 44.679 16.5C46.119 15.572 47.687 15.108 49.383 15.108C50.087 15.108 50.871 15.252 51.735 15.54C52.599 15.828 53.255 16.388 53.703 17.22C53.863 16.964 53.991 16.708 54.087 16.452C54.183 16.196 54.279 15.972 54.375 15.78C55.143 14.084 55.799 12.484 56.343 10.98C56.887 9.476 57.367 8.308 57.783 7.476C58.327 6.388 58.759 5.572 59.079 5.028C59.399 4.452 59.687 4.052 59.943 3.828C60.231 3.604 60.551 3.444 60.903 3.348C61.191 3.284 61.511 3.236 61.863 3.204C62.215 3.172 62.583 3.156 62.967 3.156C63.351 3.156 63.783 3.156 64.263 3.156C64.775 3.156 65.095 3.14 65.223 3.108C64.679 3.492 64.039 4.276 63.303 5.46C62.567 6.644 61.799 8.068 60.999 9.732C60.199 11.396 59.415 13.172 58.647 15.06C57.911 16.916 57.223 18.772 56.583 20.628C55.975 22.452 55.479 24.116 55.095 25.62C54.743 27.124 54.567 28.34 54.567 29.268C54.567 30.292 54.855 30.804 55.431 30.804C55.815 30.804 56.263 30.612 56.775 30.228C57.319 29.844 57.815 29.412 58.263 28.932C58.711 28.452 59.031 28.1 59.223 27.876C59.863 27.044 60.471 26.164 61.047 25.236C61.623 24.276 62.119 23.38 62.535 22.548C62.695 22.292 62.807 22.164 62.871 22.164C63.095 22.164 63.207 22.452 63.207 23.028C63.207 23.636 63.047 24.212 62.727 24.756C62.279 25.524 61.735 26.388 61.095 27.348C60.487 28.276 59.863 29.188 59.223 30.084C58.775 30.66 58.183 31.316 57.447 32.052C56.743 32.788 55.975 33.428 55.143 33.972C54.343 34.516 53.559 34.788 52.791 34.788ZM43.095 30.612C43.191 30.644 43.335 30.66 43.527 30.66C44.423 30.66 45.463 30.068 46.647 28.884C47.863 27.668 49.079 26.084 50.295 24.132C50.551 23.748 50.855 23.204 51.207 22.5C51.559 21.796 51.927 21.028 52.311 20.196C52.727 19.332 53.111 18.532 53.463 17.796C53.239 17.476 52.951 17.252 52.599 17.124C52.279 16.996 51.927 16.932 51.543 16.932C50.839 16.932 50.087 17.124 49.287 17.508C48.487 17.86 47.815 18.308 47.271 18.852C46.439 19.684 45.639 20.756 44.871 22.068C44.135 23.38 43.527 24.676 43.047 25.956C42.599 27.236 42.375 28.308 42.375 29.172C42.375 29.972 42.615 30.452 43.095 30.612ZM63.0431 34.836C62.2111 34.836 61.5391 34.388 61.0271 33.492C60.5151 32.596 60.3231 31.412 60.4511 29.94C60.5151 29.012 60.7231 27.844 61.0751 26.436C61.4591 24.996 61.9391 23.556 62.5151 22.116C63.0911 20.644 63.6991 19.396 64.3391 18.372C65.1711 17.06 66.0991 16.212 67.1231 15.828C68.1791 15.444 69.4911 15.252 71.0591 15.252C71.1871 15.252 71.2511 15.316 71.2511 15.444C71.2511 15.572 71.1551 15.732 70.9631 15.924C70.5151 16.308 69.9871 17.012 69.3791 18.036C68.7711 19.06 68.1791 20.18 67.6031 21.396C67.0591 22.612 66.5791 23.732 66.1631 24.756C65.8431 25.588 65.5391 26.452 65.2511 27.348C64.9951 28.244 64.8671 29.044 64.8671 29.748C64.8671 30.324 64.9791 30.788 65.2031 31.14C65.4591 31.492 65.8911 31.668 66.4991 31.668C67.1391 31.636 67.8431 31.172 68.6111 30.276C69.3791 29.38 70.1151 28.276 70.8191 26.964C71.5231 25.652 72.0991 24.372 72.5471 23.124C72.4831 22.772 72.4191 22.404 72.3551 22.02C72.3231 21.636 72.3071 21.236 72.3071 20.82C72.3071 20.244 72.3551 19.652 72.4511 19.044C72.5791 18.404 72.7551 17.78 72.9791 17.172C73.3951 16.116 73.9711 15.492 74.7071 15.3C74.8351 15.268 74.9471 15.252 75.0431 15.252C75.1711 15.22 75.2991 15.204 75.4271 15.204C76.0351 15.204 76.4351 15.428 76.6271 15.876C76.8511 16.292 76.9631 16.788 76.9631 17.364C76.9631 17.94 76.8991 18.516 76.7711 19.092C76.6431 19.636 76.5311 20.052 76.4351 20.34C76.2111 20.948 75.9551 21.54 75.6671 22.116C75.3791 22.66 75.0911 23.204 74.8031 23.748C74.8671 24.74 75.1231 25.508 75.5711 26.052C76.0511 26.596 76.6111 26.868 77.2511 26.868C78.0511 26.868 78.8511 26.516 79.6511 25.812C80.0991 25.428 80.4991 24.948 80.8511 24.372C81.2351 23.764 81.5711 23.204 81.8591 22.692C82.0191 22.404 82.1311 22.34 82.1951 22.5C82.2591 22.66 82.2911 22.916 82.2911 23.268C82.2911 23.556 82.2591 23.876 82.1951 24.228C82.1631 24.548 82.0831 24.804 81.9551 24.996C81.5071 25.796 80.9951 26.468 80.4191 27.012C79.8431 27.524 79.2351 27.908 78.5951 28.164C78.0831 28.356 77.5551 28.452 77.0111 28.452C76.2751 28.452 75.5871 28.244 74.9471 27.828C74.3391 27.38 73.8591 26.708 73.5071 25.812C72.8351 26.804 72.2111 27.716 71.6351 28.548C71.0911 29.348 70.6751 29.924 70.3871 30.276C69.4271 31.492 68.3231 32.564 67.0751 33.492C65.8591 34.388 64.5151 34.836 63.0431 34.836ZM89.9565 11.46C89.1245 11.172 88.7085 10.628 88.7085 9.828C88.7085 9.092 88.9965 8.34 89.5725 7.572C90.1805 6.772 90.8365 6.26 91.5405 6.036C91.7005 5.972 91.8285 5.94 91.9245 5.94C92.0525 5.94 92.1805 5.94 92.3085 5.94C92.8525 5.94 93.3005 6.1 93.6525 6.42C94.0045 6.74 94.1805 7.108 94.1805 7.524C94.1805 8.1 93.8765 8.58 93.2685 8.964C92.7885 8.9 92.3245 9.012 91.8765 9.3C91.4285 9.588 91.0285 9.94 90.6765 10.356C90.3565 10.772 90.1165 11.14 89.9565 11.46ZM81.7005 34.788C81.2845 34.788 80.8845 34.692 80.5005 34.5C80.1165 34.34 79.7965 34.004 79.5405 33.492C79.1885 32.724 79.0125 31.812 79.0125 30.756C79.0125 29.604 79.1885 28.324 79.5405 26.916C79.8925 25.476 80.3565 24.004 80.9325 22.5C81.1565 21.956 81.4445 21.284 81.7965 20.484C82.1485 19.684 82.5645 18.884 83.0445 18.084C83.5245 17.284 84.0685 16.628 84.6765 16.116C85.3165 15.572 86.0045 15.3 86.7405 15.3C87.0925 15.3 87.5885 15.316 88.2285 15.348C88.8685 15.38 89.3325 15.38 89.6205 15.348C89.4285 15.476 89.2045 15.732 88.9485 16.116C88.6925 16.5 88.4525 16.9 88.2285 17.316C88.0045 17.7 87.8285 18.004 87.7005 18.228C86.8685 19.892 86.0845 21.54 85.3485 23.172C84.6125 24.804 84.0525 26.372 83.6685 27.876C83.6045 28.132 83.5565 28.388 83.5245 28.644C83.4925 28.9 83.4765 29.14 83.4765 29.364C83.4765 30.292 83.7805 30.756 84.3885 30.756C84.6445 30.756 84.9165 30.692 85.2045 30.564C85.5245 30.404 85.8925 30.164 86.3085 29.844C87.0445 29.268 87.6845 28.612 88.2285 27.876C88.8685 27.044 89.4765 26.164 90.0525 25.236C90.6285 24.276 91.1245 23.396 91.5405 22.596C91.7005 22.34 91.8125 22.212 91.8765 22.212C92.0685 22.212 92.1645 22.484 92.1645 23.028C92.1645 23.284 92.1165 23.588 92.0205 23.94C91.9565 24.26 91.8445 24.564 91.6845 24.852C91.2365 25.62 90.7085 26.468 90.1005 27.396C89.4925 28.324 88.8685 29.22 88.2285 30.084C87.7805 30.692 87.1885 31.364 86.4525 32.1C85.7165 32.836 84.9325 33.476 84.1005 34.02C83.2685 34.532 82.4685 34.788 81.7005 34.788ZM102.619 34.788C101.531 34.788 100.779 34.468 100.363 33.828C99.9788 33.156 99.7868 32.388 99.7868 31.524C99.7868 30.468 99.9948 29.204 100.411 27.732C100.827 26.228 101.307 24.724 101.851 23.22C102.427 21.684 102.939 20.324 103.387 19.14C103.515 18.852 103.579 18.548 103.579 18.228C103.579 17.876 103.467 17.62 103.243 17.46C103.019 17.3 102.731 17.22 102.379 17.22C101.867 17.22 101.291 17.38 100.651 17.7C99.6588 18.212 98.7148 19.028 97.8188 20.148C96.9228 21.268 96.2028 22.436 95.6588 23.652C95.0508 25.028 94.5068 26.404 94.0268 27.78C93.5468 29.156 93.1628 30.276 92.8748 31.14C92.6828 31.684 92.5068 32.244 92.3468 32.82C92.1868 33.396 92.0268 33.956 91.8668 34.5H87.2107C87.2107 34.5 87.3227 34.1 87.5467 33.3C87.7387 32.5 87.9947 31.7 88.3148 30.9C88.8588 29.492 89.4028 28.084 89.9468 26.676C90.5228 25.268 91.0188 24.02 91.4348 22.932C91.5628 22.612 91.7548 22.02 92.0108 21.156C92.2988 20.26 92.5548 19.332 92.7788 18.372C93.0348 17.412 93.1628 16.628 93.1628 16.02C93.1628 15.668 93.1148 15.428 93.0188 15.3C93.3068 15.3 93.6268 15.3 93.9788 15.3C94.3628 15.268 94.7148 15.252 95.0348 15.252C95.4828 15.252 95.8988 15.268 96.2828 15.3C96.6988 15.332 96.9708 15.412 97.0988 15.54C97.4828 15.828 97.6748 16.244 97.6748 16.788C97.6748 17.172 97.5948 17.556 97.4348 17.94C97.3068 18.324 97.2108 18.644 97.1468 18.9C97.5948 18.484 98.0588 18.084 98.5388 17.7C99.0188 17.316 99.7548 16.82 100.747 16.212C101.323 15.86 102.043 15.572 102.907 15.348C103.771 15.124 104.555 15.012 105.259 15.012C107.083 15.012 107.995 15.86 107.995 17.556C107.995 17.844 107.963 18.164 107.899 18.516C107.867 18.868 107.771 19.252 107.611 19.668C107.451 20.18 107.195 20.884 106.843 21.78C106.491 22.676 106.123 23.636 105.739 24.66C105.387 25.652 105.083 26.596 104.827 27.492C104.571 28.388 104.443 29.108 104.443 29.652C104.443 30.42 104.731 30.804 105.307 30.804C105.819 30.804 106.459 30.484 107.227 29.844C107.963 29.236 108.603 28.58 109.147 27.876C109.819 27.044 110.427 26.164 110.971 25.236C111.547 24.276 112.043 23.396 112.459 22.596C112.619 22.34 112.731 22.212 112.795 22.212C112.987 22.212 113.083 22.484 113.083 23.028C113.083 23.284 113.035 23.588 112.939 23.94C112.875 24.26 112.763 24.564 112.603 24.852C112.155 25.62 111.627 26.468 111.019 27.396C110.411 28.324 109.787 29.22 109.147 30.084C108.699 30.692 108.107 31.364 107.371 32.1C106.635 32.836 105.851 33.476 105.019 34.02C104.187 34.532 103.387 34.788 102.619 34.788Z" fill="#D25954"/>
</svg>
