<svg width="858" height="438" viewBox="0 0 858 438" fill="none" xmlns="http://www.w3.org/2000/svg">
<path d="M772.514 326.163C770.643 327.601 769.725 330.849 770.692 333.006C771.2 334.146 772.118 334.717 773.209 335.188C773.023 332.163 772.787 329.163 772.514 326.163ZM760.627 418.675C753.35 414.398 759.152 401.023 748.85 392.383C744.103 388.416 740.371 389.147 737.248 384.189C733.901 378.921 736.851 376.02 734.508 369.004C731.446 359.794 725.112 360.971 720.848 351.414C716.931 342.638 718.877 333.961 716.249 333.502C714.414 333.192 713.311 337.394 710.448 337.431C706.382 337.481 703.493 329.101 702.762 329.411C701.51 329.919 705.502 339.985 705.502 339.985C713.72 360.773 721.393 365.707 729.066 383.854C733.207 393.647 731.781 394.155 736.231 403.291C741.562 414.287 745.627 422.666 754.317 427.03C759.065 429.397 764.085 430.029 769.081 429.856C769.75 425.505 770.382 421.154 770.903 416.753C765.176 419.418 763.081 420.113 760.614 418.675H760.627ZM528.09 259.832C531.276 260.043 534.672 259.349 537.424 258.047C534.325 258.667 531.226 259.262 528.09 259.832ZM721.406 254.973C715.468 249.767 710.324 245.949 711.105 244.362C711.749 243.061 715.542 244.809 718.517 242.441C720.476 240.867 721.691 237.78 720.774 236.64C718.815 234.247 706.022 238.747 705.006 245.007C704.498 248.155 707.237 250.114 705.973 252.42C704.659 254.812 700.035 255.705 697.94 254.006C696.143 252.556 697.494 250.238 695.672 246.941C694.506 244.809 692.102 242.404 689.56 242.106C684.23 241.462 677.325 250.052 676.693 258.518C676.123 266.378 681.268 270.059 679.272 272.985C675.429 278.65 653.352 269.005 651.604 272.65C650.637 274.67 657.405 277.72 658.682 285.195C659.463 289.769 658.248 296.326 654.492 297.417C650.811 298.496 645.406 294.021 645.493 290.339C645.579 286.509 651.567 284.624 650.959 282.616C650.29 280.385 642.939 282.802 639.047 279.083C635.675 275.823 638.291 271.138 636.791 265.559C633.394 252.779 611.168 245.689 608.491 249.172C606.792 251.366 612.061 259.039 617.18 263.638C624.593 270.307 634.026 272.675 633.568 274.249C633.32 275.129 630.345 274.299 629.39 275.861C627.965 278.179 633.357 282.009 632.278 285.505C631.349 288.604 625.585 290.822 622.944 289.05C619.287 286.571 624.246 278.092 620.056 273.914C616.709 270.605 612.147 274.621 606.222 271.993C596.913 267.853 596.863 252.878 592.388 253.015C589.289 253.101 589.153 260.378 584.356 261.692C578.815 263.217 574.228 254.886 570.199 256.548C566.394 258.122 569.642 265.931 564.423 271.993C559.749 277.398 554.246 274.559 550.267 280.026C546.374 285.405 549.176 291.603 545.767 293.215C542.965 294.554 540.697 290.537 536.123 291.293C530.929 292.161 530.359 297.888 526.156 298.049C524.991 298.087 523.987 297.702 516.19 290.327C511.926 286.31 509.781 284.29 509.422 283.249C507.711 278.278 512.223 275.922 513.612 266.526C513.835 264.952 513.922 263.526 513.946 262.262C474.44 268.72 432.17 272.216 388.201 272.216C338.655 272.216 291.265 267.778 247.569 259.671C246.788 260.279 245.92 260.899 244.978 261.58C240.453 264.729 240.838 263.898 236.239 267.047C227.586 272.985 227.066 275.389 221.314 279.059C212.141 284.91 209.575 281.315 204.641 285.827C196.683 293.079 203.018 302.685 195.555 310.854C188.08 319.011 177.655 313.879 173.713 321.366C170.664 327.13 175.982 331.742 173.23 344.187C172.3 348.427 170.292 354.178 168.458 354.067C166.437 353.93 167.267 346.865 163.189 339.39C158.727 331.221 148.921 323.498 140.703 325.035C135.075 326.089 134.951 330.589 128.84 331.853C120.944 333.502 117.584 326.696 110.63 326.783C97.4409 326.92 82.6276 351.699 86.3216 370.839C86.929 373.95 88.2058 380.098 93.5733 384.474C94.503 385.23 100.738 390.313 106.924 388.528C113.085 386.767 112.589 380.049 120.708 376.342C122.245 375.648 127.166 373.405 130.278 375.636C133.736 378.115 132.695 384.586 132.596 385.206C131.418 391.986 125.976 393.858 126.931 397.093C127.588 399.349 130.427 399.015 138.1 403.031C143.207 405.708 145.785 407.097 146.653 409.712C147.756 412.997 145.128 414.609 144.632 419.282C143.901 426.137 148.351 434.728 154.066 436.252C159.161 437.616 162.012 432.484 167.553 434.207C172.213 435.682 171.656 439.76 175.374 440.454C182.7 441.793 193.659 427.674 195.109 423.038C195.183 422.79 195.444 421.898 196.274 421.303C197.985 420.051 201.592 420.658 202.646 422.468C204.319 425.294 198.493 428.901 199.621 433.922C200.452 437.665 204.765 440.343 206.141 439.562C207.443 438.831 205.41 435.447 206.712 430.439C207.059 429.087 208.323 424.253 211.509 423.026C216.133 421.265 219.529 429.211 229.334 431.443C236.573 433.104 237.528 429.434 243.701 431.17C251.92 433.476 251.821 440.467 261.96 446.814C267.985 450.607 268.369 448.351 276.898 452.479C283.74 455.788 295.727 461.59 297.934 471.916C299.372 478.647 297.5 485.539 297.5 485.539C296.508 489.158 294.872 492.307 295.752 492.952C296.322 493.348 297.425 492.369 300.413 490.634C304.342 488.328 307.454 486.53 308.805 487.435C310.193 488.365 310.255 491.675 308.966 493.683C307.925 495.245 306.388 495.48 306.487 496.137C306.648 497.017 309.574 497.848 312.301 497.154C315.747 496.274 315.933 493.72 319.106 492.952C321.412 492.381 324.114 493.026 325.924 494.402C329.643 497.228 328.453 502.273 330.857 502.955C332.952 503.525 334.217 499.819 338.109 499.038C339.944 498.654 341.295 499.174 346.96 501.926C354.98 505.856 359.021 507.851 360.595 509.475C364.884 513.901 363.595 516.541 366.669 518.029C372.644 520.917 379.71 512.227 383.491 514.843C386.367 516.814 386.032 524.326 383.057 529.346C379.871 534.726 375.198 534.552 372.756 540.651C371.529 543.738 372.458 544.407 371.02 547.767C368.926 552.651 365.864 553.754 363.608 556.617C358.885 562.642 363.595 568.989 362.604 581.273C362.182 586.479 361.389 596.21 355.216 602.594C345.212 612.908 329.234 606.177 324.746 614.779C321.908 620.234 327.895 623.853 325.614 633.336C324.622 637.476 323.135 638.319 313.144 650.591C302.409 663.806 300.537 667.264 295.888 667.71C290.124 668.268 285.637 663.657 284.273 665.231C283.653 665.975 284.224 667.45 287.769 674.801C291.475 682.536 292.207 683.788 291.686 685.536C290.496 689.589 284.187 691.3 282.984 691.635C278.174 692.948 275.435 691.473 273.997 693.382C272.324 695.576 275.038 698.762 273.402 700.634C271.431 702.89 266.2 699.667 264.551 701.638C263.014 703.485 267.117 706.968 267.167 713.092C267.216 718.236 264.378 718.608 264.117 723.257C263.684 731.165 271.766 733.124 271.505 740.512C271.319 746.226 266.411 746.462 265.407 753.999C264.588 760.197 267.464 763.444 265.407 765.601C263.262 767.857 257.808 766.692 254.101 764.734C246.763 760.854 248.56 755.003 240.317 746.611C234.503 740.673 229.657 739.545 229.719 735.578C229.768 732.566 232.594 731.736 234.516 728.029C237.131 722.959 235.47 717.493 232.917 709.472C228.578 695.899 223.434 692.738 222.888 681.619C222.764 678.953 223.099 679.648 223.186 674.95C223.533 658.265 219.393 653.591 219.132 638.542C218.959 628.923 220.645 630.336 219.839 624.039C218.575 613.899 214.298 610.763 213.319 599.532C212.736 592.603 214.273 592.814 213.319 588.5C211.348 579.513 204.059 576.017 194.898 568.059C189.555 563.386 193.572 565.89 172.139 540.639C160.834 527.313 156.037 522.293 156.607 514.83C156.954 510.405 158.863 509.413 159.222 503.079C159.755 493.881 155.95 491.761 156.904 485.687C158.132 477.878 164.9 478.163 169.387 469.151C174.841 458.181 172.015 443.182 166.635 441.297C163.437 440.194 161.925 444.558 155.9 445.5C143.975 447.384 132.162 433.091 130.935 431.579C123.981 422.939 125.381 417.782 118.898 414.596C113.271 411.845 110.655 414.993 104.978 411.708C98.5937 408.027 98.916 402.337 93.2262 400.676C89.5322 399.597 88.1315 401.605 83.2226 402.126C71.62 403.316 61.8271 393.994 60.1661 392.395C54.154 386.681 56.0134 384.152 48.9973 372.103C39.6259 355.988 34.7171 357.699 30.5768 346.567C25.6432 333.353 29.4364 322.556 24.6268 320.895C22.2715 320.077 18.7883 321.763 17.809 324.081C15.9 328.568 24.1929 333.13 22.7426 339.316C21.9988 342.489 18.8874 345.241 15.3546 345.836C12.8258 346.27 10.6689 345.526 9.11938 344.646C3.7891 371.62 1 399.51 1 428.046C1 546.986 49.5055 654.608 127.823 732.182C191.725 770.114 266.311 791.869 345.993 791.869C465.54 791.869 573.67 742.867 651.319 663.83C644.551 663.991 641.526 671.479 638.402 670.301C634.287 668.764 640.1 656.058 633.283 645.893C629.08 639.658 624.333 640.687 621.159 633.77C618.816 628.7 620.887 627.039 619.275 619.106C617.49 610.193 614.515 610.49 611.776 601.02C610.697 597.338 611.032 596.867 609.383 580.195C607.759 563.77 607.536 565.084 607.672 563.299C608.776 549.626 616.436 545.126 613.474 536.846C612.197 533.276 610.585 533.561 608.354 528.144C606.011 522.429 606.904 519.888 605.813 514.657C603.359 503.054 596.367 503.228 595.041 493.336C594.248 487.187 596.888 486.84 596.231 478.138C595.809 472.461 595.314 465.73 591.124 463.3C585.793 460.214 578.591 466.449 575.071 462.953C573.311 461.205 574.6 459.11 572.505 456.631C569.852 453.495 565.005 453.545 563.295 453.569C554.927 453.644 553.725 459.011 545.705 460.561C537.263 462.185 536.135 456.681 526.59 457.995C518.322 459.135 516.897 463.585 509.868 462.941C505.034 462.495 501.612 460.015 498.092 457.474C492.514 453.458 491.485 450.57 485.46 443.665C476.734 433.674 475.234 435.546 470.957 429.162C468.465 425.443 463.024 417.286 464.313 407.989C465.8 397.155 475.085 394.8 473.87 386.16C473.089 380.644 469.023 379.466 469.271 373.529C469.395 370.07 470.87 368.111 474.044 362.608C480.998 350.522 479.114 350.943 482.237 346.902C490.654 335.993 500.472 338.051 503.236 329.337C504.711 324.614 501.972 323.659 503.397 318.242C505.591 309.912 514.269 303.826 522.177 301.855C531.648 299.5 532.949 304.818 542.829 303.045C555.138 300.863 556.588 291.988 567.571 291.963C573.943 291.95 574.327 294.901 582.248 294.851C591.669 294.777 595.438 290.562 598.475 292.806C602.937 296.128 596.38 306.528 601.363 311.747C605.106 315.664 610.189 311.301 619.126 314.66C628.87 318.317 631.175 326.659 635.501 325.407C639.927 324.13 638.6 315.069 645.406 311.573C648.021 310.235 650.476 310.396 652.918 310.557C664.186 311.301 666.727 320.176 676.631 321.131C681.664 321.614 680.734 319.296 690.614 317.895C702.836 316.185 706.754 319.383 710.596 316.024C716.113 311.177 713.125 300.095 712.815 298.954C712.208 296.686 710.683 291.058 707.237 290.351C703.754 289.657 701.919 294.678 697.295 294.355C693.539 294.095 693.019 290.612 689.436 290.76C686.424 290.86 686.003 293.351 681.317 294.616C679.445 295.111 676.978 295.793 675.02 294.616C672.925 293.364 673.198 291.083 671.661 286.757C669.256 279.939 665.797 277.683 666.764 276.319C668.276 274.212 676.247 279.765 680.301 276.455C682.606 274.547 682.011 271.1 684.676 270.257C685.433 270.01 686.598 270.183 688.941 270.518C691.122 270.828 692.659 271.212 693.056 271.299C697.891 272.352 701.138 267.096 706.555 266.799C711.625 266.526 712.059 270.952 719.1 272.576C725.174 274.001 732.897 272.563 733.901 269.353C734.731 266.613 730.281 262.708 721.356 254.886L721.406 254.973ZM183.643 381.71C175.957 380.743 170.59 375.636 170.23 375.276C167.094 372.227 167.292 370.591 165.086 370.033C161.627 369.19 159.582 372.921 153.644 373.206C152.95 373.243 148.785 373.429 148.302 372.016C147.57 369.909 154.624 363.314 162.582 362.632C166.685 362.285 167.875 363.773 185.837 373.107C192.568 376.603 195.344 377.917 195.096 379.317C194.762 381.313 188.551 382.342 183.655 381.722L183.643 381.71ZM214.062 391.961C202.485 394.701 197.563 392.718 195.456 391.614C193.956 390.821 192.531 390.09 192.493 388.986C192.369 386.061 202.113 382.342 211.323 382.714C217.732 382.974 225.157 385.292 225.12 387.511C225.107 389.346 219.926 390.573 214.062 391.961Z" stroke="#FFED00" stroke-miterlimit="10"/>
<path d="M788.617 453.656C775.477 471.482 765.25 476.155 757.23 483.382C762.3 465.965 766.267 448.103 769.093 429.856C773.27 429.732 777.436 429.063 781.452 428.406C794.207 426.311 799.352 422.034 801.583 424.303C805.153 427.885 796.55 442.909 788.617 453.656Z" fill="#7EBA2C"/>
<path d="M834.705 368.31C835.139 371.719 823.053 372.971 819.346 382.144C817.76 386.086 819.433 387.214 818.33 391.019C816.061 398.705 807.111 401.01 790.166 408.076C780.943 411.931 775.006 414.844 770.915 416.753C773.06 399.411 774.175 381.747 774.175 363.822C774.175 354.203 773.865 344.646 773.221 335.188C775.068 335.981 777.398 336.465 779.072 338.807C780.51 340.778 779.939 341.956 780.782 344.782C782.233 349.666 786.67 355.232 792.385 356.732C798.843 358.405 805.302 354.414 807.917 352.802C812.516 349.964 813.855 347.261 815.776 347.856C818.776 348.786 816.483 355.703 820.722 360.996C825.532 367.058 834.333 365.409 834.705 368.335V368.31Z" fill="#7EBA2C"/>
<path d="M850.659 352.555C837.743 357.215 830.652 355.53 826.512 352.951C821.826 350.038 819.905 345.352 813.88 344.423C807.992 343.518 806.368 347.472 801.596 346.307C795.646 344.857 796.216 338.188 787.787 331.283C787.092 330.725 777.399 322.903 772.763 325.99C772.676 326.039 772.602 326.089 772.54 326.163C772.812 329.163 773.048 332.151 773.234 335.188C775.081 335.981 777.411 336.465 779.085 338.807C780.522 340.778 779.952 341.956 780.795 344.782C782.246 349.666 786.683 355.232 792.398 356.732C798.856 358.405 805.315 354.414 807.93 352.802C812.529 349.964 813.868 347.261 815.789 347.856C818.789 348.786 816.496 355.703 820.735 360.996C825.545 367.058 834.346 365.409 834.718 368.335C835.152 371.744 823.066 372.996 819.359 382.169C817.773 386.11 819.446 387.239 818.343 391.044C816.074 398.73 807.124 401.035 790.179 408.101C780.956 411.956 775.019 414.869 770.928 416.778C770.407 421.179 769.788 425.542 769.106 429.881C773.283 429.757 777.448 429.087 781.465 428.43C794.22 426.335 799.364 422.059 801.596 424.327C805.166 427.91 796.563 442.934 788.63 453.681C775.49 471.507 765.263 476.18 757.243 483.407C752.644 499.298 747.153 514.769 740.818 529.83V530.09C740.781 532.259 740.818 534.02 740.855 535.247C741.19 551.671 745.268 553.32 742.554 561.873C737.211 578.67 718.629 581.025 718.319 595.157C718.183 602.049 722.522 604.974 720.03 610.168C717.03 616.416 708.985 615.796 706.37 622.626C704.895 626.481 707.027 627.832 706.543 632.357C705.75 639.807 699.329 642.038 684.528 654.533C672.008 665.132 668.773 670.165 663.033 669.21C658.025 668.38 656.872 663.93 651.604 663.93H651.381C573.72 742.954 465.602 791.968 346.055 791.968C266.374 791.968 191.775 770.213 127.886 732.281C205.249 808.95 311.681 856.278 429.208 856.278C665.661 856.278 857.34 664.599 857.34 428.145C857.34 402.374 855.06 377.111 850.696 352.579L850.659 352.555ZM795.113 569.596C792.348 581.223 787.551 582.971 779.977 597.946C772.453 612.87 772.949 619.564 768.375 620.358C762.226 621.411 752.842 610.751 754.057 602.532C754.962 596.285 761.346 595.69 762.164 588.748C762.957 581.856 757.144 578.149 759.462 573.352C760.453 571.294 761.854 571.294 766.751 568.232C772.738 564.476 772.763 563.138 779.444 558.241C787.477 552.341 791.493 549.391 794.034 550.68C797.951 552.638 796.563 563.46 795.113 569.584V569.596Z" fill="#0082B3"/>
<path d="M850.658 352.555C837.742 357.215 830.651 355.53 826.511 352.951C821.825 350.038 819.904 345.352 813.879 344.423C807.991 343.518 806.367 347.472 801.595 346.307C795.645 344.857 796.215 338.188 787.786 331.283C787.092 330.725 777.398 322.903 772.762 325.99C772.675 326.039 772.601 326.089 772.539 326.163C772.328 323.895 772.117 321.614 771.882 319.346C771.783 318.218 771.634 317.077 771.522 315.949C771.51 315.652 771.473 315.379 771.436 315.081C771.349 314.238 771.25 313.383 771.138 312.553C770.977 311.251 770.828 309.962 770.655 308.673C770.407 306.677 770.134 304.669 769.861 302.685C769.849 302.586 769.824 302.475 769.812 302.376C769.514 300.355 769.229 298.347 768.894 296.339C768.77 295.508 768.634 294.69 768.498 293.884C768.287 292.521 768.064 291.182 767.828 289.831L767.407 287.55C767.283 286.893 767.184 286.236 767.047 285.554C766.824 284.29 766.601 283.05 766.353 281.798C766.229 281.154 766.093 280.521 765.969 279.877C765.56 277.769 765.101 275.675 764.655 273.58C764.382 272.216 764.06 270.84 763.75 269.477C763.452 268.113 763.143 266.762 762.82 265.411C762.473 263.911 762.114 262.398 761.729 260.899C761.469 259.82 761.209 258.766 760.936 257.7C760.589 256.337 760.242 254.986 759.882 253.634C759.399 251.8 758.891 249.978 758.395 248.168C757.924 246.507 757.44 244.846 756.957 243.197C756.598 241.933 756.213 240.668 755.829 239.404C755.482 238.276 755.135 237.148 754.788 236.032C754.267 234.359 753.746 232.685 753.201 231.024C751.577 226.053 749.854 221.12 748.057 216.223C747.871 215.666 747.66 215.132 747.474 214.599C747.35 214.302 747.251 213.992 747.127 213.695C746.817 212.852 746.482 212.021 746.172 211.166C745.912 210.472 745.652 209.777 745.379 209.108C744.586 207.026 743.768 204.968 742.925 202.91C742.057 200.728 741.165 198.559 740.247 196.415C739.243 194.072 738.239 191.741 737.185 189.423C737.049 189.076 736.888 188.754 736.739 188.419C736.355 187.551 735.958 186.684 735.562 185.828C735.053 184.7 734.545 183.572 734 182.457C733.69 181.787 733.38 181.105 733.045 180.436C732.301 178.874 731.558 177.325 730.789 175.763C729.45 173.023 728.087 170.309 726.686 167.631C725.992 166.28 725.298 164.929 724.579 163.602C723.823 162.152 723.042 160.689 722.236 159.251C721.405 157.727 720.575 156.202 719.707 154.702C719.41 154.132 719.087 153.562 718.753 153.004C717.996 151.64 717.215 150.264 716.41 148.913C715.418 147.202 714.414 145.504 713.397 143.806C713.447 139.566 712.096 134.559 714.724 133.108C716.682 132.03 719.732 133.492 722.484 134.806C726.401 136.678 727.231 138.488 729.029 139.17C731.074 139.914 734.347 139.17 739.974 133.678C745.268 139.269 750.424 145.021 755.457 150.884C803.516 207.385 837.147 276.53 850.696 352.592L850.658 352.555Z" fill="#80BB3A"/>
<path d="M739.938 133.641C734.31 139.133 731.037 139.876 728.992 139.133C727.195 138.463 726.364 136.641 722.447 134.769C719.695 133.455 716.646 132.005 714.687 133.071C712.059 134.521 713.41 139.529 713.361 143.769C694.903 113.027 672.714 84.8134 647.389 59.7239C681.602 80.0161 712.741 104.957 739.938 133.641Z" stroke="#FFED00" stroke-miterlimit="10"/>
<path d="M772.514 326.163C770.643 327.601 769.725 330.849 770.692 333.006C771.2 334.146 772.118 334.717 773.208 335.188C773.023 332.163 772.787 329.163 772.514 326.163ZM760.627 418.675C753.35 414.398 759.152 401.023 748.85 392.383C744.103 388.416 740.372 389.147 737.248 384.189C733.901 378.921 736.851 376.02 734.508 369.004C731.446 359.794 725.112 360.971 720.848 351.414C716.931 342.638 718.877 333.961 716.249 333.502C714.414 333.192 713.311 337.394 710.448 337.431C706.382 337.481 703.493 329.101 702.762 329.411C701.51 329.919 705.502 339.985 705.502 339.985C713.72 360.773 721.393 365.707 729.066 383.854C733.207 393.647 731.781 394.155 736.231 403.291C741.562 414.287 745.627 422.666 754.317 427.03C759.065 429.397 764.085 430.029 769.081 429.856C769.75 425.505 770.382 421.154 770.903 416.753C765.176 419.418 763.081 420.113 760.614 418.675H760.627ZM528.09 259.832C531.276 260.043 534.672 259.349 537.424 258.047C534.325 258.667 531.226 259.262 528.09 259.832ZM721.406 254.973C715.468 249.767 710.324 245.949 711.105 244.362C711.749 243.061 715.542 244.809 718.517 242.441C720.476 240.867 721.691 237.78 720.774 236.64C718.815 234.247 706.022 238.747 705.006 245.007C704.498 248.155 707.237 250.114 705.973 252.42C704.659 254.812 700.035 255.705 697.94 254.006C696.143 252.556 697.494 250.238 695.672 246.941C694.506 244.809 692.102 242.404 689.56 242.106C684.23 241.462 677.326 250.052 676.693 258.518C676.123 266.378 681.268 270.059 679.272 272.985C675.429 278.65 653.352 269.005 651.604 272.65C650.637 274.67 657.405 277.72 658.682 285.195C659.463 289.769 658.248 296.326 654.492 297.417C650.811 298.496 645.406 294.021 645.493 290.339C645.579 286.509 651.567 284.624 650.959 282.616C650.29 280.385 642.939 282.802 639.047 279.083C635.675 275.823 638.291 271.138 636.791 265.559C633.394 252.779 611.168 245.689 608.491 249.172C606.792 251.366 612.061 259.039 617.18 263.638C624.593 270.307 634.026 272.675 633.568 274.249C633.32 275.129 630.345 274.299 629.39 275.861C627.965 278.179 633.357 282.009 632.278 285.505C631.349 288.604 625.585 290.822 622.944 289.05C619.287 286.571 624.246 278.092 620.056 273.914C616.709 270.605 612.147 274.621 606.222 271.993C596.913 267.853 596.863 252.878 592.388 253.015C589.289 253.101 589.153 260.378 584.356 261.692C578.815 263.217 574.228 254.886 570.199 256.548C566.394 258.122 569.641 265.931 564.423 271.993C559.75 277.398 554.246 274.559 550.267 280.026C546.374 285.405 549.176 291.603 545.767 293.215C542.965 294.554 540.697 290.537 536.123 291.293C530.929 292.161 530.359 297.888 526.156 298.049C524.991 298.087 523.987 297.702 516.19 290.327C511.926 286.31 509.781 284.29 509.422 283.249C507.711 278.278 512.223 275.922 513.612 266.526C513.835 264.952 513.922 263.526 513.946 262.262C474.44 268.72 432.17 272.216 388.201 272.216C338.655 272.216 291.265 267.778 247.569 259.671C246.788 260.279 245.92 260.899 244.978 261.58C240.453 264.729 240.838 263.898 236.239 267.047C227.586 272.985 227.066 275.389 221.314 279.059C212.141 284.91 209.575 281.315 204.641 285.827C196.683 293.079 203.018 302.685 195.555 310.854C188.08 319.011 177.655 313.879 173.713 321.366C170.664 327.13 175.982 331.742 173.23 344.187C172.3 348.427 170.292 354.178 168.458 354.067C166.437 353.93 167.267 346.865 163.189 339.39C158.727 331.221 148.921 323.498 140.703 325.035C135.075 326.089 134.951 330.589 128.84 331.853C120.944 333.502 117.584 326.696 110.63 326.783C97.4408 326.92 82.6276 351.699 86.3216 370.839C86.929 373.95 88.2058 380.098 93.5733 384.474C94.503 385.23 100.738 390.313 106.924 388.528C113.085 386.767 112.589 380.049 120.708 376.342C122.245 375.648 127.166 373.405 130.278 375.636C133.736 378.115 132.695 384.586 132.596 385.206C131.418 391.986 125.976 393.858 126.931 397.093C127.588 399.349 130.427 399.015 138.1 403.031C143.207 405.708 145.785 407.097 146.653 409.712C147.756 412.997 145.128 414.609 144.632 419.282C143.901 426.137 148.351 434.728 154.066 436.252C159.161 437.616 162.012 432.484 167.553 434.207C172.213 435.682 171.656 439.76 175.374 440.454C182.7 441.793 193.659 427.674 195.109 423.038C195.183 422.79 195.444 421.898 196.274 421.303C197.985 420.051 201.592 420.658 202.646 422.468C204.319 425.294 198.493 428.901 199.621 433.922C200.452 437.665 204.765 440.343 206.141 439.562C207.443 438.831 205.41 435.447 206.712 430.439C207.059 429.087 208.323 424.253 211.509 423.026C216.133 421.265 219.529 429.211 229.334 431.443C236.573 433.104 237.528 429.434 243.701 431.17C251.92 433.476 251.821 440.467 261.96 446.814C267.985 450.607 268.369 448.351 276.898 452.479C283.74 455.788 295.727 461.59 297.934 471.916C299.372 478.647 297.5 485.539 297.5 485.539C296.508 489.158 294.872 492.307 295.752 492.952C296.322 493.348 297.425 492.369 300.413 490.634C304.342 488.328 307.454 486.53 308.805 487.435C310.193 488.365 310.255 491.675 308.966 493.683C307.925 495.245 306.388 495.48 306.487 496.137C306.648 497.017 309.574 497.848 312.301 497.154C315.747 496.274 315.933 493.72 319.106 492.952C321.412 492.381 324.114 493.026 325.924 494.402C329.643 497.228 328.453 502.273 330.857 502.955C332.952 503.525 334.217 499.819 338.109 499.038C339.944 498.654 341.295 499.174 346.96 501.926C354.98 505.856 359.021 507.852 360.595 509.475C364.884 513.901 363.595 516.541 366.669 518.029C372.644 520.917 379.71 512.227 383.491 514.843C386.367 516.814 386.032 524.326 383.057 529.346C379.871 534.726 375.198 534.552 372.756 540.651C371.529 543.738 372.458 544.407 371.02 547.767C368.926 552.651 365.864 553.754 363.608 556.617C358.885 562.642 363.595 568.989 362.604 581.273C362.182 586.479 361.389 596.21 355.216 602.594C345.212 612.908 329.234 606.177 324.746 614.779C321.908 620.234 327.895 623.853 325.614 633.336C324.622 637.476 323.135 638.319 313.144 650.591C302.409 663.806 300.537 667.264 295.888 667.71C290.124 668.268 285.637 663.657 284.273 665.231C283.653 665.975 284.224 667.45 287.769 674.801C291.475 682.536 292.207 683.788 291.686 685.536C290.496 689.589 284.187 691.3 282.984 691.635C278.174 692.948 275.435 691.473 273.997 693.382C272.324 695.576 275.038 698.762 273.402 700.634C271.431 702.89 266.2 699.667 264.551 701.638C263.014 703.485 267.117 706.968 267.167 713.092C267.216 718.236 264.378 718.608 264.117 723.257C263.684 731.165 271.766 733.124 271.505 740.512C271.319 746.226 266.411 746.462 265.407 753.999C264.588 760.197 267.464 763.445 265.407 765.601C263.262 767.857 257.808 766.692 254.101 764.734C246.763 760.854 248.56 755.003 240.317 746.611C234.503 740.673 229.657 739.545 229.719 735.578C229.768 732.566 232.594 731.736 234.516 728.029C237.131 722.959 235.47 717.493 232.917 709.472C228.578 695.899 223.434 692.738 222.888 681.619C222.764 678.953 223.099 679.648 223.186 674.95C223.533 658.265 219.393 653.591 219.132 638.542C218.959 628.923 220.645 630.336 219.839 624.039C218.575 613.899 214.298 610.763 213.319 599.532C212.736 592.603 214.273 592.814 213.319 588.5C211.348 579.513 204.059 576.017 194.898 568.059C189.555 563.386 193.572 565.89 172.139 540.639C160.834 527.313 156.037 522.293 156.607 514.83C156.954 510.405 158.863 509.413 159.222 503.079C159.755 493.881 155.95 491.761 156.904 485.687C158.132 477.878 164.9 478.163 169.387 469.151C174.841 458.181 172.015 443.182 166.635 441.297C163.437 440.194 161.925 444.558 155.9 445.5C143.975 447.384 132.162 433.091 130.935 431.579C123.981 422.939 125.381 417.782 118.898 414.596C113.271 411.845 110.655 414.993 104.978 411.708C98.5937 408.027 98.916 402.337 93.2262 400.676C89.5322 399.597 88.1315 401.605 83.2226 402.126C71.62 403.316 61.8271 393.994 60.1661 392.395C54.154 386.681 56.0134 384.152 48.9973 372.103C39.6259 355.988 34.7171 357.699 30.5768 346.567C25.6432 333.353 29.4364 322.556 24.6268 320.895C22.2715 320.077 18.7883 321.763 17.809 324.081C15.9 328.568 24.1929 333.13 22.7426 339.316C21.9988 342.489 18.8874 345.241 15.3546 345.836C12.8258 346.27 10.6689 345.526 9.11938 344.646C3.7891 371.62 1 399.51 1 428.046C1 546.986 49.5055 654.608 127.823 732.182C191.725 770.114 266.311 791.869 345.993 791.869C465.54 791.869 573.67 742.867 651.319 663.83C644.551 663.991 641.526 671.479 638.402 670.301C634.287 668.764 640.1 656.058 633.283 645.893C629.08 639.658 624.333 640.687 621.159 633.77C618.816 628.7 620.887 627.039 619.275 619.106C617.49 610.193 614.515 610.49 611.776 601.02C610.697 597.338 611.032 596.867 609.383 580.195C607.759 563.77 607.536 565.084 607.672 563.299C608.776 549.626 616.436 545.126 613.474 536.846C612.197 533.276 610.586 533.561 608.354 528.144C606.011 522.429 606.904 519.888 605.813 514.657C603.359 503.054 596.367 503.228 595.041 493.336C594.248 487.187 596.888 486.84 596.231 478.138C595.81 472.461 595.314 465.73 591.124 463.3C585.793 460.214 578.591 466.449 575.071 462.953C573.311 461.205 574.6 459.11 572.505 456.631C569.852 453.495 565.005 453.545 563.295 453.569C554.927 453.644 553.725 459.011 545.705 460.561C537.263 462.185 536.135 456.681 526.59 457.995C518.322 459.135 516.897 463.585 509.868 462.941C505.034 462.495 501.612 460.015 498.092 457.474C492.514 453.458 491.485 450.57 485.46 443.665C476.733 433.674 475.234 435.546 470.957 429.162C468.465 425.443 463.024 417.286 464.313 407.989C465.8 397.155 475.085 394.8 473.87 386.16C473.089 380.644 469.023 379.466 469.271 373.529C469.395 370.07 470.87 368.111 474.044 362.608C480.998 350.522 479.114 350.943 482.237 346.902C490.654 335.993 500.472 338.051 503.236 329.337C504.711 324.614 501.972 323.659 503.397 318.242C505.591 309.912 514.269 303.826 522.177 301.855C531.648 299.5 532.949 304.818 542.829 303.045C555.138 300.863 556.589 291.988 567.571 291.963C573.943 291.95 574.327 294.901 582.248 294.851C591.669 294.777 595.438 290.562 598.475 292.806C602.937 296.128 596.38 306.528 601.363 311.747C605.106 315.664 610.189 311.301 619.126 314.66C628.87 318.317 631.175 326.659 635.501 325.407C639.927 324.13 638.6 315.069 645.406 311.573C648.021 310.235 650.476 310.396 652.918 310.557C664.186 311.301 666.727 320.176 676.631 321.131C681.664 321.614 680.734 319.296 690.614 317.895C702.836 316.185 706.754 319.383 710.596 316.024C716.113 311.177 713.125 300.095 712.815 298.954C712.208 296.686 710.683 291.058 707.237 290.351C703.754 289.657 701.919 294.678 697.295 294.355C693.539 294.095 693.019 290.612 689.436 290.76C686.424 290.86 686.003 293.351 681.317 294.616C679.445 295.111 676.978 295.793 675.02 294.616C672.925 293.364 673.198 291.083 671.661 286.757C669.256 279.939 665.797 277.683 666.764 276.319C668.276 274.212 676.247 279.765 680.301 276.455C682.606 274.547 682.011 271.1 684.676 270.257C685.433 270.01 686.598 270.183 688.941 270.518C691.122 270.828 692.659 271.212 693.056 271.299C697.891 272.352 701.138 267.096 706.555 266.799C711.625 266.526 712.059 270.952 719.1 272.576C725.174 274.001 732.897 272.563 733.901 269.353C734.731 266.613 730.281 262.708 721.356 254.886L721.406 254.973ZM183.643 381.71C175.957 380.743 170.59 375.636 170.23 375.276C167.094 372.227 167.292 370.591 165.086 370.033C161.627 369.19 159.582 372.921 153.644 373.206C152.95 373.243 148.785 373.429 148.302 372.016C147.57 369.909 154.624 363.314 162.582 362.632C166.685 362.285 167.875 363.773 185.837 373.107C192.568 376.603 195.344 377.917 195.096 379.317C194.762 381.313 188.551 382.342 183.655 381.722L183.643 381.71ZM214.062 391.961C202.485 394.701 197.563 392.718 195.456 391.614C193.956 390.821 192.531 390.09 192.493 388.986C192.369 386.061 202.113 382.342 211.323 382.714C217.732 382.974 225.157 385.292 225.12 387.511C225.107 389.346 219.926 390.573 214.062 391.961Z" fill="#0090C4"/>
<path d="M383.057 529.396C379.871 534.776 375.198 534.602 372.756 540.701C371.529 543.788 372.459 544.457 371.021 547.816C368.926 552.7 365.864 553.803 363.608 556.667C358.885 562.691 363.595 569.038 362.604 581.323C362.182 586.529 361.389 596.26 355.216 602.644C345.212 612.957 329.234 606.226 324.746 614.829C321.908 620.283 327.895 623.903 325.614 633.386C324.622 637.526 323.135 638.369 313.144 650.641C302.409 663.855 300.537 667.314 295.889 667.76C290.124 668.318 285.637 663.706 284.274 665.281C283.654 666.024 284.224 667.5 287.769 674.85C291.476 682.586 292.207 683.837 291.686 685.585C290.496 689.639 284.187 691.35 282.984 691.684C278.175 692.998 275.435 691.523 273.997 693.432C272.324 695.626 275.039 698.812 273.402 700.684C271.431 702.94 266.2 699.717 264.551 701.688C263.014 703.535 267.117 707.018 267.167 713.142C267.217 718.286 264.378 718.658 264.118 723.306C263.684 731.215 271.766 733.174 271.506 740.562C271.32 746.276 266.411 746.512 265.407 754.048C264.589 760.246 267.465 763.494 265.407 765.651C263.262 767.907 257.808 766.742 254.102 764.783C246.763 760.903 248.561 755.052 240.317 746.66C234.504 740.723 229.657 739.595 229.719 735.628C229.768 732.616 232.595 731.785 234.516 728.079C237.132 723.009 235.471 717.542 232.917 709.522C228.578 695.948 223.434 692.787 222.889 681.668C222.765 679.003 223.099 679.697 223.186 674.999C223.533 658.314 219.393 653.641 219.133 638.592C218.959 628.973 220.645 630.386 219.839 624.089C218.575 613.949 214.298 610.813 213.319 599.582C212.736 592.653 214.273 592.863 213.319 588.549C211.348 579.562 204.059 576.067 194.898 568.109C189.556 563.435 193.572 565.939 172.139 540.689C160.834 527.363 156.037 522.342 156.607 514.88C156.954 510.455 158.863 509.463 159.223 503.129C159.756 493.931 155.95 491.811 156.905 485.737C158.132 477.928 164.9 478.213 169.387 469.201C174.842 458.23 172.015 443.231 166.636 441.347C163.437 440.244 161.925 444.607 155.901 445.549C143.976 447.434 132.162 433.141 130.935 431.629C123.981 422.989 125.382 417.832 118.899 414.646C113.271 411.894 110.655 415.043 104.978 411.758C98.5939 408.076 98.9162 402.386 93.2264 400.725C89.5324 399.647 88.1317 401.655 83.2229 402.176C71.6202 403.366 61.8274 394.044 60.1663 392.445C54.1543 386.73 56.0137 384.202 48.9975 372.153C39.6262 356.038 34.7174 357.748 30.5771 346.617C25.6435 333.403 29.4367 322.606 24.627 320.945C22.2718 320.127 18.7885 321.812 17.8092 324.13C15.9002 328.618 24.1931 333.18 22.7428 339.365C21.9991 342.539 18.8877 345.29 15.3548 345.885C12.826 346.319 10.6691 345.576 9.11963 344.695C19.9041 290.079 41.0765 239.206 70.4922 194.196C115.056 223.525 176.354 246.47 247.532 259.671C246.751 260.279 245.883 260.899 244.941 261.58C240.417 264.729 240.801 263.898 236.202 267.047C227.549 272.985 227.029 275.389 221.277 279.059C212.104 284.91 209.538 281.315 204.604 285.827C196.646 293.079 202.981 302.685 195.518 310.854C188.043 319.011 177.618 313.879 173.676 321.366C170.627 327.13 175.945 331.742 173.193 344.187C172.263 348.427 170.255 354.178 168.421 354.067C166.4 353.93 167.231 346.865 163.152 339.39C158.69 331.221 148.884 323.498 140.666 325.035C135.038 326.089 134.914 330.589 128.803 331.853C120.907 333.502 117.547 326.696 110.593 326.783C97.4039 326.92 82.5907 351.699 86.2847 370.839C86.8921 373.95 88.1689 380.098 93.5363 384.474C94.466 385.23 100.701 390.313 106.887 388.528C113.048 386.768 112.552 380.049 120.671 376.342C122.208 375.648 127.13 373.405 130.241 375.636C133.699 378.115 132.658 384.586 132.559 385.206C131.381 391.986 125.939 393.858 126.894 397.093C127.551 399.349 130.39 399.015 138.063 403.031C143.17 405.709 145.748 407.097 146.616 409.712C147.719 412.997 145.091 414.609 144.595 419.282C143.864 426.137 148.314 434.728 154.029 436.252C159.124 437.616 161.975 432.484 167.516 434.207C172.177 435.682 171.619 439.76 175.338 440.454C182.664 441.793 193.622 427.674 195.072 423.038C195.146 422.79 195.407 421.898 196.237 421.303C197.948 420.051 201.555 420.658 202.609 422.468C204.282 425.294 198.456 428.901 199.584 433.922C200.415 437.665 204.728 440.343 206.104 439.562C207.406 438.831 205.373 435.447 206.675 430.439C207.022 429.087 208.286 424.253 211.472 423.026C216.096 421.266 219.492 429.211 229.297 431.443C236.537 433.104 237.491 429.434 243.664 431.17C251.883 433.476 251.784 440.467 261.924 446.814C267.948 450.607 268.332 448.351 276.861 452.479C283.703 455.788 295.69 461.59 297.897 471.916C299.335 478.647 297.463 485.539 297.463 485.539C296.471 489.158 294.835 492.307 295.715 492.952C296.285 493.348 297.389 492.369 300.376 490.634C304.305 488.328 307.417 486.53 308.768 487.435C310.156 488.365 310.218 491.675 308.929 493.683C307.888 495.245 306.351 495.48 306.45 496.137C306.611 497.017 309.537 497.848 312.264 497.154C315.71 496.274 315.896 493.72 319.069 492.952C321.375 492.381 324.077 493.026 325.887 494.402C329.606 497.228 328.416 502.273 330.821 502.955C332.915 503.525 334.18 499.819 338.072 499.038C339.907 498.654 341.258 499.174 346.923 501.926C354.943 505.856 358.984 507.852 360.559 509.475C364.848 513.901 363.558 516.541 366.633 518.029C372.607 520.917 379.673 512.227 383.454 514.843C386.33 516.814 385.995 524.326 383.02 529.346L383.057 529.396Z" fill="#8BBE32"/>
<path d="M195.072 379.293C194.737 381.288 188.526 382.317 183.63 381.697C175.945 380.731 170.577 375.623 170.218 375.264C167.081 372.215 167.28 370.578 165.073 370.02C161.615 369.178 159.569 372.909 153.632 373.194C152.938 373.231 148.773 373.417 148.289 372.004C147.558 369.896 154.611 363.302 162.569 362.62C166.672 362.273 167.862 363.76 185.824 373.095C192.555 376.59 195.332 377.904 195.084 379.305L195.072 379.293Z" fill="#8BBE32"/>
<path d="M225.107 387.486C225.095 389.321 219.913 390.548 214.05 391.937C202.472 394.676 197.551 392.693 195.443 391.589C193.943 390.796 192.518 390.065 192.481 388.962C192.357 386.036 202.1 382.317 211.31 382.689C217.719 382.949 225.144 385.268 225.107 387.486Z" fill="#8BBE32"/>
<path d="M295.926 106.469C296.087 108.093 289.17 111.18 281.868 110.82C273.712 110.424 265.233 105.75 265.58 102.441C265.828 100.122 270.514 98.1763 274.394 98.4242C277.679 98.6473 278.67 100.333 283.096 102.441C290.62 106.06 295.802 105.068 295.926 106.469Z" stroke="#FFED00" stroke-miterlimit="10"/>
<path d="M294.252 85.582C294.252 87.838 286.095 90.0321 284.509 90.466C284.199 90.5527 284.062 90.5899 283.889 90.6023C279.922 91.2717 275.162 87.5529 275.522 85.2473C275.881 82.9416 281.373 81.9623 284.881 82.0119C289.232 82.0863 294.252 83.8341 294.252 85.582Z" stroke="#FFED00" stroke-miterlimit="10"/>
<path d="M371.677 80.6855C366.434 87.8504 357.36 85.7927 345.472 88.7181C327.523 93.1187 323.432 103.878 307.974 103.655C302.966 103.581 298.851 102.391 298.38 100.42C297.971 98.6349 300.784 96.9863 300.264 94.0608C299.917 92.0155 298.355 91.6932 298.603 90.4908C298.962 88.6933 302.656 88.966 307.516 86.0282C309.524 84.8134 311.445 83.6606 311.321 82.4581C311.061 80.1401 303.648 81.0946 301.057 76.5329C300.053 74.7974 299.78 72.3058 300.834 70.6324C303.003 67.1367 310.218 68.178 314.445 68.835C322.998 70.1737 327.659 73.062 332.295 74.8594C351.769 82.4705 371.231 71.4009 373.251 76.3097C373.822 77.7353 372.557 79.4831 371.677 80.6731V80.6855Z" stroke="#FFED00" stroke-miterlimit="10"/>
<path d="M734.521 369.004C731.459 359.794 725.125 360.971 720.86 351.414C716.943 342.638 718.889 333.961 716.261 333.502C714.427 333.192 713.324 337.394 710.46 337.431C706.394 337.481 703.506 329.101 702.775 329.411C701.523 329.919 705.514 339.985 705.514 339.985C713.733 360.773 721.406 365.707 729.079 383.854C733.219 393.647 731.794 394.155 736.244 403.291C741.574 414.287 745.64 422.666 754.329 427.03C759.077 429.397 764.098 430.029 769.093 429.856C766.267 448.103 762.312 465.965 757.23 483.382C753.375 486.878 750.04 490.943 747.14 497.352C741.896 508.955 740.929 521.933 740.805 529.805V530.065C719.621 580.393 689.077 625.552 651.356 663.917C644.588 664.078 641.563 671.565 638.439 670.388C634.324 668.851 640.138 656.145 633.32 645.98C629.118 639.745 624.37 640.774 621.196 633.857C618.854 628.787 620.924 627.126 619.312 619.192C617.527 610.28 614.552 610.577 611.813 601.107C610.734 597.425 611.069 596.954 609.42 580.281C607.796 563.857 607.573 565.171 607.71 563.386C608.813 549.713 616.474 545.213 613.511 536.933C612.234 533.363 610.623 533.648 608.391 528.231C606.049 522.516 606.941 519.975 605.85 514.744C603.396 503.141 596.404 503.315 595.078 493.423C594.285 487.274 596.925 486.927 596.268 478.225C595.847 472.548 595.351 465.817 591.161 463.387C585.831 460.301 578.629 466.536 575.108 463.04C573.348 461.292 574.637 459.197 572.542 456.718C569.889 453.582 565.043 453.632 563.332 453.656C554.965 453.731 553.762 459.098 545.742 460.648C537.3 462.272 536.172 456.768 526.627 458.082C518.359 459.222 516.934 463.672 509.905 463.028C505.071 462.581 501.65 460.102 498.129 457.561C492.551 453.545 491.522 450.656 485.498 443.752C476.771 433.761 475.271 435.633 470.994 429.249C468.503 425.53 463.061 417.373 464.35 408.076C465.838 397.242 475.122 394.887 473.907 386.247C473.126 380.731 469.06 379.553 469.308 373.615C469.432 370.157 470.907 368.198 474.081 362.694C481.035 350.608 479.151 351.03 482.275 346.989C490.691 336.08 500.509 338.138 503.273 329.424C504.748 324.701 502.009 323.746 503.435 318.329C505.629 309.999 514.306 303.913 522.214 301.942C531.685 299.586 532.987 304.904 542.866 303.132C555.175 300.95 556.626 292.074 567.609 292.05C573.98 292.037 574.364 294.988 582.286 294.938C591.706 294.864 595.475 290.649 598.512 292.893C602.974 296.215 596.417 306.615 601.4 311.834C605.144 315.751 610.226 311.387 619.164 314.747C628.907 318.404 631.212 326.746 635.539 325.494C639.964 324.217 638.638 315.156 645.443 311.66C648.059 310.321 650.513 310.483 652.955 310.644C664.223 311.387 666.764 320.263 676.669 321.217C681.701 321.701 680.772 319.383 690.651 317.982C702.874 316.271 706.791 319.47 710.634 316.11C716.15 311.263 713.162 300.181 712.852 299.041C712.245 296.773 710.72 291.145 707.274 290.438C703.791 289.744 701.956 294.764 697.333 294.442C693.577 294.182 693.056 290.699 689.474 290.847C686.461 290.946 686.04 293.438 681.354 294.702C679.482 295.198 677.016 295.88 675.057 294.702C672.962 293.45 673.235 291.17 671.698 286.843C669.293 280.026 665.835 277.769 666.801 276.406C668.314 274.299 676.284 279.852 680.338 276.542C682.643 274.633 682.048 271.187 684.714 270.344C685.47 270.096 686.635 270.27 688.978 270.605C691.159 270.914 692.697 271.299 693.093 271.386C697.928 272.439 701.175 267.183 706.593 266.886C711.662 266.613 712.096 271.038 719.137 272.662C725.211 274.088 732.934 272.65 733.938 269.439C734.769 266.7 730.318 262.795 721.393 254.973C715.456 249.767 710.311 245.949 711.092 244.362C711.737 243.061 715.53 244.809 718.505 242.441C720.464 240.867 721.678 237.78 720.761 236.64C718.803 234.247 706.01 238.747 704.993 245.007C704.485 248.155 707.225 250.114 705.96 252.42C704.646 254.812 700.023 255.705 697.928 254.006C696.13 252.556 697.481 250.238 695.659 246.941C694.494 244.809 692.089 242.404 689.548 242.106C684.218 241.462 677.313 250.052 676.681 258.518C676.111 266.378 681.255 270.059 679.259 272.985C675.417 278.65 653.339 269.006 651.591 272.65C650.625 274.67 657.393 277.72 658.67 285.195C659.451 289.769 658.236 296.326 654.48 297.417C650.798 298.496 645.393 294.021 645.48 290.339C645.567 286.509 651.554 284.624 650.947 282.616C650.277 280.385 642.927 282.802 639.034 279.083C635.663 275.823 638.278 271.138 636.778 265.559C633.382 252.779 611.156 245.689 608.478 249.172C606.78 251.366 612.048 259.039 617.168 263.638C624.581 270.307 634.014 272.675 633.555 274.249C633.307 275.129 630.332 274.299 629.378 275.861C627.952 278.179 633.345 282.009 632.266 285.505C631.336 288.604 625.572 290.822 622.932 289.05C619.275 286.571 624.234 278.092 620.044 273.914C616.697 270.605 612.135 274.621 606.21 271.993C596.9 267.853 596.851 252.878 592.376 253.015C589.277 253.101 589.14 260.378 584.343 261.692C578.802 263.217 574.216 254.886 570.187 256.548C566.381 258.122 569.629 265.931 564.41 271.993C559.737 277.398 554.233 274.559 550.254 280.026C546.362 285.405 549.163 291.603 545.754 293.215C542.953 294.554 540.685 290.537 536.11 291.294C530.917 292.161 530.346 297.888 526.144 298.049C524.979 298.087 523.975 297.702 516.178 290.327C511.913 286.31 509.769 284.29 509.409 283.249C507.699 278.278 512.211 275.922 513.599 266.526C513.822 264.952 513.909 263.526 513.934 262.262C518.694 261.506 523.404 260.675 528.078 259.808C531.264 260.018 534.66 259.324 537.412 258.023H537.449C619.139 241.772 687.168 212.604 730.74 175.713C731.496 177.275 732.24 178.825 732.996 180.387C733.331 181.056 733.641 181.738 733.95 182.407C734.484 183.535 735.004 184.663 735.512 185.779C735.909 186.647 736.306 187.514 736.69 188.37C736.851 188.704 737 189.027 737.136 189.374C738.19 191.692 739.194 194.035 740.198 196.365C741.115 198.509 742.02 200.679 742.876 202.86C743.719 204.918 744.537 206.976 745.33 209.058C745.603 209.728 745.863 210.422 746.123 211.116C746.433 211.959 746.768 212.79 747.078 213.645C747.413 214.476 747.722 215.318 748.008 216.174C749.805 221.07 751.528 226.004 753.152 230.975C753.71 232.636 754.23 234.297 754.739 235.983C755.086 237.111 755.433 238.239 755.78 239.354C756.164 240.619 756.536 241.883 756.908 243.147C757.391 244.796 757.875 246.457 758.346 248.118C758.854 249.94 759.35 251.75 759.833 253.585C760.193 254.936 760.54 256.287 760.887 257.651C761.16 258.729 761.42 259.783 761.68 260.849C762.065 262.349 762.424 263.861 762.771 265.361C763.106 266.712 763.416 268.063 763.701 269.427C764.011 270.791 764.321 272.167 764.606 273.53C765.052 275.625 765.511 277.72 765.92 279.827C766.279 281.711 766.651 283.596 766.998 285.505C767.135 286.174 767.246 286.843 767.358 287.5L767.779 289.781C768.027 291.132 768.25 292.459 768.449 293.835C768.585 294.653 768.721 295.459 768.845 296.289C769.18 298.297 769.465 300.305 769.763 302.326C769.775 302.425 769.8 302.537 769.812 302.636C770.085 304.632 770.37 306.64 770.605 308.623C770.779 309.9 770.94 311.201 771.089 312.503C771.213 313.631 771.349 314.772 771.473 315.9C771.597 317.028 771.733 318.168 771.833 319.296C772.081 321.565 772.279 323.845 772.49 326.114C770.618 327.552 769.701 330.8 770.667 332.956C771.176 334.097 772.093 334.667 773.184 335.138C773.828 344.584 774.138 354.141 774.138 363.773C774.138 381.71 773.035 399.362 770.878 416.704C765.151 419.369 763.056 420.063 760.589 418.625C753.313 414.349 759.114 400.973 748.813 392.333C744.066 388.367 740.334 389.098 737.211 384.14C733.864 378.871 736.814 375.971 734.471 368.954L734.521 369.004Z" fill="#8BBE32"/>
<path d="M647.389 59.7239C583.488 21.7798 508.889 0 429.17 0C309.449 0 201.183 49.1501 123.497 128.361C142.066 125.088 148.896 127.542 151.091 131.212C152.504 133.579 152.59 137.422 155.677 138.798C159.644 140.533 163.4 135.972 167.862 137.98C170.775 139.281 170.354 141.723 172.87 142.566C176.812 143.917 179.639 138.538 185.589 136.356C193.262 133.53 196.299 139.591 209.017 139.728C217.372 139.827 227.475 137.335 228.652 132.563C229.359 129.712 226.557 127.418 227.983 125.125C228.937 123.588 231.255 123.303 235.83 122.82C239.09 122.472 244.036 121.952 244.507 123.353C245.027 124.914 239.524 127.121 240.044 129.451C240.391 130.976 242.92 130.579 245.189 132.959C247.668 135.575 246.552 138.067 248.164 138.91C250.878 140.36 254.498 133.455 261.427 132.55C266.696 131.856 272.819 134.769 273.216 137.967C273.6 141.079 268.468 144.488 264.687 146.087C251.151 151.764 237.057 141.761 233.561 146.62C231.714 149.161 234.912 152.855 232.743 155.012C229.57 158.185 220.83 152.272 217.979 155.272C216.492 156.859 218.909 159.028 217.979 161.78C215.884 167.941 201.865 163.962 194.303 172.342C191.514 175.428 189.208 180.622 190.646 184.787C192.344 189.721 198.951 192.349 207.554 195.745C214.273 198.41 217.372 198.633 218.252 201.299C219.355 204.645 215.463 207.149 216.343 212.529C216.678 214.5 217.831 217.934 219.74 218.219C222.702 218.653 223.942 211.067 230.437 205.761C236.338 200.951 239.833 203.493 245.722 200.22C257.956 193.378 252.081 177.139 264.006 168.685C271.679 163.23 283.703 163.107 288.5 168.127C293 172.837 290.161 181.044 293.248 182.085C297.252 183.424 302.867 169.862 308.544 171.114C311.346 171.734 313.639 175.874 313.267 179.11C312.796 183.399 307.813 184.911 308.408 187.502C309.016 190.179 314.606 189.436 315.846 192.361C317.668 196.65 307.652 203.232 309.078 205.897C310.776 209.096 326.494 201.869 328.824 205.476C330.312 207.782 326.457 214.438 320.569 218.479C309.35 226.177 298.69 218.814 281.323 222.806C267.34 226.041 258.837 233.751 258.998 234.036C259.171 234.396 272.447 226.574 276.055 230.243C278.1 232.338 275.013 236.057 277.009 239.59C280.505 245.837 294.921 242.676 295.417 244.734C296.161 247.92 282.277 258.841 269.968 255.829C264.725 254.552 263.411 251.626 258.874 252.209C255.13 252.692 253.767 254.998 247.606 259.634C291.302 267.753 338.692 272.179 388.238 272.179C432.207 272.179 474.477 268.683 513.983 262.225C514.082 257.899 513.401 255.382 514.938 254.589C517.169 253.411 519.772 258.035 525.561 259.399C526.392 259.585 527.235 259.733 528.127 259.758C531.263 259.188 534.362 258.593 537.461 257.973H537.499C540.25 256.671 542.358 254.787 542.928 252.643C544.8 245.738 529.875 240.11 531.35 233.342C532.701 227.095 545.841 229.933 562.873 220.81C579.756 211.761 581.095 201.323 591.818 201.819C599.379 202.179 605.776 207.744 612.73 204.088C615.296 202.736 614.949 201.72 617.54 200.542C625.175 197.109 631.584 204.286 635.886 201.509C640.633 198.447 636.468 187.403 640.695 185.432C644.117 183.82 649.286 189.919 651.306 188.32C653.364 186.708 648.641 180.039 650.996 177.374C653.785 174.226 662.525 181.304 669.33 177.374C672.293 175.676 674.747 171.932 673.83 169.986C671.412 164.805 647.339 175.75 641.997 168.375C637.584 162.301 649.781 149.136 646.806 146.508C643.807 143.831 626.514 153.004 626.229 163.54C626.006 171.647 635.91 177.002 633.617 181.564C632.526 183.758 630.035 182.915 623.973 185.419C614.453 189.349 611.912 195.014 608.862 193.787C605.057 192.249 608.069 183.089 603.061 179.953C599.776 177.87 597.123 181.044 590.962 179.99C584.888 178.949 577.785 174.189 577.649 168.846C577.513 163.131 585.434 158.768 587.826 157.466C595.214 153.4 598.735 155.805 603.321 151.888C607.982 147.909 606.086 143.955 609.866 138.339C614.974 130.703 624.58 128.832 633.109 127.195C640.708 125.72 646.943 125.745 664.111 127.443C691.866 130.195 705.762 131.645 706.493 136.17C706.964 139.046 702.787 142.678 698.994 143.905C690.837 146.57 682.544 138.872 681.057 140.757C679.929 142.207 684.317 147.277 685.172 148.268C688.854 152.533 693.862 155.966 694.866 155.049C695.87 154.144 691.853 149.93 693.167 148.021C695.225 145.046 706.89 152.942 711.563 148.987C712.976 147.797 713.36 145.839 713.385 143.707C694.928 112.965 672.739 84.7514 647.414 59.6619L647.389 59.7239ZM179.13 131.559C173.069 133.654 169.957 136.827 165.036 135.401C161.106 134.261 157.66 130.641 158.317 128.67C159.272 125.795 168.631 127.493 168.879 125.956C169.152 124.381 159.879 118.704 151.909 121.32C148.115 122.572 145.45 125.41 142.302 124.195C142.178 124.158 140.021 123.291 139.587 121.481C138.757 118.134 144.397 114.279 145.822 113.312C150 110.473 157.574 107.201 166.486 108.998C174.42 110.585 173.515 114.204 181.535 116.361C192.654 119.336 202.447 114.527 203.947 117.799C204.554 119.113 203.042 120.018 203.302 122.919C203.699 127.233 207.306 128.608 206.835 130.133C205.906 133.046 192.828 126.861 179.118 131.571L179.13 131.559ZM229.57 120.34C225.02 121.01 219.95 118.022 219.963 115.704C219.975 114.254 222.02 112.692 223.805 112.655C225.33 112.642 225.938 113.746 227.338 114.415C231.665 116.51 237.131 111.403 237.9 112.333C238.631 113.213 235.235 119.497 229.57 120.328V120.34ZM255.279 161.743C253.06 162.239 252.192 158.26 248.114 156.859C243.007 155.099 238.123 159.177 236.747 157.305C236.077 156.4 236.784 154.863 236.97 154.466C238.371 151.417 242.635 150.884 244.135 150.71C249.478 150.041 257.014 152.024 257.894 156.289C258.365 158.508 257.014 161.346 255.279 161.743ZM300.264 94.0608C299.917 92.0155 298.355 91.6932 298.603 90.4908C298.962 88.6934 302.656 88.9661 307.516 86.0282C309.524 84.8134 311.445 83.6606 311.321 82.4582C311.061 80.1401 303.648 81.0946 301.057 76.5329C300.053 74.7974 299.781 72.3058 300.834 70.6324C303.003 67.1367 310.218 68.178 314.445 68.835C322.998 70.1737 327.659 73.062 332.295 74.8594C351.769 82.4705 371.231 71.4009 373.252 76.3097C373.822 77.7353 372.557 79.4831 371.677 80.6731C366.434 87.838 357.36 85.7803 345.472 88.7057C327.523 93.1063 323.432 103.866 307.974 103.643C302.966 103.569 298.851 102.379 298.38 100.408C297.971 98.6225 300.785 96.9739 300.264 94.0484V94.0608ZM275.509 85.2473C275.869 82.9416 281.36 81.9623 284.868 82.0119C289.219 82.0863 294.24 83.8341 294.24 85.582C294.24 87.838 286.083 90.0321 284.496 90.466C284.186 90.5527 284.05 90.5899 283.876 90.6023C279.91 91.2717 275.15 87.5529 275.509 85.2473ZM274.381 98.3994C277.666 98.6226 278.658 100.308 283.083 102.416C290.607 106.035 295.789 105.044 295.913 106.444C296.074 108.068 289.157 111.155 281.856 110.795C273.699 110.399 265.22 105.725 265.568 102.416C265.815 100.098 270.501 98.1515 274.381 98.3994ZM321.412 240.296C316.168 241.486 307.714 241.251 306.177 237.123C304.9 233.677 309.016 229.103 311.544 227.132C313.081 225.917 315.784 223.822 318.362 224.566C321.275 225.409 320.779 228.917 324.573 231.384C327.981 233.64 331.043 232.561 331.39 233.826C331.837 235.524 326.853 239.032 321.399 240.284L321.412 240.296ZM315.437 146.831C312.375 151.033 317.457 158.136 314.643 160.367C311.767 162.648 304.863 156.648 302.594 158.78C300.363 160.863 304.826 168.598 303.846 169.131C302.532 169.862 296.657 155.198 286.901 154.231C283.244 153.871 279.798 155.495 278.484 153.673C277.517 152.334 278.212 149.954 279.265 148.43C279.935 147.5 282.104 144.934 293.719 144.451C302.024 144.116 305.47 145.244 306.462 143.546C306.797 142.975 306.97 141.835 301.566 134.435C296.62 127.654 294.103 124.257 291.562 124.084C287.335 123.811 286.071 129.067 281.658 128.757C277.207 128.41 276.34 122.869 272.125 122.943C268.667 123.018 267.724 126.712 263.696 126.476C263.299 126.464 260.349 126.228 259.035 123.985C258.018 122.225 258.279 119.745 259.481 118.295C261.179 116.287 263.844 117.34 270.861 117.278C279.848 117.192 280.505 115.444 285.19 116.708C289.566 117.886 289.988 119.671 293.843 119.894C298.479 120.154 298.987 117.638 302.929 117.849C308.693 118.146 309.474 123.6 316.019 124.443C320.172 124.976 322.23 123.055 323.754 124.543C325.713 126.476 322.577 130.034 323.977 134.447C325.8 140.199 333.398 141.599 332.965 143.322C332.382 145.603 319.267 141.575 315.449 146.831H315.437ZM428.86 147.847C417.369 151.851 413.7 148.628 407.018 153.091C396.891 159.859 400.002 170.817 391.97 173.519C384.024 176.184 372.062 168.462 370.128 161.173C369.991 160.615 369.607 158.495 368.863 154.231C368.244 150.735 367.587 146.979 367.438 145.851C366.297 136.678 379.326 131.931 380.491 121.456C381.483 112.456 373.425 101.883 366.025 101.027C360.36 100.383 358.153 105.75 350.133 105.701C343.935 105.663 337.415 102.416 337.514 99.8869C337.613 97.135 345.596 96.3045 360.484 92.3749C389.081 84.8506 388.375 80.3384 400.052 80.7475C415.014 81.2557 419.179 88.6933 430.695 85.0117C438.393 82.5325 438.194 78.6898 446.586 76.7932C456.007 74.6487 458.474 79.0121 469.99 77.2147C478.593 75.8759 479.25 73.1116 485.72 73.5331C491.918 73.9297 493.009 76.5825 501.612 79.6443C513.921 84.0201 521.929 82.2722 522.313 84.5903C522.747 87.0695 513.549 87.5157 504.587 95.3748C494.41 104.312 491.695 116.547 486.154 115.803C483.873 115.506 482.969 113.237 479.907 113.399C477.229 113.535 474.093 115.494 473.957 117.502C473.647 122.125 489.092 124.976 488.708 127.877C488.299 131.162 468.304 125.745 449.004 135.662C439.806 140.385 439.235 144.265 428.872 147.872L428.86 147.847ZM491.038 159.078C484.481 160.342 476.461 156.338 476.188 152.384C476.027 150.128 478.419 147.897 480.415 146.868C485.473 144.215 488.795 148.69 496.133 147.004C500.633 145.988 501.414 143.856 504.736 144.389C508.566 144.996 512.012 148.578 511.417 150.5C510.934 152.148 507.823 151.454 502.393 153.264C495.674 155.52 495.612 158.21 491.038 159.078ZM531.548 206.455C531.276 211.686 525.735 215.442 520.863 215.827C515.855 216.223 510.376 213.162 510.339 210.41C510.326 208.538 512.818 208.228 518.409 203.505C523.169 199.476 523.789 197.617 525.797 197.753C528.797 197.964 531.772 202.414 531.548 206.455ZM552.907 223.054C543.734 226.202 532.664 220.822 532.528 216.806C532.404 213.236 541.007 212.095 541.403 206.629C541.651 203.232 538.614 199.985 537.288 198.559C533.916 194.964 531.486 195.386 530.557 192.807C529.515 189.894 531.152 185.382 534.833 183.597C537.499 182.333 541.329 182.432 542.878 184.428C544.639 186.684 542.135 189.609 544.192 193.464C544.589 194.196 545.382 195.051 546.994 196.749C550.254 200.208 551.047 200.059 551.915 201.683C553.651 204.856 551.494 207.063 552.907 208.749C555.324 211.6 563.034 206.778 564.571 208.749C566.158 210.794 561.311 220.153 552.907 223.054Z" fill="#0A96BC"/>
<path d="M511.43 150.525C510.947 152.173 507.835 151.479 502.406 153.289C495.687 155.545 495.625 158.235 491.051 159.103C484.493 160.367 476.473 156.363 476.201 152.409C476.039 150.153 478.432 147.921 480.428 146.893C485.485 144.24 488.807 148.715 496.146 147.029C500.645 146.012 501.426 143.88 504.749 144.413C508.579 145.021 512.025 148.603 511.43 150.525Z" fill="#A3C84E"/>
<path d="M206.848 130.133C205.918 133.046 192.84 126.861 179.13 131.571C173.069 133.666 169.957 136.839 165.036 135.414C161.106 134.273 157.66 130.654 158.317 128.683C159.272 125.807 168.631 127.505 168.879 125.968C169.151 124.394 159.879 118.716 151.909 121.332C148.115 122.584 145.45 125.423 142.302 124.208C142.178 124.171 140.021 123.303 139.587 121.493C138.756 118.146 144.397 114.291 145.822 113.324C150 110.485 157.574 107.213 166.486 109.01C174.42 110.597 173.515 114.217 181.535 116.374C192.654 119.349 202.447 114.539 203.947 117.812C204.554 119.126 203.042 120.03 203.302 122.931C203.699 127.245 207.306 128.621 206.835 130.146L206.848 130.133Z" fill="#A3C84E"/>
<path d="M229.582 120.353C225.033 121.022 219.963 118.035 219.975 115.717C219.988 114.266 222.033 112.704 223.818 112.667C225.343 112.655 225.95 113.758 227.351 114.427C231.677 116.522 237.144 111.415 237.912 112.345C238.643 113.225 235.247 119.51 229.582 120.34V120.353Z" fill="#A3C84E"/>
<path d="M255.279 161.755C253.06 162.251 252.193 158.272 248.114 156.871C243.007 155.111 238.123 159.189 236.747 157.318C236.078 156.413 236.784 154.876 236.97 154.479C238.371 151.429 242.635 150.896 244.135 150.723C249.478 150.054 257.015 152.037 257.895 156.301C258.366 158.52 257.015 161.359 255.279 161.755Z" fill="#A3C84E"/>
<path d="M294.252 85.582C294.252 87.838 286.095 90.0321 284.509 90.466C284.199 90.5527 284.062 90.5899 283.889 90.6023C279.922 91.2717 275.162 87.5529 275.522 85.2473C275.881 82.9416 281.373 81.9623 284.881 82.0119C289.232 82.0863 294.252 83.8341 294.252 85.582Z" fill="#A3C84E"/>
<path d="M295.926 106.469C296.087 108.093 289.17 111.18 281.868 110.82C273.712 110.424 265.233 105.75 265.58 102.441C265.828 100.122 270.514 98.1763 274.394 98.4242C277.679 98.6473 278.67 100.333 283.096 102.441C290.62 106.06 295.802 105.068 295.926 106.469Z" fill="#A3C84E"/>
<path d="M321.424 240.309C316.18 241.499 307.726 241.263 306.189 237.135C304.912 233.689 309.028 229.115 311.557 227.144C313.094 225.929 315.796 223.834 318.374 224.578C321.287 225.421 320.792 228.929 324.585 231.396C327.994 233.652 331.056 232.574 331.403 233.838C331.849 235.536 326.866 239.044 321.411 240.296L321.424 240.309Z" fill="#A3C84E"/>
<path d="M332.977 143.335C332.395 145.616 319.28 141.587 315.462 146.843C312.4 151.045 317.482 158.148 314.669 160.379C311.793 162.66 304.888 156.661 302.62 158.793C300.388 160.875 304.851 168.61 303.872 169.143C302.558 169.875 296.682 155.21 286.926 154.243C283.269 153.884 279.823 155.508 278.509 153.686C277.542 152.347 278.237 149.967 279.29 148.442C279.96 147.512 282.129 144.946 293.744 144.463C302.049 144.128 305.495 145.256 306.487 143.558C306.822 142.988 306.995 141.847 301.591 134.447C296.645 127.666 294.128 124.27 291.587 124.096C287.36 123.824 286.096 129.08 281.683 128.77C277.233 128.423 276.365 122.882 272.15 122.956C268.692 123.03 267.75 126.724 263.721 126.489C263.324 126.476 260.374 126.241 259.06 123.997C258.044 122.237 258.304 119.758 259.506 118.307C261.205 116.299 263.87 117.353 270.886 117.291C279.873 117.204 280.53 115.456 285.216 116.721C289.591 117.898 290.013 119.683 293.868 119.906C298.504 120.167 299.012 117.65 302.954 117.861C308.718 118.159 309.499 123.613 316.044 124.456C320.197 124.989 322.255 123.067 323.78 124.555C325.738 126.489 322.602 130.046 324.003 134.459C325.825 140.211 333.424 141.612 332.99 143.335H332.977Z" fill="#A3C84E"/>
<path d="M371.677 80.6855C366.434 87.8504 357.36 85.7927 345.472 88.7181C327.523 93.1187 323.432 103.878 307.974 103.655C302.966 103.581 298.851 102.391 298.38 100.42C297.971 98.6349 300.784 96.9863 300.264 94.0608C299.917 92.0155 298.355 91.6932 298.603 90.4908C298.962 88.6933 302.656 88.966 307.516 86.0282C309.524 84.8134 311.445 83.6606 311.321 82.4581C311.061 80.1401 303.648 81.0946 301.057 76.5329C300.053 74.7974 299.78 72.3058 300.834 70.6324C303.003 67.1367 310.218 68.178 314.445 68.835C322.998 70.1737 327.659 73.062 332.295 74.8594C351.769 82.4705 371.231 71.4009 373.251 76.3097C373.822 77.7353 372.557 79.4831 371.677 80.6731V80.6855Z" fill="#A3C84E"/>
<path d="M522.338 84.6027C522.772 87.0818 513.575 87.5281 504.612 95.3871C494.435 104.325 491.72 116.56 486.179 115.816C483.899 115.518 482.994 113.25 479.932 113.411C477.254 113.547 474.118 115.506 473.982 117.514C473.672 122.138 489.117 124.989 488.733 127.889C488.324 131.174 468.329 125.757 449.029 135.674C439.831 140.397 439.261 144.277 428.897 147.884C417.406 151.888 413.737 148.665 407.056 153.128C396.928 159.896 400.04 170.854 392.007 173.556C384.061 176.221 372.099 168.499 370.165 161.21C370.029 160.652 369.645 158.532 368.901 154.268C368.281 150.772 367.624 147.016 367.475 145.888C366.335 136.715 379.363 131.968 380.528 121.493C381.52 112.494 373.463 101.92 366.062 101.065C360.397 100.42 358.191 105.787 350.171 105.738C343.973 105.701 337.452 102.453 337.551 99.9241C337.651 97.1722 345.634 96.3416 360.521 92.4121C389.119 84.8877 388.412 80.3756 400.089 80.7847C415.051 81.2929 419.216 88.7305 430.732 85.0489C438.43 82.5697 438.232 78.7269 446.624 76.8303C456.045 74.6858 458.512 79.0493 470.027 77.2518C478.63 75.9131 479.287 73.1488 485.758 73.5702C491.956 73.9669 493.047 76.6196 501.65 79.6814C513.959 84.0572 521.967 82.3094 522.351 84.6274L522.338 84.6027Z" fill="#A3C84E"/>
<path d="M513.946 262.287C514.045 257.961 513.363 255.444 514.901 254.651C517.132 253.473 519.735 258.097 525.524 259.461C526.354 259.647 527.197 259.795 528.09 259.82C523.417 260.688 518.706 261.518 513.946 262.274V262.287Z" fill="#A3C84E"/>
<path d="M531.561 206.492C531.288 211.724 525.747 215.48 520.876 215.864C515.868 216.261 510.389 213.199 510.352 210.447C510.339 208.575 512.831 208.265 518.421 203.542C523.181 199.514 523.801 197.654 525.809 197.79C528.809 198.001 531.784 202.451 531.561 206.492Z" fill="#A3C84E"/>
<path d="M552.932 223.091C543.759 226.239 532.689 220.859 532.553 216.843C532.429 213.273 541.032 212.133 541.428 206.666C541.676 203.27 538.639 200.022 537.313 198.596C533.941 195.001 531.512 195.423 530.582 192.845C529.541 189.931 531.177 185.419 534.859 183.634C537.524 182.37 541.354 182.469 542.904 184.465C544.664 186.721 542.16 189.646 544.218 193.502C544.614 194.233 545.408 195.088 547.019 196.786C550.279 200.245 551.073 200.096 551.94 201.72C553.676 204.893 551.519 207.1 552.932 208.786C555.349 211.637 563.059 206.815 564.597 208.786C566.183 210.831 561.336 220.19 552.932 223.091Z" fill="#A3C84E"/>
<path d="M320.544 218.517C309.326 226.215 298.665 218.851 281.298 222.843C267.316 226.078 258.812 233.788 258.973 234.074C259.147 234.433 272.423 226.611 276.03 230.28C278.075 232.375 274.989 236.094 276.984 239.627C280.48 245.875 294.897 242.714 295.392 244.771C296.136 247.957 282.253 258.878 269.943 255.866C264.7 254.589 263.386 251.663 258.849 252.246C255.106 252.73 253.742 255.035 247.581 259.671C176.403 246.482 115.105 223.525 70.5415 194.196C86.0365 170.519 103.775 148.454 123.51 128.348C142.079 125.076 148.909 127.53 151.103 131.199C152.516 133.567 152.603 137.41 155.69 138.786C159.656 140.521 163.412 135.959 167.875 137.967C170.788 139.269 170.366 141.711 172.883 142.554C176.825 143.905 179.651 138.525 185.601 136.344C193.274 133.517 196.311 139.579 209.03 139.715C217.384 139.814 227.487 137.323 228.665 132.55C229.371 129.699 226.57 127.406 227.995 125.113C228.95 123.576 231.268 123.291 235.842 122.807C239.102 122.46 244.048 121.939 244.519 123.34C245.04 124.902 239.536 127.109 240.057 129.439C240.404 130.964 242.933 130.567 245.201 132.947C247.68 135.563 246.565 138.054 248.176 138.897C250.891 140.347 254.51 133.443 261.44 132.538C266.708 131.844 272.832 134.757 273.228 137.955C273.613 141.066 268.481 144.475 264.7 146.074C251.164 151.752 237.069 141.748 233.574 146.607C231.727 149.149 234.925 152.843 232.756 155C229.582 158.173 220.843 152.26 217.992 155.26C216.504 156.847 218.922 159.016 217.992 161.768C215.897 167.929 201.877 163.949 194.316 172.329C191.526 175.416 189.221 180.61 190.659 184.775C192.357 189.708 198.964 192.336 207.567 195.733C214.285 198.398 217.384 198.621 218.265 201.286C219.368 204.633 215.476 207.137 216.356 212.517C216.69 214.488 217.843 217.922 219.752 218.207C222.715 218.641 223.954 211.054 230.45 205.749C236.35 200.939 239.846 203.48 245.734 200.208C257.969 193.365 252.093 177.126 264.018 168.672C271.691 163.218 283.715 163.094 288.513 168.114C293.012 172.825 290.174 181.031 293.26 182.072C297.264 183.411 302.88 169.85 308.557 171.102C311.359 171.722 313.652 175.862 313.28 179.097C312.809 183.386 307.826 184.899 308.421 187.489C309.028 190.167 314.619 189.423 315.858 192.349C317.68 196.638 307.665 203.22 309.09 205.885C310.788 209.083 326.506 201.856 328.837 205.464C330.324 207.769 326.469 214.426 320.581 218.467L320.544 218.517Z" fill="#A3C84E"/>
<path d="M542.891 252.705C544.763 245.8 529.838 240.172 531.313 233.404C532.664 227.157 545.804 229.995 562.836 220.872C579.72 211.823 581.058 201.385 591.781 201.881C599.342 202.241 605.739 207.806 612.693 204.15C615.259 202.798 614.912 201.782 617.503 200.604C625.139 197.171 631.547 204.348 635.849 201.571C640.596 198.509 636.431 187.465 640.658 185.494C644.08 183.882 649.249 189.981 651.269 188.382C653.327 186.77 648.604 180.101 650.959 177.436C653.748 174.288 662.488 181.366 669.293 177.436C672.256 175.738 674.71 171.994 673.793 170.048C671.376 164.867 647.303 175.812 641.96 168.437C637.547 162.363 649.745 149.198 646.77 146.57C643.77 143.893 626.477 153.066 626.192 163.602C625.969 171.709 635.873 177.064 633.58 181.626C632.489 183.82 629.998 182.977 623.936 185.481C614.416 189.411 611.875 195.076 608.825 193.849C605.02 192.311 608.032 183.151 603.024 180.015C599.739 177.932 597.086 181.105 590.926 180.052C584.852 179.011 577.749 174.25 577.612 168.908C577.476 163.193 585.397 158.83 587.789 157.528C595.177 153.462 598.698 155.867 603.284 151.95C607.945 147.971 606.049 144.017 609.829 138.401C614.937 130.765 624.544 128.894 633.072 127.257C640.671 125.782 646.906 125.807 664.074 127.505C691.829 130.257 705.725 131.707 706.456 136.232C706.927 139.108 702.75 142.74 698.957 143.967C690.8 146.632 682.507 138.934 681.02 140.819C679.892 142.269 684.28 147.339 685.135 148.33C688.817 152.595 693.825 156.028 694.829 155.111C695.833 154.206 691.817 149.992 693.131 148.083C695.188 145.108 706.853 153.004 711.526 149.049C712.939 147.859 713.324 145.901 713.348 143.769C714.365 145.467 715.369 147.165 716.361 148.876C717.154 150.227 717.935 151.591 718.704 152.967C719.038 153.524 719.36 154.095 719.658 154.665C720.526 156.165 721.356 157.689 722.187 159.214C722.98 160.652 723.761 162.102 724.53 163.565C725.261 164.904 725.943 166.243 726.637 167.594C728.038 170.271 729.401 172.998 730.74 175.726C687.168 212.616 619.139 241.784 537.449 258.035C540.201 256.733 542.308 254.849 542.879 252.705H542.891Z" fill="#A3C84E"/>
<path d="M755.42 150.847C748.392 159.487 740.148 167.78 730.752 175.726C729.413 172.986 728.05 170.271 726.649 167.594C725.955 166.243 725.261 164.892 724.542 163.565C723.786 162.115 723.005 160.652 722.199 159.214C721.368 157.689 720.538 156.165 719.67 154.665C719.373 154.095 719.05 153.524 718.716 152.967C717.96 151.603 717.179 150.227 716.373 148.876C715.381 147.165 714.377 145.467 713.361 143.769C694.903 113.027 672.714 84.8134 647.389 59.7239C681.602 80.0161 712.741 104.957 739.938 133.641C745.231 139.232 750.388 144.984 755.42 150.847Z" fill="#0082B4"/>
</svg>
