<svg width="189" height="159" viewBox="0 0 189 159" fill="none" xmlns="http://www.w3.org/2000/svg">
<path d="M125.36 44.5239L132.85 40.4239C133.24 40.2139 133.48 39.8039 133.47 39.3639L133.28 1.19391C133.28 0.263909 132.25 -0.306091 131.46 0.173909L129.18 1.56391L125.35 44.5139L125.36 44.5239Z" fill="#214347"/>
<path d="M101.53 57.5739L125.36 44.5239L129.19 1.57391L122.97 5.37391C122.76 5.50391 122.6 5.68391 122.5 5.90391L99.8598 56.0239C99.3898 57.0739 100.52 58.1239 101.53 57.5739Z" fill="#D3D3D3"/>
<path d="M49.0098 84.2339L50.9398 83.0239C51.2898 82.8039 51.4998 82.4139 51.4998 82.0039L51.4598 74.2139C51.4598 73.2339 50.3298 72.6739 49.5498 73.2539L49.1498 73.5539L49.0098 84.2339Z" fill="#214347"/>
<path d="M37.3798 88.8939C36.7698 89.9739 38.0098 91.1539 39.0598 90.4939L48.9898 84.2439L49.1298 73.5539L43.9098 77.4439C43.7798 77.5439 43.6598 77.6739 43.5798 77.8139L37.3698 88.8839L37.3798 88.8939Z" fill="#A5A4A4"/>
<path d="M35.0698 93.0039V93.0139" stroke="#BE1622" stroke-miterlimit="10"/>
<path d="M35.0698 93.0039V93.0139" stroke="#BE1622" stroke-miterlimit="10"/>
<path d="M0 78.3939L27.47 97.7339L31.52 95.3939L3.4 75.8939L0 78.3939Z" fill="#2F5C63"/>
<path d="M3.3999 75.8939L31.5199 95.3939H31.5299L49.8399 84.8439L9.8799 71.1439L3.3999 75.8939Z" fill="#ECECEC"/>
<path d="M31.52 95.3939H31.53" stroke="#BE1622" stroke-miterlimit="10"/>
<path d="M176.78 29.2739C177.58 28.4739 178.86 27.6539 180.83 27.3539C183.35 26.9639 186.15 28.8439 188 30.4339C188.57 26.5839 186.75 24.8239 186.75 24.8239C184.54 22.2839 181.5 21.5639 177.96 21.4039C177.07 23.3339 176.14 26.2639 176.77 29.2639L176.78 29.2739Z" fill="#2F5C63"/>
<path d="M178.96 33.5939C179.36 34.0539 179.76 34.4639 180.16 34.8339C181.83 36.3939 183.48 37.2339 184.95 37.6439C186.88 34.7139 187.73 32.3339 188.01 30.4439C186.15 28.8539 183.35 26.9739 180.84 27.3639C178.87 27.6639 177.59 28.4839 176.79 29.2839C177.09 30.7439 177.76 32.2139 178.97 33.5939H178.96Z" fill="#214347"/>
<path d="M28.6699 103.584C39.9299 102.634 53.8599 101.314 64.6099 99.8439C86.1699 96.8839 155.82 65.1939 174.94 48.5339C179.8 44.2939 182.96 40.6739 184.96 37.6439C183.49 37.2239 181.84 36.3939 180.17 34.8339C177.91 37.7939 170.71 46.3539 157.99 53.7739C142.31 62.9139 78.4099 92.1739 64.4399 95.2139C55.2499 97.2139 36.0099 99.1639 23.9199 100.264C24.4499 102.204 26.1899 103.794 28.6799 103.584H28.6699Z" fill="#A5A4A4"/>
<path d="M23.9099 100.264C35.9999 99.1639 55.2399 97.2139 64.4299 95.2139C78.3999 92.1739 142.3 62.9139 157.98 53.7739C170.7 46.3539 177.9 37.7839 180.16 34.8339C179.76 34.4639 179.36 34.0539 178.96 33.5939C177.75 32.2039 177.08 30.7339 176.78 29.2839C176.15 26.2839 177.08 23.3539 177.97 21.4239C173.66 21.2439 168.62 21.8939 163.45 21.1539C154.04 19.8139 140.36 29.0239 140.36 29.0239L26.0199 95.1239C23.9799 96.3039 23.4099 98.4339 23.9199 100.254L23.9099 100.264Z" fill="#ECECEC"/>
<path d="M158.69 35.2739C159.51 36.2139 160.82 36.4539 161.61 35.7639C162.87 34.6639 164.71 33.0139 166.46 31.2739C168.78 28.9839 170.94 26.5539 171.45 25.0539C171.5 24.9039 171.55 24.7539 171.58 24.6039C171.92 23.3939 171.95 22.3039 171.86 21.4339H167.79C167.91 22.2539 167.84 23.1939 167.21 24.0639C167.21 24.0639 167.2 24.0839 167.18 24.0939C166.52 24.9939 164.62 26.8239 162.67 28.6339C161.16 30.0139 159.63 31.3839 158.59 32.3039C157.86 32.9439 157.85 34.1639 158.56 35.1139C158.6 35.1639 158.65 35.2239 158.69 35.2739Z" fill="white"/>
<mask id="mask0_28_1009" style="mask-type:luminance" maskUnits="userSpaceOnUse" x="158" y="21" width="14" height="16">
<path d="M158.69 35.2739C159.51 36.2139 160.82 36.4539 161.61 35.7639C162.87 34.6639 164.71 33.0139 166.46 31.2739C168.78 28.9839 170.94 26.5539 171.45 25.0539C171.5 24.9039 171.55 24.7539 171.58 24.6039C171.92 23.3939 171.95 22.3039 171.86 21.4339H167.79C167.91 22.2539 167.84 23.1939 167.21 24.0639C167.21 24.0639 167.2 24.0839 167.18 24.0939C166.52 24.9939 164.62 26.8239 162.67 28.6339C161.16 30.0139 159.63 31.3839 158.59 32.3039C157.86 32.9439 157.85 34.1639 158.56 35.1139C158.6 35.1639 158.65 35.2239 158.69 35.2739Z" fill="white"/>
</mask>
<g mask="url(#mask0_28_1009)">
<path d="M166.13 23.8739C166.13 23.8739 170.01 24.1939 172.54 24.1139" stroke="#ECECEC" stroke-miterlimit="10"/>
<path d="M162.95 26.8539C162.95 26.8539 166.8 30.7039 167.59 31.0239" stroke="#ECECEC" stroke-miterlimit="10"/>
</g>
<path d="M144.63 59.5339L137.66 62.8539C137.16 63.0939 136.57 62.9539 136.22 62.5339L134.64 60.6139C132.51 58.0139 130.77 55.1239 129.47 52.0239L128.54 49.7939C128.31 49.2439 128.52 48.6139 129.03 48.3039L136.09 44.0539C136.75 43.6639 137.6 43.9739 137.84 44.6939L138.76 47.3939C139.84 50.5739 141.51 53.5139 143.68 56.0739L145.03 57.6639C145.54 58.2639 145.34 59.1839 144.63 59.5239V59.5339Z" fill="#2F5C63"/>
<path d="M124.694 58.4113L124.703 58.406C125.627 57.8216 125.903 56.5987 125.318 55.6743L124.394 54.212C123.81 53.2877 122.587 53.0121 121.662 53.5964L121.654 53.6018C120.73 54.1861 120.454 55.4091 121.038 56.3334L121.963 57.7957C122.547 58.72 123.77 58.9956 124.694 58.4113Z" fill="white"/>
<path d="M118.445 61.8808L118.454 61.8755C119.378 61.2911 119.654 60.0681 119.069 59.1438L118.145 57.6815C117.561 56.7572 116.338 56.4816 115.413 57.0659L115.405 57.0713C114.481 57.6556 114.205 58.8786 114.789 59.8029L115.714 61.2652C116.298 62.1895 117.521 62.4651 118.445 61.8808Z" fill="white"/>
<path d="M110.948 65.5111L110.957 65.5057C111.881 64.9214 112.157 63.6984 111.572 62.7741L110.648 61.3118C110.064 60.3875 108.841 60.1119 107.916 60.6962L107.908 60.7015C106.984 61.2859 106.708 62.5089 107.292 63.4332L108.217 64.8955C108.801 65.8198 110.024 66.0954 110.948 65.5111Z" fill="white"/>
<path d="M104.616 68.9709L104.624 68.9656C105.549 68.3812 105.824 67.1582 105.24 66.2339L104.315 64.7716C103.731 63.8473 102.508 63.5717 101.584 64.156L101.575 64.1614C100.651 64.7457 100.375 65.9687 100.96 66.893L101.884 68.3553C102.468 69.2796 103.691 69.5552 104.616 68.9709Z" fill="white"/>
<path d="M98.0005 72.0301L98.009 72.0248C98.9333 71.4404 99.2089 70.2174 98.6246 69.2931L97.7002 67.8308C97.1158 66.9065 95.8928 66.6309 94.9685 67.2152L94.9601 67.2206C94.0358 67.8049 93.7601 69.0279 94.3445 69.9522L95.2689 71.4145C95.8532 72.3388 97.0762 72.6144 98.0005 72.0301Z" fill="white"/>
<path d="M91.5635 75.2987L91.572 75.2933C92.4963 74.709 92.7719 73.486 92.1876 72.5617L91.2632 71.0994C90.6788 70.1751 89.4558 69.8994 88.5315 70.4838L88.5231 70.4891C87.5987 71.0734 87.3231 72.2964 87.9075 73.2208L88.8319 74.6831C89.4162 75.6074 90.6392 75.883 91.5635 75.2987Z" fill="white"/>
<path d="M85.7393 78.7426L85.7478 78.7372C86.6721 78.1529 86.9477 76.9299 86.3634 76.0056L85.4389 74.5433C84.8546 73.619 83.6316 73.3434 82.7073 73.9277L82.6988 73.933C81.7745 74.5174 81.4989 75.7404 82.0832 76.6647L83.0077 78.127C83.592 79.0513 84.815 79.3269 85.7393 78.7426Z" fill="white"/>
<path d="M79.7764 81.5396L79.7849 81.5342C80.7092 80.9499 80.9848 79.7269 80.4005 78.8026L79.476 77.3403C78.8917 76.416 77.6687 76.1403 76.7444 76.7247L76.736 76.73C75.8116 77.3143 75.536 78.5373 76.1204 79.4616L77.0448 80.924C77.6291 81.8483 78.8521 82.1239 79.7764 81.5396Z" fill="white"/>
<path d="M73.8433 84.7475L73.8518 84.7422C74.7761 84.1579 75.0517 82.9349 74.4674 82.0106L73.5429 80.5483C72.9586 79.624 71.7356 79.3483 70.8113 79.9327L70.8029 79.938C69.8785 80.5223 69.6029 81.7453 70.1873 82.6696L71.1117 84.132C71.696 85.0563 72.919 85.3319 73.8433 84.7475Z" fill="white"/>
<path d="M67.1065 87.7633L67.115 87.758C68.0393 87.1737 68.3149 85.9507 67.7306 85.0263L66.8061 83.564C66.2218 82.6397 64.9988 82.3641 64.0745 82.9484L64.066 82.9538C63.1417 83.5381 62.8661 84.7611 63.4504 85.6854L64.3749 87.1477C64.9592 88.072 66.1822 88.3477 67.1065 87.7633Z" fill="white"/>
<path d="M23.0103 120.384L26.7003 119.204C26.9203 119.134 27.1103 119.004 27.2603 118.824L47.0703 94.9939C47.8803 94.0139 46.8203 92.6139 45.6603 93.1339L41.2503 95.1039L23.0203 120.384H23.0103Z" fill="#2F5C63"/>
<path d="M17.6901 122.084L23.0201 120.374L41.2501 95.0939L28.7101 100.694C28.4901 100.794 28.3101 100.954 28.1801 101.154L16.3001 120.304C15.7101 121.254 16.6201 122.414 17.6901 122.074V122.084Z" fill="#ECECEC"/>
<path d="M52.9602 158.014L63.5302 154.194L114.76 69.0439L87.1602 82.5939C86.9202 82.7139 86.7202 82.9039 86.6102 83.1539L51.4702 156.374C51.0102 157.344 51.9502 158.384 52.9602 158.024V158.014Z" fill="#ECECEC"/>
<path d="M63.5303 154.204L69.3403 152.104C69.5903 152.014 69.8003 151.844 69.9503 151.614L96.8203 109.014L104.22 97.2839L110.99 86.5439L123.02 67.4739C123.66 66.4539 122.56 65.2239 121.48 65.7539L114.78 69.0339L63.5503 154.194L63.5303 154.204Z" fill="#2F5C63"/>
<path d="M119.18 100.544C120.12 100.654 121.05 100.704 121.8 100.734C123.4 98.6539 125.65 94.3339 121.65 89.7439C120.07 87.9339 118.45 86.9339 116.94 86.4239C115.84 86.7639 114.32 87.4139 112.94 88.6639C114.08 88.7639 116.44 89.2839 118.68 91.8539C121.04 94.5639 119.87 98.7239 119.17 100.544H119.18Z" fill="#467A80"/>
<path d="M107 101.734C111.72 107.154 117.04 104.584 119.4 102.974C119.47 102.934 119.53 102.884 119.59 102.834C119.93 102.584 120.19 102.374 120.37 102.234C120.55 102.084 120.64 102.014 120.64 102.014C120.64 102.014 121.16 101.544 121.79 100.734C121.04 100.704 120.11 100.644 119.17 100.544C118.04 100.414 116.92 100.204 116.11 99.8739C113.92 98.9839 109.74 93.9139 111.41 90.5039C110.98 91.2039 108.38 95.4539 105.72 100.104C106.08 100.634 106.51 101.174 107 101.734Z" fill="#2F5C63"/>
<path d="M112.8 96.8439C113.05 95.8139 113.36 94.4539 113.55 93.2939C113.78 91.8839 115.41 90.6839 116.56 89.9839C115.07 89.0039 113.72 88.7339 112.94 88.6639C112.55 89.0139 112.17 89.4139 111.82 89.8639C111.68 90.0339 111.57 90.2139 111.48 90.4039C111.48 90.4039 111.48 90.4239 111.46 90.4539C111.45 90.4639 111.44 90.4939 111.42 90.5139C110.48 92.4539 111.42 94.9139 112.8 96.8439Z" fill="#A5A4A4"/>
<path d="M105.73 100.104C108.39 95.4539 110.99 91.2039 111.42 90.5039C111.43 90.4839 111.44 90.4539 111.46 90.4439C111.47 90.4139 111.48 90.3939 111.48 90.3939C111.57 90.2139 111.69 90.0339 111.82 89.8539C112.17 89.4039 112.55 89.0039 112.94 88.6539C114.32 87.4139 115.84 86.7539 116.94 86.4139C114.43 85.5639 112.22 86.0739 110.98 86.5239L104.21 97.2639C104.54 98.1439 105.02 99.0839 105.72 100.084L105.73 100.104Z" fill="#214347"/>
<path d="M100.45 110.024C101.89 110.134 103.63 109.984 105.75 109.434C112.39 107.704 117.25 104.564 119.41 102.984C117.05 104.594 111.73 107.154 107.01 101.744C106.52 101.184 106.1 100.644 105.73 100.114C103.69 103.664 101.62 107.444 100.46 110.034L100.45 110.024Z" fill="#ECECEC"/>
<path d="M96.8101 109.014C97.7101 109.514 98.9001 109.914 100.45 110.024C101.61 107.434 103.69 103.654 105.72 100.104C105.02 99.1039 104.53 98.1539 104.21 97.2839L96.8101 109.014Z" fill="#A5A4A4"/>
<path d="M116.12 99.8739C116.93 100.214 118.05 100.414 119.18 100.544C119.88 98.7239 121.05 94.5739 118.69 91.8539C118.17 91.2639 117.65 90.7839 117.13 90.3839C116.94 90.2339 116.75 90.0939 116.56 89.9739C115.41 90.6639 113.78 91.8739 113.55 93.2839C113.36 94.4439 113.05 95.8039 112.8 96.8339C112.9 96.9739 113 97.1039 113.1 97.2339C114.1 98.5239 115.26 99.5139 116.12 99.8639V99.8739Z" fill="#F1F7EF"/>
</svg>
