<svg width="136" height="354" viewBox="0 0 136 354" fill="none" xmlns="http://www.w3.org/2000/svg">
<g clip-path="url(#clip0_154_1491)" filter="url(#filter0_d_154_1491)">
<path d="M33.1981 82.5802C32.909 82.8693 32.733 83.2589 32.733 83.6863C32.733 84.5661 33.4369 85.27 34.3168 85.27H35.5988V99.2093H33.1101C32.268 99.2093 31.5892 99.8881 31.5892 100.73C31.5892 101.572 32.268 102.251 33.1101 102.251H35.5988V105.243H34.5304C34.0779 105.243 33.6757 105.419 33.3741 105.72C33.0724 106.009 32.8964 106.424 32.8964 106.877C32.8964 107.782 33.6254 108.511 34.5304 108.511H35.5988V118.34H28.8868C28.4846 118.34 28.095 118.377 27.7053 118.465V71.4313H35.5863V82.1026H34.3042C33.8643 82.1026 33.462 82.2785 33.1855 82.5676L33.1981 82.5802Z" fill="#3A5A62"/>
<path d="M41.7454 71.4438V118.516C41.318 118.403 40.8781 118.34 40.4256 118.34H35.6116V108.511H36.0641C36.5166 108.511 36.9188 108.322 37.2204 108.033C37.5221 107.744 37.6981 107.317 37.6981 106.877C37.6981 105.972 36.9691 105.243 36.0641 105.243H35.6116V102.251H36.5668C37.409 102.251 38.0877 101.572 38.0877 100.73C38.0877 99.8881 37.409 99.2094 36.5668 99.2094H35.6116V85.27H36.504C36.9313 85.27 37.3336 85.0941 37.6101 84.805C37.8866 84.5159 38.0752 84.1262 38.0752 83.6863C38.0752 82.819 37.3713 82.1152 36.504 82.1152H35.6116V71.4438H41.7454Z" fill="#53797E"/>
<path d="M41.7453 129.2V195.653C41.318 195.54 40.878 195.477 40.4255 195.477H28.8995C28.4973 195.477 28.1077 195.515 27.718 195.603V163.841H29.352C30.169 163.841 30.8226 163.187 30.8226 162.37C30.8226 161.553 30.169 160.899 29.352 160.899H27.718V147.123H30.7975C31.6271 147.123 32.2932 146.445 32.2932 145.628C32.2932 144.811 31.6271 144.132 30.7975 144.132H27.718V140.701H29.6285C30.4078 140.701 31.0363 140.072 31.0363 139.293C31.0363 138.513 30.4078 137.885 29.6285 137.885H27.718V129.25C28.0951 129.338 28.4847 129.376 28.8995 129.376H40.4255C40.878 129.376 41.3305 129.313 41.7453 129.2Z" fill="#739193"/>
<path d="M35.7246 206.501V224.713H28.8995C28.4973 224.713 28.1077 224.751 27.718 224.839V206.375C28.0951 206.463 28.4847 206.501 28.8995 206.501H35.7246Z" fill="#3A5A62"/>
<path d="M41.7454 206.325V224.864C41.3181 224.764 40.8781 224.701 40.4256 224.701H35.7373V206.488H40.4256C40.8781 206.488 41.3306 206.425 41.7454 206.312V206.325Z" fill="#739193"/>
<path d="M45.931 275.682C45.931 277.203 45.3151 278.585 44.3095 279.578C43.6057 280.27 42.7258 280.785 41.7328 281.024C41.3055 281.124 40.8656 281.187 40.4131 281.187H28.887C28.4848 281.187 28.0952 281.15 27.7055 281.062C25.2294 280.521 23.3691 278.321 23.3691 275.682C23.3691 274.161 23.985 272.778 24.9906 271.785C25.7196 271.056 26.6623 270.528 27.7055 270.302C28.0826 270.214 28.4723 270.177 28.887 270.177H40.4131C40.8656 270.177 41.3181 270.239 41.7328 270.353C44.1336 270.943 45.9184 273.105 45.9184 275.694L45.931 275.682Z" fill="#53797E"/>
<path d="M41.7453 235.548V270.34C41.318 270.227 40.878 270.164 40.4255 270.164H28.8995C28.4973 270.164 28.1077 270.202 27.718 270.29V235.586C28.0951 235.674 28.4847 235.712 28.8995 235.712H40.4255C40.878 235.712 41.3305 235.649 41.7453 235.536V235.548Z" fill="#739193"/>
<path d="M35.6116 281.187V346.007H27.7307V323.319H29.2139C29.6664 323.319 30.0686 323.131 30.3703 322.842C30.6594 322.553 30.8479 322.138 30.8479 321.685C30.8479 320.78 30.1189 320.051 29.2139 320.051H27.7307V307.143H32.0923C32.5447 307.143 32.947 306.954 33.2486 306.665C33.5503 306.376 33.7263 305.961 33.7263 305.509C33.7263 304.604 32.9972 303.875 32.0923 303.875H27.7307V300.72H30.2948C31.137 300.72 31.8157 300.041 31.8157 299.199C31.8157 298.357 31.137 297.678 30.2948 297.678H27.7307V281.062C28.1078 281.15 28.4974 281.187 28.9122 281.187H35.6242H35.6116Z" fill="#3A5A62"/>
<path d="M41.7454 281.024V346.007H35.6116V281.187H40.4256C40.8781 281.187 41.3306 281.124 41.7454 281.024Z" fill="#53797E"/>
<path d="M35.7246 224.927C35.2344 224.776 34.7191 224.714 34.1912 224.714H28.8995C28.4973 224.714 28.1076 224.751 27.718 224.839C26.6747 225.065 25.732 225.581 25.003 226.322C24.0101 227.315 23.3816 228.698 23.3816 230.219C23.3816 232.858 25.2418 235.071 27.718 235.598C28.0951 235.686 28.4847 235.724 28.8995 235.724H34.1912C35.712 235.724 37.0947 235.108 38.0876 234.103C39.0806 233.097 39.7091 231.727 39.7091 230.206C39.7091 227.692 38.0248 225.581 35.7372 224.927H35.7246ZM35.8629 230.747C35.4481 231.149 34.8825 231.413 34.2414 231.413H28.8367C28.4344 231.413 28.0448 231.3 27.7054 231.111C27.0141 230.722 26.549 229.98 26.549 229.125C26.549 228.497 26.813 227.919 27.2152 227.504C27.366 227.366 27.5295 227.24 27.7054 227.139C28.0322 226.951 28.4219 226.838 28.8367 226.838H34.2414C35.4984 226.838 36.5165 227.856 36.5165 229.113C36.5165 229.741 36.2651 230.319 35.8503 230.734L35.8629 230.747Z" fill="#3A5A62"/>
<path d="M36.5293 229.138C36.5293 229.766 36.2779 230.345 35.8631 230.759C35.4484 231.162 34.8827 231.425 34.2417 231.425H28.8369C28.4347 231.425 28.0451 231.312 27.7057 231.124C27.0144 230.734 26.5493 229.993 26.5493 229.138C26.5493 228.509 26.8133 227.931 27.2155 227.516C27.3663 227.378 27.5297 227.252 27.7057 227.152C28.0325 226.963 28.4221 226.85 28.8369 226.85H34.2417C35.4986 226.85 36.5167 227.868 36.5167 229.125L36.5293 229.138Z" fill="#739193"/>
<path d="M45.931 200.983C45.931 202.504 45.3151 203.886 44.3095 204.879C43.6057 205.583 42.7258 206.086 41.7328 206.325C41.3055 206.438 40.8656 206.501 40.4131 206.501H28.887C28.4848 206.501 28.0952 206.463 27.7055 206.375C25.2294 205.834 23.3691 203.635 23.3691 200.995C23.3691 199.474 23.985 198.092 24.9906 197.099C25.7196 196.37 26.6623 195.842 27.7055 195.616C28.0826 195.528 28.4723 195.49 28.887 195.49H40.4131C40.8656 195.49 41.3181 195.553 41.7328 195.666C44.1336 196.257 45.9184 198.419 45.9184 201.008L45.931 200.983Z" fill="#53797E"/>
<path d="M35.6119 118.528C35.1719 118.403 34.7194 118.352 34.2418 118.352H28.9124C28.5102 118.352 28.1206 118.39 27.7309 118.478C26.6877 118.704 25.745 119.232 25.016 119.961C24.023 120.954 23.3945 122.337 23.3945 123.845C23.3945 126.485 25.2548 128.697 27.7309 129.225C28.108 129.313 28.4977 129.35 28.9124 129.35H34.2418C35.7627 129.35 37.1453 128.735 38.1383 127.729C39.1313 126.736 39.7472 125.353 39.7472 123.833C39.7472 121.268 37.9875 119.107 35.6119 118.503V118.528ZM36.1272 125.592C35.6747 126.032 35.0714 126.309 34.3926 126.309H28.7616C28.3971 126.309 28.0452 126.233 27.7309 126.082C26.8888 125.693 26.3106 124.838 26.3106 123.858C26.3106 123.179 26.5871 122.576 27.027 122.123C27.2282 121.922 27.467 121.759 27.7309 121.633C28.0452 121.482 28.3971 121.407 28.7616 121.407H34.3926C35.7501 121.407 36.8436 122.5 36.8436 123.845C36.8436 124.524 36.5671 125.14 36.1272 125.58V125.592Z" fill="#3A5A62"/>
<path d="M36.8309 123.858C36.8309 124.536 36.5544 125.152 36.1144 125.592C35.662 126.032 35.0586 126.309 34.3799 126.309H28.7489C28.3844 126.309 28.0324 126.233 27.7182 126.082C26.876 125.693 26.2979 124.838 26.2979 123.858C26.2979 123.179 26.5744 122.576 27.0143 122.123C27.2154 121.922 27.4542 121.759 27.7182 121.633C28.0324 121.482 28.3844 121.407 28.7489 121.407H34.3799C35.7374 121.407 36.8309 122.5 36.8309 123.845V123.858Z" fill="#739193"/>
<path d="M45.931 123.858C45.931 125.379 45.3151 126.761 44.3096 127.754C43.6057 128.458 42.7258 128.961 41.7329 129.2C41.3055 129.313 40.8656 129.376 40.4131 129.376H34.229C35.7499 129.376 37.1325 128.76 38.1255 127.754C39.1185 126.761 39.7343 125.379 39.7343 123.858C39.7343 121.294 37.9746 119.132 35.5991 118.528C35.1591 118.403 34.7066 118.352 34.229 118.352H40.4131C40.8656 118.352 41.3181 118.415 41.7329 118.528C44.1336 119.119 45.9184 121.281 45.9184 123.858H45.931Z" fill="#53797E"/>
<path d="M45.9309 230.206C45.9309 231.727 45.315 233.11 44.3094 234.103C43.6055 234.807 42.7257 235.309 41.7327 235.548C41.3054 235.661 40.8654 235.724 40.4129 235.724H34.1912C35.712 235.724 37.0947 235.108 38.0876 234.103C39.0806 233.097 39.7091 231.727 39.7091 230.206C39.7091 227.692 38.0248 225.581 35.7372 224.927C35.247 224.776 34.7316 224.714 34.2037 224.714H40.4255C40.878 224.714 41.3305 224.776 41.7453 224.877C44.146 225.468 45.9309 227.63 45.9309 230.219V230.206Z" fill="#53797E"/>
<path d="M38.075 83.6863C38.075 84.1262 37.899 84.5284 37.6099 84.805C37.3208 85.0815 36.9312 85.27 36.5038 85.27H34.3293C33.4495 85.27 32.7456 84.5662 32.7456 83.6863C32.7456 83.2464 32.9216 82.8567 33.2107 82.5802C33.4998 82.2911 33.8894 82.1151 34.3293 82.1151H36.5038C37.3711 82.1151 38.075 82.819 38.075 83.6863Z" fill="#739193"/>
<path d="M38.0752 100.73C38.0752 101.572 37.3965 102.251 36.5543 102.251H33.1229C32.2808 102.251 31.6021 101.572 31.6021 100.73C31.6021 99.8881 32.2808 99.2094 33.1229 99.2094H36.5543C37.3965 99.2094 38.0752 99.8881 38.0752 100.73Z" fill="#739193"/>
<path d="M37.6981 106.889C37.6981 107.342 37.5221 107.744 37.2204 108.046C36.9188 108.347 36.5166 108.523 36.0641 108.523H34.5432C33.6382 108.523 32.9092 107.782 32.9092 106.889C32.9092 106.437 33.0851 106.034 33.3868 105.733C33.6759 105.431 34.0907 105.255 34.5432 105.255H36.0641C36.9691 105.255 37.6981 105.984 37.6981 106.889Z" fill="#739193"/>
<path d="M31.049 139.28C31.049 140.059 30.4205 140.688 29.6412 140.688H27.7307V137.86H29.6412C30.4205 137.86 31.049 138.488 31.049 139.268V139.28Z" fill="#3A5A62"/>
<path d="M32.3059 145.628C32.3059 146.457 31.6398 147.123 30.8102 147.123H27.7307V144.132H30.8102C31.6398 144.132 32.3059 144.798 32.3059 145.628Z" fill="#3A5A62"/>
<path d="M30.8353 162.37C30.8353 163.187 30.1817 163.841 29.3647 163.841H27.7307V160.899H29.3647C30.1817 160.899 30.8353 161.553 30.8353 162.37Z" fill="#3A5A62"/>
<path d="M31.8157 299.199C31.8157 300.041 31.137 300.72 30.2948 300.72H27.7307V297.666H30.2948C31.137 297.666 31.8157 298.344 31.8157 299.186V299.199Z" fill="#739193"/>
<path d="M33.7263 305.521C33.7263 305.974 33.5377 306.376 33.2486 306.678C32.9595 306.979 32.5447 307.155 32.0923 307.155H27.7307V303.887H32.0923C32.9972 303.887 33.7263 304.616 33.7263 305.521Z" fill="#739193"/>
<path d="M30.8352 321.685C30.8352 322.138 30.6467 322.54 30.3576 322.842C30.0685 323.131 29.6537 323.319 29.2012 323.319H27.718V320.051H29.2012C30.1062 320.051 30.8352 320.78 30.8352 321.685Z" fill="#739193"/>
<path d="M103.41 206.501V224.713H110.236C110.638 224.713 111.027 224.751 111.417 224.839V206.375C111.04 206.463 110.65 206.501 110.236 206.501H103.41Z" fill="#3A5A62"/>
<path d="M97.4023 206.325V224.864C97.8297 224.764 98.2696 224.701 98.7221 224.701H103.41V206.488H98.7221C98.2696 206.488 97.8171 206.425 97.4023 206.312V206.325Z" fill="#739193"/>
<path d="M93.2166 275.682C93.2166 277.203 93.8324 278.585 94.838 279.578C95.5419 280.27 96.4217 280.785 97.4147 281.024C97.842 281.124 98.282 281.187 98.7345 281.187H110.26C110.663 281.187 111.052 281.149 111.442 281.061C113.918 280.521 115.778 278.321 115.778 275.682C115.778 274.161 115.162 272.778 114.157 271.785C113.428 271.056 112.485 270.528 111.442 270.302C111.065 270.214 110.675 270.176 110.26 270.176H98.7345C98.282 270.176 97.8295 270.239 97.4147 270.352C95.014 270.943 93.2291 273.105 93.2291 275.694L93.2166 275.682Z" fill="#53797E"/>
<path d="M97.4023 235.548V270.34C97.8297 270.227 98.2696 270.164 98.7221 270.164H110.248C110.65 270.164 111.04 270.202 111.43 270.29V235.586C111.053 235.674 110.663 235.711 110.248 235.711H98.7221C98.2696 235.711 97.8171 235.649 97.4023 235.536V235.548Z" fill="#739193"/>
<path d="M103.536 281.187V346.007H111.417V323.319H109.934C109.481 323.319 109.079 323.131 108.777 322.842C108.488 322.553 108.3 322.138 108.3 321.685C108.3 320.78 109.029 320.051 109.934 320.051H111.417V307.143H107.055C106.603 307.143 106.201 306.954 105.899 306.665C105.597 306.376 105.421 305.961 105.421 305.509C105.421 304.604 106.15 303.875 107.055 303.875H111.417V300.72H108.853C108.011 300.72 107.332 300.041 107.332 299.199C107.332 298.357 108.011 297.678 108.853 297.678H111.417V281.061C111.04 281.149 110.65 281.187 110.235 281.187H103.523H103.536Z" fill="#3A5A62"/>
<path d="M97.4023 281.024V346.007H103.536V281.187H98.7221C98.2696 281.187 97.8171 281.124 97.4023 281.024Z" fill="#53797E"/>
<path d="M99.4382 230.206C99.4382 231.727 100.054 233.11 101.06 234.103C102.065 235.096 103.435 235.724 104.956 235.724H110.248C110.65 235.724 111.04 235.686 111.429 235.598C113.905 235.058 115.766 232.858 115.766 230.219C115.766 228.698 115.15 227.315 114.144 226.322C113.415 225.593 112.473 225.078 111.429 224.839C111.052 224.751 110.663 224.713 110.248 224.713H104.956C104.428 224.713 103.913 224.789 103.423 224.927C101.123 225.581 99.4508 227.705 99.4508 230.206H99.4382ZM102.618 229.125C102.618 227.868 103.636 226.85 104.893 226.85H110.298C110.7 226.85 111.09 226.963 111.429 227.152C111.605 227.252 111.769 227.378 111.92 227.516C112.322 227.931 112.586 228.509 112.586 229.138C112.586 229.98 112.121 230.734 111.429 231.124C111.103 231.312 110.713 231.425 110.298 231.425H104.893C104.265 231.425 103.687 231.161 103.272 230.759C102.857 230.344 102.606 229.766 102.606 229.138L102.618 229.125Z" fill="#3A5A62"/>
<path d="M102.618 229.138C102.618 229.766 102.87 230.344 103.285 230.759C103.699 231.161 104.265 231.425 104.906 231.425H110.311C110.713 231.425 111.103 231.312 111.442 231.124C112.133 230.734 112.598 229.993 112.598 229.138C112.598 228.509 112.334 227.931 111.932 227.516C111.781 227.378 111.618 227.252 111.442 227.152C111.115 226.963 110.726 226.85 110.311 226.85H104.906C103.649 226.85 102.631 227.868 102.631 229.125L102.618 229.138Z" fill="#739193"/>
<path d="M93.2166 200.983C93.2166 202.504 93.8324 203.886 94.838 204.879C95.5419 205.583 96.4217 206.086 97.4147 206.325C97.842 206.438 98.282 206.501 98.7345 206.501H110.26C110.663 206.501 111.052 206.463 111.442 206.375C113.918 205.834 115.778 203.635 115.778 200.995C115.778 199.474 115.162 198.092 114.157 197.099C113.428 196.37 112.485 195.842 111.442 195.616C111.065 195.528 110.675 195.49 110.26 195.49H98.7345C98.282 195.49 97.8295 195.553 97.4147 195.666C95.014 196.257 93.2291 198.419 93.2291 201.008L93.2166 200.983Z" fill="#53797E"/>
<path d="M93.2166 230.206C93.2166 231.727 93.8324 233.11 94.838 234.103C95.5419 234.807 96.4217 235.309 97.4147 235.548C97.842 235.661 98.282 235.724 98.7345 235.724H104.956C103.435 235.724 102.053 235.108 101.06 234.103C100.067 233.097 99.4383 231.727 99.4383 230.206C99.4383 227.692 101.123 225.581 103.41 224.927C103.9 224.776 104.416 224.713 104.944 224.713H98.7219C98.2694 224.713 97.8169 224.776 97.4021 224.877C95.0014 225.468 93.2166 227.629 93.2166 230.219V230.206Z" fill="#53797E"/>
<path d="M107.332 299.199C107.332 300.041 108.011 300.72 108.853 300.72H111.417V297.665H108.853C108.011 297.665 107.332 298.344 107.332 299.186V299.199Z" fill="#739193"/>
<path d="M105.421 305.521C105.421 305.974 105.61 306.376 105.899 306.678C106.188 306.979 106.603 307.155 107.055 307.155H111.417V303.887H107.055C106.15 303.887 105.421 304.616 105.421 305.521Z" fill="#739193"/>
<path d="M108.312 321.685C108.312 322.138 108.501 322.54 108.79 322.842C109.079 323.131 109.494 323.319 109.947 323.319H111.43V320.051H109.947C109.042 320.051 108.312 320.78 108.312 321.685Z" fill="#739193"/>
<path d="M76.0973 82.5801C75.8082 82.8692 75.6322 83.2588 75.6322 83.6862C75.6322 84.566 76.3361 85.2699 77.2159 85.2699H78.498V99.2092H76.0093C75.1671 99.2092 74.4884 99.888 74.4884 100.73C74.4884 101.572 75.1671 102.251 76.0093 102.251H78.498V105.242H77.4296C76.9771 105.242 76.5749 105.418 76.2732 105.72C75.9716 106.009 75.7956 106.424 75.7956 106.876C75.7956 107.781 76.5246 108.51 77.4296 108.51H78.498V118.34H71.786C71.3838 118.34 70.9941 118.377 70.6045 118.465V0H78.4854V82.115H77.2034C76.7634 82.115 76.3612 82.291 76.0847 82.5801H76.0973Z" fill="#3A5A62"/>
<path d="M84.6443 0V118.516C84.217 118.403 83.777 118.34 83.3245 118.34H78.5105V108.51H78.963C79.4155 108.51 79.8177 108.322 80.1194 108.033C80.421 107.744 80.597 107.316 80.597 106.876C80.597 105.972 79.868 105.242 78.963 105.242H78.5105V102.251H79.4658C80.3079 102.251 80.9866 101.572 80.9866 100.73C80.9866 99.888 80.3079 99.2092 79.4658 99.2092H78.5105V85.2699H79.4029C79.8303 85.2699 80.2325 85.094 80.509 84.8049C80.7855 84.5158 80.9741 84.1261 80.9741 83.6862C80.9741 82.8189 80.2702 82.115 79.4029 82.115H78.5105V0H84.6443Z" fill="#53797E"/>
<path d="M84.6445 129.2V195.653C84.2171 195.54 83.7772 195.477 83.3247 195.477H71.7987C71.3965 195.477 71.0068 195.515 70.6172 195.603V163.84H72.2512C73.0682 163.84 73.7218 163.187 73.7218 162.37C73.7218 161.553 73.0682 160.899 72.2512 160.899H70.6172V147.123H73.6967C74.5262 147.123 75.1924 146.445 75.1924 145.628C75.1924 144.811 74.5262 144.132 73.6967 144.132H70.6172V140.7H72.5277C73.307 140.7 73.9355 140.072 73.9355 139.293C73.9355 138.513 73.307 137.885 72.5277 137.885H70.6172V129.25C70.9943 129.338 71.3839 129.375 71.7987 129.375H83.3247C83.7772 129.375 84.2297 129.313 84.6445 129.2Z" fill="#739193"/>
<path d="M78.6238 206.5V224.713H71.7987C71.3965 224.713 71.0068 224.751 70.6172 224.839V206.375C70.9943 206.463 71.3839 206.5 71.7987 206.5H78.6238Z" fill="#3A5A62"/>
<path d="M84.6446 206.325V224.864C84.2172 224.764 83.7773 224.701 83.3248 224.701H78.6365V206.488H83.3248C83.7773 206.488 84.2298 206.425 84.6446 206.312V206.325Z" fill="#739193"/>
<path d="M88.8301 275.682C88.8301 277.203 88.2142 278.585 87.2087 279.578C86.5048 280.27 85.625 280.785 84.632 281.024C84.2047 281.124 83.7647 281.187 83.3122 281.187H71.7862C71.384 281.187 70.9944 281.149 70.6047 281.061C68.1286 280.521 66.2683 278.321 66.2683 275.682C66.2683 274.161 66.8842 272.778 67.8897 271.785C68.6188 271.056 69.5615 270.528 70.6047 270.302C70.9818 270.214 71.3714 270.176 71.7862 270.176H83.3122C83.7647 270.176 84.2172 270.239 84.632 270.352C87.0327 270.943 88.8176 273.105 88.8176 275.694L88.8301 275.682Z" fill="#53797E"/>
<path d="M84.6445 235.548V270.34C84.2171 270.227 83.7772 270.164 83.3247 270.164H71.7987C71.3965 270.164 71.0068 270.202 70.6172 270.29V235.586C70.9943 235.674 71.3839 235.712 71.7987 235.712H83.3247C83.7772 235.712 84.2297 235.649 84.6445 235.536V235.548Z" fill="#739193"/>
<path d="M78.4981 281.187V346.007H70.6172V323.319H72.1004C72.5529 323.319 72.9551 323.131 73.2567 322.842C73.5458 322.553 73.7344 322.138 73.7344 321.685C73.7344 320.78 73.0053 320.051 72.1004 320.051H70.6172V307.143H74.9787C75.4312 307.143 75.8334 306.954 76.1351 306.665C76.4368 306.376 76.6127 305.961 76.6127 305.509C76.6127 304.604 75.8837 303.875 74.9787 303.875H70.6172V300.72H73.1813C74.0235 300.72 74.7022 300.041 74.7022 299.199C74.7022 298.357 74.0235 297.678 73.1813 297.678H70.6172V281.061C70.9943 281.149 71.3839 281.187 71.7987 281.187H78.5107H78.4981Z" fill="#3A5A62"/>
<path d="M84.6443 281.024V346.007H78.5105V281.187H83.3245C83.777 281.187 84.2295 281.124 84.6443 281.024Z" fill="#53797E"/>
<path d="M78.624 224.927C78.1338 224.776 77.6185 224.713 77.0906 224.713H71.7989C71.3967 224.713 71.0071 224.751 70.6174 224.839C69.5742 225.065 68.6315 225.581 67.9024 226.322C66.9095 227.315 66.281 228.698 66.281 230.219C66.281 232.858 68.1413 235.07 70.6174 235.598C70.9945 235.686 71.3841 235.724 71.7989 235.724H77.0906C78.6115 235.724 79.9941 235.108 80.9871 234.103C81.98 233.097 82.6085 231.727 82.6085 230.206C82.6085 227.692 80.9242 225.581 78.6366 224.927H78.624ZM78.7623 230.747C78.3475 231.149 77.7819 231.413 77.1409 231.413H71.7361C71.3339 231.413 70.9442 231.3 70.6048 231.111C69.9135 230.722 69.4485 229.98 69.4485 229.125C69.4485 228.497 69.7124 227.919 70.1146 227.504C70.2655 227.366 70.4289 227.24 70.6048 227.139C70.9316 226.951 71.3213 226.838 71.7361 226.838H77.1409C78.3978 226.838 79.4159 227.856 79.4159 229.113C79.4159 229.741 79.1645 230.319 78.7497 230.734L78.7623 230.747Z" fill="#3A5A62"/>
<path d="M79.4285 229.138C79.4285 229.766 79.1771 230.344 78.7623 230.759C78.3475 231.161 77.7819 231.425 77.1409 231.425H71.7361C71.3339 231.425 70.9442 231.312 70.6049 231.124C69.9136 230.734 69.4485 229.992 69.4485 229.138C69.4485 228.509 69.7124 227.931 70.1147 227.516C70.2655 227.378 70.4289 227.252 70.6049 227.152C70.9317 226.963 71.3213 226.85 71.7361 226.85H77.1409C78.3978 226.85 79.4159 227.868 79.4159 229.125L79.4285 229.138Z" fill="#739193"/>
<path d="M88.8301 200.983C88.8301 202.503 88.2142 203.886 87.2087 204.879C86.5048 205.583 85.625 206.086 84.632 206.325C84.2047 206.438 83.7647 206.501 83.3122 206.501H71.7862C71.384 206.501 70.9944 206.463 70.6047 206.375C68.1286 205.834 66.2683 203.635 66.2683 200.995C66.2683 199.474 66.8842 198.092 67.8897 197.099C68.6188 196.37 69.5615 195.842 70.6047 195.616C70.9818 195.528 71.3714 195.49 71.7862 195.49H83.3122C83.7647 195.49 84.2172 195.553 84.632 195.666C87.0327 196.257 88.8176 198.418 88.8176 201.008L88.8301 200.983Z" fill="#53797E"/>
<path d="M78.4983 118.528C78.0584 118.403 77.6059 118.352 77.1283 118.352H71.7989C71.3967 118.352 71.0071 118.39 70.6174 118.478C69.5742 118.704 68.6315 119.232 67.9024 119.961C66.9095 120.954 66.281 122.337 66.281 123.845C66.281 126.485 68.1413 128.697 70.6174 129.225C70.9945 129.313 71.3841 129.35 71.7989 129.35H77.1283C78.6492 129.35 80.0318 128.734 81.0248 127.729C82.0177 126.736 82.6336 125.353 82.6336 123.832C82.6336 121.268 80.8739 119.106 78.4983 118.503V118.528ZM79.0137 125.592C78.5612 126.032 77.9579 126.309 77.2791 126.309H71.6481C71.2836 126.309 70.9316 126.233 70.6174 126.082C69.7753 125.693 69.1971 124.838 69.1971 123.858C69.1971 123.179 69.4736 122.576 69.9135 122.123C70.1146 121.922 70.3534 121.758 70.6174 121.633C70.9316 121.482 71.2836 121.407 71.6481 121.407H77.2791C78.6366 121.407 79.7301 122.5 79.7301 123.845C79.7301 124.524 79.4536 125.14 79.0137 125.58V125.592Z" fill="#3A5A62"/>
<path d="M79.7301 123.858C79.7301 124.536 79.4535 125.152 79.0136 125.592C78.5611 126.032 77.9578 126.309 77.2791 126.309H71.648C71.2835 126.309 70.9316 126.233 70.6174 126.082C69.7752 125.693 69.197 124.838 69.197 123.858C69.197 123.179 69.4735 122.576 69.9135 122.123C70.1146 121.922 70.3534 121.758 70.6174 121.633C70.9316 121.482 71.2835 121.407 71.648 121.407H77.2791C78.6365 121.407 79.7301 122.5 79.7301 123.845V123.858Z" fill="#739193"/>
<path d="M88.8299 123.858C88.8299 125.378 88.214 126.761 87.2085 127.754C86.5046 128.458 85.6248 128.961 84.6318 129.2C84.2044 129.313 83.7645 129.375 83.312 129.375H77.1279C78.6488 129.375 80.0314 128.76 81.0244 127.754C82.0174 126.761 82.6333 125.378 82.6333 123.858C82.6333 121.293 80.8736 119.132 78.498 118.528C78.0581 118.403 77.6056 118.352 77.1279 118.352H83.312C83.7645 118.352 84.217 118.415 84.6318 118.528C87.0325 119.119 88.8174 121.281 88.8174 123.858H88.8299Z" fill="#53797E"/>
<path d="M88.8303 230.206C88.8303 231.727 88.2144 233.11 87.2088 234.103C86.505 234.807 85.6251 235.309 84.6321 235.548C84.2048 235.661 83.7649 235.724 83.3124 235.724H77.0906C78.6115 235.724 79.9941 235.108 80.987 234.103C81.98 233.097 82.6085 231.727 82.6085 230.206C82.6085 227.692 80.9242 225.581 78.6366 224.927C78.1464 224.776 77.6311 224.713 77.1031 224.713H83.3249C83.7774 224.713 84.2299 224.776 84.6447 224.877C87.0454 225.468 88.8303 227.629 88.8303 230.219V230.206Z" fill="#53797E"/>
<path d="M80.9744 83.6862C80.9744 84.1261 80.7984 84.5284 80.5093 84.8049C80.2202 85.0814 79.8306 85.2699 79.4032 85.2699H77.2287C76.3489 85.2699 75.645 84.5661 75.645 83.6862C75.645 83.2463 75.821 82.8566 76.1101 82.5801C76.3992 82.291 76.7888 82.1151 77.2287 82.1151H79.4032C80.2705 82.1151 80.9744 82.8189 80.9744 83.6862Z" fill="#739193"/>
<path d="M80.9742 100.73C80.9742 101.572 80.2954 102.251 79.4533 102.251H76.0219C75.1797 102.251 74.501 101.572 74.501 100.73C74.501 99.888 75.1797 99.2092 76.0219 99.2092H79.4533C80.2954 99.2092 80.9742 99.888 80.9742 100.73Z" fill="#739193"/>
<path d="M80.5848 106.889C80.5848 107.342 80.4088 107.744 80.1072 108.045C79.8055 108.347 79.4033 108.523 78.9508 108.523H77.4299C76.5249 108.523 75.7959 107.781 75.7959 106.889C75.7959 106.437 75.9719 106.034 76.2735 105.733C76.5626 105.431 76.9774 105.255 77.4299 105.255H78.9508C79.8558 105.255 80.5848 105.984 80.5848 106.889Z" fill="#739193"/>
<path d="M73.9479 139.28C73.9479 140.059 73.3195 140.688 72.5402 140.688H70.6296V137.86H72.5402C73.3195 137.86 73.9479 138.488 73.9479 139.268V139.28Z" fill="#3A5A62"/>
<path d="M75.1924 145.628C75.1924 146.457 74.5262 147.123 73.6967 147.123H70.6172V144.132H73.6967C74.5262 144.132 75.1924 144.798 75.1924 145.628Z" fill="#3A5A62"/>
<path d="M73.7218 162.37C73.7218 163.187 73.0682 163.84 72.2512 163.84H70.6172V160.899H72.2512C73.0682 160.899 73.7218 161.553 73.7218 162.37Z" fill="#3A5A62"/>
<path d="M74.7147 299.199C74.7147 300.041 74.0359 300.72 73.1938 300.72H70.6296V297.665H73.1938C74.0359 297.665 74.7147 298.344 74.7147 299.186V299.199Z" fill="#739193"/>
<path d="M76.6127 305.521C76.6127 305.974 76.4242 306.376 76.1351 306.678C75.846 306.979 75.4312 307.155 74.9787 307.155H70.6172V303.887H74.9787C75.8837 303.887 76.6127 304.616 76.6127 305.521Z" fill="#739193"/>
<path d="M73.7217 321.685C73.7217 322.138 73.5331 322.54 73.244 322.842C72.9549 323.131 72.5402 323.319 72.0877 323.319H70.6045V320.051H72.0877C72.9926 320.051 73.7217 320.78 73.7217 321.685Z" fill="#739193"/>
<path d="M20.0006 325.418C12.8235 322.276 9.48011 314.043 12.547 307.042C19.7241 310.184 23.0675 318.417 20.0006 325.418Z" fill="#739193"/>
<path d="M19.9878 323.181C18.4418 328.774 12.7479 332.093 7.28027 330.584C8.82629 324.991 14.5202 321.673 19.9878 323.181Z" fill="#3A5A62"/>
<path d="M19.9758 323.198L19.0061 325.297L28.7968 329.819L29.7665 327.719L19.9758 323.198Z" fill="#3A5A62"/>
<path d="M63.8421 325.418C56.6651 322.276 53.3217 314.043 56.3886 307.042C63.5656 310.184 66.909 318.417 63.8421 325.418Z" fill="#739193"/>
<path d="M63.8296 323.181C62.2836 328.774 56.5897 332.093 51.1221 330.584C52.6681 324.991 58.362 321.673 63.8296 323.181Z" fill="#3A5A62"/>
<path d="M63.824 323.203L62.8542 325.302L72.6449 329.824L73.6146 327.725L63.824 323.203Z" fill="#3A5A62"/>
<path d="M117.739 325.418C124.916 322.276 128.26 314.043 125.193 307.042C118.016 310.184 114.672 318.417 117.739 325.418Z" fill="#739193"/>
<path d="M117.752 323.181C119.298 328.774 124.992 332.093 130.459 330.584C128.913 324.991 123.219 321.673 117.752 323.181Z" fill="#3A5A62"/>
<path d="M117.77 323.163L107.979 327.685L108.949 329.785L118.74 325.263L117.77 323.163Z" fill="#3A5A62"/>
<path d="M17.7132 194.007C12.0445 188.602 11.7177 179.728 16.9968 174.198C22.6655 179.602 22.9923 188.476 17.7132 194.007Z" fill="#739193"/>
<path d="M18.4672 191.895C15.0987 196.621 8.61292 197.79 4 194.51C7.36856 189.783 13.8543 188.615 18.4672 191.895Z" fill="#53797E"/>
<path d="M18.4597 191.912L16.8303 193.553L24.484 201.151L26.1133 199.509L18.4597 191.912Z" fill="#53797E"/>
<path d="M61.5543 194.007C55.8855 188.602 55.5587 179.728 60.8378 174.198C66.5066 179.602 66.8334 188.476 61.5543 194.007Z" fill="#739193"/>
<path d="M62.3088 191.895C58.9402 196.621 52.4545 197.79 47.8416 194.51C51.2101 189.783 57.6959 188.615 62.3088 191.895Z" fill="#53797E"/>
<path d="M62.3054 191.906L60.676 193.548L68.3297 201.145L69.959 199.504L62.3054 191.906Z" fill="#53797E"/>
<path d="M117.589 193.19C123.257 187.785 123.584 178.911 118.305 173.38C112.636 178.785 112.309 187.659 117.589 193.19Z" fill="#739193"/>
<path d="M116.834 191.078C120.203 195.804 126.689 196.973 131.301 193.692C127.933 188.966 121.447 187.797 116.834 191.078Z" fill="#3A5A62"/>
<path d="M116.84 191.079L109.187 198.677L110.816 200.318L118.47 192.721L116.84 191.079Z" fill="#3A5A62"/>
</g>
<defs>
<filter id="filter0_d_154_1491" x="0" y="0" width="135.302" height="354.007" filterUnits="userSpaceOnUse" color-interpolation-filters="sRGB">
<feFlood flood-opacity="0" result="BackgroundImageFix"/>
<feColorMatrix in="SourceAlpha" type="matrix" values="0 0 0 0 0 0 0 0 0 0 0 0 0 0 0 0 0 0 127 0" result="hardAlpha"/>
<feOffset dy="4"/>
<feGaussianBlur stdDeviation="2"/>
<feComposite in2="hardAlpha" operator="out"/>
<feColorMatrix type="matrix" values="0 0 0 0 0 0 0 0 0 0 0 0 0 0 0 0 0 0 0.25 0"/>
<feBlend mode="normal" in2="BackgroundImageFix" result="effect1_dropShadow_154_1491"/>
<feBlend mode="normal" in="SourceGraphic" in2="effect1_dropShadow_154_1491" result="shape"/>
</filter>
<clipPath id="clip0_154_1491">
<rect width="127.302" height="346.007" fill="white" transform="translate(4)"/>
</clipPath>
</defs>
</svg>
