<svg width="118" height="68" viewBox="0 0 118 68" fill="none" xmlns="http://www.w3.org/2000/svg">
<g clip-path="url(#clip0_154_1459)">
<path d="M59.0001 36.6641C69.2261 36.6641 77.516 28.4566 77.516 18.3321C77.516 8.20754 69.2261 0 59.0001 0C48.774 0 40.4841 8.20754 40.4841 18.3321C40.4841 28.4566 48.774 36.6641 59.0001 36.6641Z" fill="#FFFDFE"/>
<path d="M46.7933 49.9577C57.0193 49.9577 65.3092 41.7502 65.3092 31.6256C65.3092 21.5011 57.0193 13.2936 46.7933 13.2936C36.5672 13.2936 28.2773 21.5011 28.2773 31.6256C28.2773 41.7502 36.5672 49.9577 46.7933 49.9577Z" fill="#FFFDFE"/>
<path d="M71.2068 49.9577C81.4329 49.9577 89.7228 41.7502 89.7228 31.6256C89.7228 21.5011 81.4329 13.2936 71.2068 13.2936C60.9808 13.2936 52.6909 21.5011 52.6909 31.6256C52.6909 41.7502 60.9808 49.9577 71.2068 49.9577Z" fill="#FFFDFE"/>
<path d="M83.334 38.4074C83.4034 43.2348 81.1317 53.2479 61.2468 53.793H61.2419C60.9244 55.0207 60.3887 57.5842 60.3887 61.0365C60.3887 65.9718 60.9343 67.9951 60.9343 67.9951H57.6111C57.6111 67.9951 58.1617 65.9718 58.1617 61.0365C58.1617 57.5793 57.626 55.0158 57.3085 53.793H57.3036C37.6915 53.2627 35.2114 43.5098 35.2114 38.6088C35.2164 38.5941 35.2164 38.5793 35.2114 38.5695C35.2164 36.9293 35.4941 35.844 35.4941 35.844C35.4941 35.844 37.6468 38.378 40.4939 40.0231C43.336 41.6731 51.163 45.2531 51.163 45.2531C51.163 45.2531 50.3148 37.3516 53.7918 33.9091C57.2738 30.4618 59.2777 25.8112 59.2777 25.8112C59.2777 25.8112 61.2815 30.4618 64.7585 33.9091C68.2356 37.3516 67.3874 45.2531 67.3874 45.2531C67.3874 45.2531 75.2144 41.6731 78.0565 40.0231C80.9085 38.3829 83.0562 35.844 83.0562 35.844C83.0562 35.844 83.3241 36.8605 83.339 38.4124L83.334 38.4074Z" fill="#53797E"/>
<path d="M24.2745 42.9794C32.3557 42.9794 38.9067 36.4934 38.9067 28.4925C38.9067 20.4916 32.3557 14.0056 24.2745 14.0056C16.1934 14.0056 9.64233 20.4916 9.64233 28.4925C9.64233 36.4934 16.1934 42.9794 24.2745 42.9794Z" fill="#FFFDFE"/>
<path d="M14.6322 53.4836C22.7133 53.4836 29.2644 46.9976 29.2644 38.9968C29.2644 30.9959 22.7133 24.5099 14.6322 24.5099C6.55106 24.5099 0 30.9959 0 38.9968C0 46.9976 6.55106 53.4836 14.6322 53.4836Z" fill="#FFFDFE"/>
<path d="M33.922 53.4836C42.0031 53.4836 48.5542 46.9976 48.5542 38.9968C48.5542 30.9959 42.0031 24.5099 33.922 24.5099C25.8409 24.5099 19.2898 30.9959 19.2898 38.9968C19.2898 46.9976 25.8409 53.4836 33.922 53.4836Z" fill="#FFFDFE"/>
<path d="M43.5096 44.3594C43.5642 48.1751 41.7686 56.0864 26.0551 56.5185H26.0502C25.8022 57.486 25.3756 59.5141 25.3756 62.2445C25.3756 66.1437 25.8071 67.7446 25.8071 67.7446H23.1783C23.1783 67.7446 23.6148 66.1437 23.6148 62.2445C23.6148 59.5141 23.1882 57.486 22.9402 56.5185H22.9353C7.43506 56.0962 5.47583 48.3911 5.47583 44.5165C5.48079 44.5067 5.48079 44.4969 5.47583 44.4821C5.48079 43.1857 5.69903 42.3263 5.69903 42.3263C5.69903 42.3263 7.40034 44.3299 9.64725 45.6264C11.8942 46.9277 18.0794 49.7563 18.0794 49.7563C18.0794 49.7563 17.4098 43.5147 20.1576 40.7941C22.9105 38.0686 24.4927 34.3953 24.4927 34.3953C24.4927 34.3953 26.075 38.0686 28.8229 40.7941C31.5707 43.5147 30.9011 49.7563 30.9011 49.7563C30.9011 49.7563 37.0863 46.9277 39.3333 45.6264C41.5851 44.3299 43.2815 42.3263 43.2815 42.3263C43.2815 42.3263 43.4947 43.1267 43.5047 44.3594H43.5096Z" fill="#53797E"/>
<path d="M93.7203 42.9794C101.801 42.9794 108.353 36.4934 108.353 28.4925C108.353 20.4916 101.801 14.0056 93.7203 14.0056C85.6392 14.0056 79.0881 20.4916 79.0881 28.4925C79.0881 36.4934 85.6392 42.9794 93.7203 42.9794Z" fill="#FFFDFE"/>
<path d="M84.0731 53.4836C92.1543 53.4836 98.7053 46.9976 98.7053 38.9968C98.7053 30.9959 92.1543 24.5099 84.0731 24.5099C75.992 24.5099 69.4409 30.9959 69.4409 38.9968C69.4409 46.9976 75.992 53.4836 84.0731 53.4836Z" fill="#FFFDFE"/>
<path d="M103.368 53.4836C111.449 53.4836 118 46.9976 118 38.9968C118 30.9959 111.449 24.5099 103.368 24.5099C95.2867 24.5099 88.7356 30.9959 88.7356 38.9968C88.7356 46.9976 95.2867 53.4836 103.368 53.4836Z" fill="#FFFDFE"/>
<path d="M112.951 44.3594C113.005 48.1751 111.21 56.0864 95.4961 56.5185H95.4911C95.2431 57.486 94.8165 59.5141 94.8165 62.2445C94.8165 66.1437 95.2481 67.7446 95.2481 67.7446H92.6192C92.6192 67.7446 93.0557 66.1437 93.0557 62.2445C93.0557 59.5141 92.6292 57.486 92.3811 56.5185H92.3762C76.876 56.0962 74.9167 48.3911 74.9167 44.5165C74.9217 44.5067 74.9217 44.4969 74.9167 44.4821C74.9217 43.1857 75.14 42.3263 75.14 42.3263C75.14 42.3263 76.8413 44.3299 79.0882 45.6264C81.3351 46.9277 87.5203 49.7563 87.5203 49.7563C87.5203 49.7563 86.8507 43.5147 89.5985 40.7941C92.3514 38.0686 93.9337 34.3953 93.9337 34.3953C93.9337 34.3953 95.5159 38.0686 98.2638 40.7941C101.012 43.5147 100.342 49.7563 100.342 49.7563C100.342 49.7563 106.527 46.9277 108.774 45.6264C111.026 44.3299 112.722 42.3263 112.722 42.3263C112.722 42.3263 112.936 43.1267 112.946 44.3594H112.951Z" fill="#53797E"/>
</g>
<defs>
<clipPath id="clip0_154_1459">
<rect width="118" height="68" fill="white"/>
</clipPath>
</defs>
</svg>
