<svg width="1656" height="143" viewBox="0 0 1656 143" fill="none" xmlns="http://www.w3.org/2000/svg">
<path d="M1740.15 0.426239H771.942V142.313H1740.15V0.426239Z" fill="#CEC6B6"/>
<mask id="mask0_28_2826" style="mask-type:luminance" maskUnits="userSpaceOnUse" x="771" y="0" width="970" height="143">
<path d="M1740.15 0.426239H771.942V142.313H1740.15V0.426239Z" fill="white"/>
</mask>
<g mask="url(#mask0_28_2826)">
<path d="M1341.68 81.0537C1348.49 81.0537 1354.01 75.5298 1354.01 68.7157C1354.01 61.9016 1348.49 56.3777 1341.68 56.3777C1334.86 56.3777 1329.34 61.9016 1329.34 68.7157C1329.34 75.5298 1334.86 81.0537 1341.68 81.0537Z" fill="#928D80"/>
<path d="M1409.08 50.553C1412.91 50.553 1416.02 47.4442 1416.02 43.6093C1416.02 39.7743 1412.91 36.6655 1409.08 36.6655C1405.24 36.6655 1402.13 39.7743 1402.13 43.6093C1402.13 47.4442 1405.24 50.553 1409.08 50.553Z" fill="#928D80"/>
<path d="M1374.94 63.1636C1387.61 63.1636 1397.89 52.8865 1397.89 40.2091C1397.89 27.5318 1387.61 17.2547 1374.94 17.2547C1362.26 17.2547 1351.99 27.5318 1351.99 40.2091C1351.99 52.8865 1362.26 63.1636 1374.94 63.1636Z" fill="#928D80"/>
<path d="M1399.62 31.7877C1410.29 31.7877 1418.93 23.1422 1418.93 12.4773C1418.93 1.81247 1410.29 -6.8331 1399.62 -6.8331C1388.96 -6.8331 1380.32 1.81247 1380.32 12.4773C1380.32 23.1422 1388.96 31.7877 1399.62 31.7877Z" fill="#928D80"/>
<path d="M1420.44 18.1729C1445.25 18.1729 1465.37 -0.364342 1465.37 -23.2312C1465.37 -46.098 1445.25 -64.6352 1420.44 -64.6352C1395.62 -64.6352 1375.5 -46.098 1375.5 -23.2312C1375.5 -0.364342 1395.62 18.1729 1420.44 18.1729Z" fill="#928D80"/>
<path d="M1349.18 47.4828C1361.76 47.4828 1371.95 37.2828 1371.95 24.7005C1371.95 12.1182 1361.76 1.91827 1349.18 1.91827C1336.6 1.91827 1326.4 12.1182 1326.4 24.7005C1326.4 37.2828 1336.6 47.4828 1349.18 47.4828Z" fill="#928D80"/>
<path d="M1350.01 106.504H1326.4L1327 85.6302H1349.41L1350.01 106.504Z" fill="#EC675A"/>
<path d="M1350.63 127.35H1325.8L1326.4 106.504H1350.01L1350.63 127.35Z" fill="#ECB880"/>
<path d="M1351.23 148.195H1325.18L1325.8 127.35H1350.63L1351.23 148.195Z" fill="#EC675A"/>
<path d="M1350.9 84.1238H1325.51C1323.42 84.1238 1321.72 85.8195 1321.72 87.9113V92.2726C1321.72 94.3644 1323.42 96.0601 1325.51 96.0601H1350.9C1352.99 96.0601 1354.69 94.3644 1354.69 92.2726V87.9113C1354.69 85.8195 1352.99 84.1238 1350.9 84.1238Z" fill="#EC675A"/>
<path d="M832.543 -22.9873V165.741" stroke="#DDDDDD" stroke-width="1.71" stroke-miterlimit="10"/>
<path d="M893.344 -22.9873V165.741" stroke="#DDDDDD" stroke-width="1.71" stroke-miterlimit="10"/>
<path d="M954.132 -22.9873V165.741" stroke="#DDDDDD" stroke-width="1.71" stroke-miterlimit="10"/>
<path d="M1014.93 -22.9873V165.741" stroke="#DDDDDD" stroke-width="1.71" stroke-miterlimit="10"/>
<path d="M1075.73 -22.9873V165.741" stroke="#DDDDDD" stroke-width="1.71" stroke-miterlimit="10"/>
<path d="M1136.52 -22.9873V165.741" stroke="#DDDDDD" stroke-width="1.71" stroke-miterlimit="10"/>
<path d="M1197.32 -22.9873V165.741" stroke="#DDDDDD" stroke-width="1.71" stroke-miterlimit="10"/>
<path d="M1258.11 -22.9873V165.741" stroke="#DDDDDD" stroke-width="1.71" stroke-miterlimit="10"/>
<path d="M1379.7 -22.9873V165.741" stroke="#DDDDDD" stroke-width="1.71" stroke-miterlimit="10"/>
<path d="M1318.91 -22.9873V165.741" stroke="#DDDDDD" stroke-width="1.71" stroke-miterlimit="10"/>
<path d="M1440.5 -22.9873V165.741" stroke="#DDDDDD" stroke-width="1.71" stroke-miterlimit="10"/>
<path d="M1501.3 -22.9873V165.741" stroke="#DDDDDD" stroke-width="1.71" stroke-miterlimit="10"/>
<path d="M1562.09 -22.9873V165.741" stroke="#DDDDDD" stroke-width="1.71" stroke-miterlimit="10"/>
<path d="M1622.89 -22.9873V165.741" stroke="#DDDDDD" stroke-width="1.71" stroke-miterlimit="10"/>
<path d="M745.091 67.238H1767" stroke="#DDDDDD" stroke-width="1.71" stroke-miterlimit="10"/>
</g>
<path d="M639.94 0.426239H-84.0424V142.313H639.94V0.426239Z" fill="#CEC6B6"/>
<mask id="mask1_28_2826" style="mask-type:luminance" maskUnits="userSpaceOnUse" x="-85" y="0" width="725" height="143">
<path d="M639.94 0.426239H-84.0424V142.313H639.94V0.426239Z" fill="white"/>
</mask>
<g mask="url(#mask1_28_2826)">
<path d="M382.161 41.4142C387.943 41.4142 392.631 36.7253 392.631 30.9413C392.631 25.1572 387.943 20.4683 382.161 20.4683C376.378 20.4683 371.69 25.1572 371.69 30.9413C371.69 36.7253 376.378 41.4142 382.161 41.4142Z" fill="#928D80"/>
<path d="M439.333 15.5331C442.581 15.5331 445.214 12.8996 445.214 9.65105C445.214 6.40247 442.581 3.76898 439.333 3.76898C436.086 3.76898 433.453 6.40247 433.453 9.65105C433.453 12.8996 436.086 15.5331 439.333 15.5331Z" fill="#928D80"/>
<path d="M410.374 26.2213C421.124 26.2213 429.838 17.5051 429.838 6.75306C429.838 -3.99894 421.124 -12.7152 410.374 -12.7152C399.624 -12.7152 390.91 -3.99894 390.91 6.75306C390.91 17.5051 399.624 26.2213 410.374 26.2213Z" fill="#928D80"/>
<path d="M388.529 12.9364C399.199 12.9364 407.85 4.2844 407.85 -6.38836C407.85 -17.0611 399.199 -25.7131 388.529 -25.7131C377.859 -25.7131 369.208 -17.0611 369.208 -6.38836C369.208 4.2844 377.859 12.9364 388.529 12.9364Z" fill="#928D80"/>
<path d="M389.232 63.0058H369.194L369.71 45.2878H388.715L389.232 63.0058Z" fill="#EC675A"/>
<path d="M389.748 80.6807H368.678L369.194 63.0058H389.232L389.748 80.6807Z" fill="#ECB880"/>
<path d="M390.264 98.3699H368.161L368.678 80.6807H389.748L390.264 98.3699Z" fill="#EC675A"/>
<path d="M390.767 116.074H367.645L368.161 98.3699H390.265L390.767 116.074Z" fill="#ECB880"/>
<path d="M391.283 133.763H367.143L367.645 116.074H390.767L391.283 133.763Z" fill="#EC675A"/>
<path d="M391.799 151.481H366.627L367.143 133.763H391.283L391.799 151.481Z" fill="#ECB880"/>
<path d="M389.978 44.0253H368.448C366.674 44.0253 365.235 45.4641 365.235 47.2389V50.9403C365.235 52.7152 366.674 54.154 368.448 54.154H389.978C391.752 54.154 393.191 52.7152 393.191 50.9403V47.2389C393.191 45.4641 391.752 44.0253 389.978 44.0253Z" fill="#EC675A"/>
<path d="M313.312 77.051C319.571 77.051 324.644 71.9767 324.644 65.7173C324.644 59.4578 319.571 54.3835 313.312 54.3835C307.054 54.3835 301.981 59.4578 301.981 65.7173C301.981 71.9767 307.054 77.051 313.312 77.051Z" fill="#C6D0C4"/>
<path d="M351.38 46.4786C353.677 46.4786 355.539 44.6159 355.539 42.3181C355.539 40.0203 353.677 38.1576 351.38 38.1576C349.083 38.1576 347.22 40.0203 347.22 42.3181C347.22 44.6159 349.083 46.4786 351.38 46.4786Z" fill="#C6D0C4"/>
<path d="M339.03 29.6788C345.851 29.6788 351.38 24.1485 351.38 17.3264C351.38 10.5044 345.851 4.97409 339.03 4.97409C332.21 4.97409 326.68 10.5044 326.68 17.3264C326.68 24.1485 332.21 29.6788 339.03 29.6788Z" fill="#C6D0C4"/>
<path d="M365.393 30.7117C376.959 30.7117 386.335 21.3339 386.335 9.76583C386.335 -1.80228 376.959 -11.1801 365.393 -11.1801C353.828 -11.1801 344.452 -1.80228 344.452 9.76583C344.452 21.3339 353.828 30.7117 365.393 30.7117Z" fill="#C6D0C4"/>
<path d="M383.05 8.38856C399.02 8.38856 411.966 -4.56053 411.966 -20.534C411.966 -36.5075 399.02 -49.4566 383.05 -49.4566C367.08 -49.4566 354.134 -36.5075 354.134 -20.534C354.134 -4.56053 367.08 8.38856 383.05 8.38856Z" fill="#C6D0C4"/>
<path d="M323.123 49.9504C333.794 49.9504 342.444 41.2984 342.444 30.6257C342.444 19.9529 333.794 11.3009 323.123 11.3009C312.453 11.3009 303.803 19.9529 303.803 30.6257C303.803 41.2984 312.453 49.9504 323.123 49.9504Z" fill="#C6D0C4"/>
<path d="M323.31 89.5325H303.272L303.788 71.8145H322.793L323.31 89.5325Z" fill="#EC675A"/>
<path d="M323.826 107.222H302.756L303.272 89.5325H323.31L323.826 107.222Z" fill="#FFFDFE"/>
<path d="M324.342 124.897H302.239L302.756 107.222H323.826L324.342 124.897Z" fill="#EC675A"/>
<path d="M324.845 142.615H301.737L302.239 124.897H324.342L324.845 142.615Z" fill="#FFFDFE"/>
<path d="M323.482 70.1216H301.952C300.178 70.1216 298.74 71.5604 298.74 73.3352V77.0367C298.74 78.8115 300.178 80.2503 301.952 80.2503H323.482C325.256 80.2503 326.695 78.8115 326.695 77.0367V73.3352C326.695 71.5604 325.256 70.1216 323.482 70.1216Z" fill="#EC675A"/>
<path d="M464.233 69.9351C471.608 69.9351 477.587 63.9551 477.587 56.5785C477.587 49.2018 471.608 43.2219 464.233 43.2219C456.858 43.2219 450.88 49.2018 450.88 56.5785C450.88 63.9551 456.858 69.9351 464.233 69.9351Z" fill="#C6D0C4"/>
<path d="M509.114 33.8967C511.823 33.8967 514.019 31.6999 514.019 28.9902C514.019 26.2804 511.823 24.0836 509.114 24.0836C506.405 24.0836 504.208 26.2804 504.208 28.9902C504.208 31.6999 506.405 33.8967 509.114 33.8967Z" fill="#C6D0C4"/>
<path d="M494.541 14.0985C502.581 14.0985 509.099 7.57897 509.099 -0.463244C509.099 -8.50546 502.581 -15.025 494.541 -15.025C486.5 -15.025 479.982 -8.50546 479.982 -0.463244C479.982 7.57897 486.5 14.0985 494.541 14.0985Z" fill="#C6D0C4"/>
<path d="M525.637 15.3179C539.27 15.3179 550.322 4.26367 550.322 -9.37244C550.322 -23.0085 539.27 -34.0628 525.637 -34.0628C512.004 -34.0628 500.952 -23.0085 500.952 -9.37244C500.952 4.26367 512.004 15.3179 525.637 15.3179Z" fill="#C6D0C4"/>
<path d="M475.794 37.9998C488.374 37.9998 498.571 27.7998 498.571 15.2175C498.571 2.6352 488.374 -7.56477 475.794 -7.56477C463.215 -7.56477 453.017 2.6352 453.017 15.2175C453.017 27.7998 463.215 37.9998 475.794 37.9998Z" fill="#C6D0C4"/>
<path d="M476.009 84.6403H452.4L453.003 63.7661H475.407L476.009 84.6403Z" fill="#EC675A"/>
<path d="M476.626 105.486H451.798L452.4 84.6403H476.009L476.626 105.486Z" fill="#FFFDFE"/>
<path d="M477.229 126.346H451.181L451.798 105.486H476.626L477.229 126.346Z" fill="#EC675A"/>
<path d="M477.831 147.205H450.578L451.181 126.346H477.228L477.831 147.205Z" fill="#FFFDFE"/>
<path d="M476.239 61.7576H450.851C448.76 61.7576 447.064 63.4533 447.064 65.5451V69.9064C447.064 71.9982 448.76 73.6939 450.851 73.6939H476.239C478.33 73.6939 480.026 71.9982 480.026 69.9064V65.5451C480.026 63.4533 478.33 61.7576 476.239 61.7576Z" fill="#EC675A"/>
<path d="M36.313 -22.9873V165.741" stroke="#DDDDDD" stroke-width="1.71" stroke-miterlimit="10"/>
<path d="M97.1145 -22.9873V165.741" stroke="#DDDDDD" stroke-width="1.71" stroke-miterlimit="10"/>
<path d="M157.902 -22.9873V165.741" stroke="#DDDDDD" stroke-width="1.71" stroke-miterlimit="10"/>
<path d="M279.505 -22.9873V165.741" stroke="#DDDDDD" stroke-width="1.71" stroke-miterlimit="10"/>
<path d="M218.703 -22.9873V165.741" stroke="#DDDDDD" stroke-width="1.71" stroke-miterlimit="10"/>
<path d="M340.292 -22.9873V165.741" stroke="#DDDDDD" stroke-width="1.71" stroke-miterlimit="10"/>
<path d="M401.094 -22.9873V165.741" stroke="#DDDDDD" stroke-width="1.71" stroke-miterlimit="10"/>
<path d="M461.881 -22.9873V165.741" stroke="#DDDDDD" stroke-width="1.71" stroke-miterlimit="10"/>
<path d="M522.683 -22.9873V165.741" stroke="#DDDDDD" stroke-width="1.71" stroke-miterlimit="10"/>
<path d="M583.47 -22.9873V165.741" stroke="#DDDDDD" stroke-width="1.71" stroke-miterlimit="10"/>
<path d="M-109 67.238H666.805" stroke="#DDDDDD" stroke-width="1.71" stroke-miterlimit="10"/>
</g>
</svg>
