<svg width="23" height="151" viewBox="0 0 23 151" fill="none" xmlns="http://www.w3.org/2000/svg">
<path d="M10.4104 11.5005V29.7134H17.2355C17.6377 29.7134 18.0274 29.7511 18.417 29.8391V11.3748C18.0399 11.4628 17.6503 11.5005 17.2355 11.5005H10.4104Z" fill="#3A5A62"/>
<path d="M4.40234 11.3245V29.8642C4.8297 29.7637 5.26963 29.7008 5.72212 29.7008H10.4105V11.488H5.72212C5.26963 11.488 4.81713 11.4251 4.40234 11.312V11.3245Z" fill="#739193"/>
<path d="M0.216553 80.6818C0.216553 82.2026 0.832438 83.5853 1.83798 84.5782C2.54186 85.2695 3.42171 85.7849 4.41468 86.0237C4.84204 86.1243 5.28197 86.1871 5.73446 86.1871H17.2605C17.6627 86.1871 18.0523 86.1494 18.442 86.0614C20.9181 85.5209 22.7784 83.3213 22.7784 80.6818C22.7784 79.1609 22.1625 77.7783 21.1569 76.7853C20.4279 76.0563 19.4852 75.5284 18.442 75.3021C18.0649 75.2141 17.6753 75.1764 17.2605 75.1764H5.73446C5.28197 75.1764 4.82947 75.2393 4.41468 75.3524C2.01395 75.9431 0.229115 78.1051 0.229115 80.6943L0.216553 80.6818Z" fill="#53797E"/>
<path d="M4.40234 40.5481V75.3398C4.8297 75.2267 5.26963 75.1639 5.72212 75.1639H17.2481C17.6504 75.1639 18.04 75.2016 18.4297 75.2895V40.5858C18.0526 40.6738 17.6629 40.7115 17.2481 40.7115H5.72212C5.26963 40.7115 4.81713 40.6486 4.40234 40.5355V40.5481Z" fill="#739193"/>
<path d="M10.536 86.1872V151.007H18.4169V128.319H16.9338C16.4813 128.319 16.0791 128.131 15.7774 127.842C15.4883 127.553 15.2998 127.138 15.2998 126.685C15.2998 125.78 16.0288 125.051 16.9338 125.051H18.4169V112.143H14.0554C13.6029 112.143 13.2007 111.954 12.899 111.665C12.5974 111.376 12.4214 110.961 12.4214 110.509C12.4214 109.604 13.1504 108.875 14.0554 108.875H18.4169V105.72H15.8528C15.0107 105.72 14.3319 105.041 14.3319 104.199C14.3319 103.357 15.0107 102.678 15.8528 102.678H18.4169V86.0615C18.0399 86.1494 17.6502 86.1872 17.2354 86.1872H10.5234H10.536Z" fill="#3A5A62"/>
<path d="M4.40234 86.0237V151.007H10.5362V86.1871H5.72212C5.26963 86.1871 4.81713 86.1242 4.40234 86.0237Z" fill="#53797E"/>
<path d="M6.43823 35.2062C6.43823 36.7271 7.05413 38.1097 8.05967 39.1027C9.06521 40.0956 10.4353 40.7241 11.9561 40.7241H17.2478C17.65 40.7241 18.0397 40.6864 18.4293 40.5984C20.9055 40.0579 22.7657 37.8583 22.7657 35.2188C22.7657 33.6979 22.1498 32.3152 21.1443 31.3223C20.4153 30.5933 19.4726 30.0779 18.4293 29.8391C18.0522 29.7511 17.6626 29.7134 17.2478 29.7134H11.9561C11.4282 29.7134 10.9129 29.7888 10.4227 29.9271C8.12251 30.5807 6.4508 32.7049 6.4508 35.2062H6.43823ZM9.61826 34.1252C9.61826 32.8683 10.6364 31.8502 11.8933 31.8502H17.2981C17.7003 31.8502 18.0899 31.9633 18.4293 32.1519C18.6053 32.2524 18.7687 32.3781 18.9195 32.5164C19.3217 32.9311 19.5857 33.5093 19.5857 34.1378C19.5857 34.9799 19.1206 35.7341 18.4293 36.1237C18.1025 36.3123 17.7129 36.4254 17.2981 36.4254H11.8933C11.2648 36.4254 10.6866 36.1614 10.2719 35.7592C9.85708 35.3444 9.60568 34.7663 9.60568 34.1378L9.61826 34.1252Z" fill="#3A5A62"/>
<path d="M9.61841 34.1378C9.61841 34.7663 9.86979 35.3444 10.2846 35.7592C10.6994 36.1614 11.265 36.4254 11.906 36.4254H17.3108C17.713 36.4254 18.1027 36.3123 18.442 36.1238C19.1334 35.7341 19.5984 34.9925 19.5984 34.1378C19.5984 33.5093 19.3345 32.9311 18.9322 32.5164C18.7814 32.3781 18.618 32.2524 18.442 32.1519C18.1152 31.9633 17.7256 31.8502 17.3108 31.8502H11.906C10.6491 31.8502 9.63098 32.8683 9.63098 34.1252L9.61841 34.1378Z" fill="#739193"/>
<path d="M0.216553 5.98263C0.216553 7.50351 0.832438 8.88614 1.83798 9.87911C2.54186 10.583 3.42171 11.0858 4.41468 11.3246C4.84204 11.4377 5.28197 11.5005 5.73446 11.5005H17.2605C17.6627 11.5005 18.0523 11.4628 18.442 11.3749C20.9181 10.8344 22.7784 8.63476 22.7784 5.99521C22.7784 4.47433 22.1625 3.09171 21.1569 2.09873C20.4279 1.36972 19.4852 0.841815 18.442 0.615569C18.0649 0.527584 17.6753 0.489868 17.2605 0.489868H5.73446C5.28197 0.489868 4.82947 0.552714 4.41468 0.665837C2.01395 1.25659 0.229115 3.41851 0.229115 6.00778L0.216553 5.98263Z" fill="#53797E"/>
<path d="M0.216553 35.2062C0.216553 36.7271 0.832439 38.1097 1.83798 39.1027C2.54186 39.8065 3.42171 40.3093 4.41468 40.5481C4.84204 40.6612 5.28197 40.7241 5.73446 40.7241H11.9562C10.4354 40.7241 9.05275 40.1082 8.05977 39.1027C7.0668 38.0971 6.43834 36.7271 6.43834 35.2062C6.43834 32.6923 8.12261 30.5807 10.4102 29.9271C10.9004 29.7763 11.4158 29.7134 11.9437 29.7134H5.72189C5.2694 29.7134 4.8169 29.7763 4.40211 29.8768C2.00138 30.4676 0.216553 32.6295 0.216553 35.2188V35.2062Z" fill="#53797E"/>
<path d="M14.332 104.199C14.332 105.041 15.0108 105.72 15.8529 105.72H18.417V102.665H15.8529C15.0108 102.665 14.332 103.344 14.332 104.186V104.199Z" fill="#739193"/>
<path d="M12.4214 110.521C12.4214 110.974 12.6099 111.376 12.899 111.678C13.1881 111.979 13.6029 112.155 14.0554 112.155H18.4169V108.887H14.0554C13.1504 108.887 12.4214 109.616 12.4214 110.521Z" fill="#739193"/>
<path d="M15.3125 126.685C15.3125 127.138 15.501 127.54 15.7901 127.842C16.0792 128.131 16.494 128.319 16.9465 128.319H18.4297V125.051H16.9465C16.0415 125.051 15.3125 125.78 15.3125 126.685Z" fill="#739193"/>
</svg>
