<svg width="20" height="19" viewBox="0 0 20 19" fill="none" xmlns="http://www.w3.org/2000/svg">
<path d="M17.7654 3.24504C17.3226 2.80208 16.7969 2.45069 16.2183 2.21095C15.6398 1.97121 15.0196 1.84782 14.3933 1.84782C13.767 1.84782 13.1469 1.97121 12.5683 2.21095C11.9897 2.45069 11.464 2.80208 11.0212 3.24504L10.1024 4.16391L9.1835 3.24504C8.28917 2.35071 7.0762 1.84828 5.81143 1.84828C4.54666 1.84828 3.33369 2.35071 2.43936 3.24504C1.54503 4.13937 1.0426 5.35234 1.0426 6.61711C1.0426 7.88188 1.54503 9.09485 2.43936 9.98918L3.35823 10.908L10.1024 17.6522L16.8465 10.908L17.7654 9.98918C18.2083 9.54643 18.5597 9.02074 18.7995 8.44215C19.0392 7.86356 19.1626 7.2434 19.1626 6.61711C19.1626 5.99082 19.0392 5.37066 18.7995 4.79207C18.5597 4.21348 18.2083 3.68779 17.7654 3.24504Z" stroke="#A5A4A4" stroke-width="1.73371" stroke-linecap="round" stroke-linejoin="round"/>
</svg>
