<svg width="233" height="109" viewBox="0 0 233 109" fill="none" xmlns="http://www.w3.org/2000/svg">
<rect width="233" height="109" fill="#90CEDD"/>
<path d="M37.9016 31L40.8824 33.179C41.9113 33.9312 42.1356 35.375 41.3834 36.4039V36.4039C40.6313 37.4328 39.1874 37.6571 38.1586 36.905L37.3513 36.3148C36.1509 35.4373 34.4664 35.699 33.5889 36.8994V36.8994C32.7114 38.0998 32.9731 39.7842 34.1735 40.6618L36.8437 42.6138" stroke="#214347" stroke-linecap="round"/>
<path d="M125.442 83.8433L122.563 81.5313C121.57 80.7333 121.411 79.2808 122.209 78.287V78.287C123.007 77.2933 124.46 77.1347 125.453 77.9327L126.233 78.5588C127.392 79.4899 129.087 79.3048 130.018 78.1454V78.1454C130.949 76.9861 130.764 75.2915 129.605 74.3604L127.026 72.2893" stroke="#214347" stroke-linecap="round"/>
<path d="M175.678 30.554L172.799 28.242C171.806 27.444 171.647 25.9915 172.445 24.9977V24.9977C173.243 24.004 174.696 23.8454 175.689 24.6434L176.469 25.2695C177.628 26.2006 179.323 26.0155 180.254 24.8561V24.8561C181.185 23.6968 181 22.0022 179.841 21.0711L177.262 19" stroke="#214347" stroke-linecap="round"/>
<path d="M196.747 45.2565L200.182 43.9016C201.368 43.434 202.708 44.016 203.176 45.2016V45.2016C203.643 46.3872 203.061 47.7274 201.876 48.1951L200.945 48.562C199.562 49.1076 198.883 50.6712 199.429 52.0544V52.0544C199.974 53.4376 201.538 54.1166 202.921 53.571L205.998 52.3573" stroke="#D25954" stroke-linecap="round"/>
<path d="M51 80.2015L54.4348 78.8467C55.6204 78.379 56.9606 78.9611 57.4283 80.1467V80.1467C57.8959 81.3323 57.3139 82.6725 56.1283 83.1402L55.1981 83.5071C53.8149 84.0527 53.1358 85.6163 53.6814 86.9995V86.9995C54.227 88.3827 55.7907 89.0617 57.1739 88.5161L60.2508 87.3024" stroke="#D25954" stroke-linecap="round"/>
<path d="M136.919 52.4592L133.427 53.657C132.221 54.0704 130.909 53.4282 130.495 52.2226V52.2226C130.082 51.017 130.724 49.7046 131.93 49.2911L132.876 48.9668C134.282 48.4844 135.031 46.9532 134.549 45.5467V45.5467C134.067 44.1402 132.535 43.391 131.129 43.8733L128 44.9463" stroke="#D25954" stroke-linecap="round"/>
</svg>
