<svg width="296" height="77" viewBox="0 0 296 77" fill="none" xmlns="http://www.w3.org/2000/svg">
<path d="M295.06 76.2409H0.799805C4.2898 68.1709 12.3298 62.5109 21.6798 62.5109C22.1198 62.5109 22.5498 62.5209 22.9798 62.5509C26.7298 50.1509 38.2498 41.1209 51.8698 41.1209C65.4898 41.1209 77.1298 50.2409 80.8098 62.7309C81.8198 62.5809 82.8598 62.5109 83.9098 62.5109C89.2498 62.5109 94.1498 64.3509 98.0198 67.4309C104.11 54.6109 117.17 45.7609 132.3 45.7609C134.82 45.7609 137.29 46.0109 139.67 46.4809C144.76 20.3909 167.74 0.710938 195.33 0.710938C222.92 0.710938 246.75 21.1309 251.26 47.9509C253.51 47.5309 255.84 47.3109 258.21 47.3109C276.06 47.3109 291.03 59.6409 295.06 76.2409Z" fill="#ECECEC"/>
</svg>
