<svg width="16" height="20" viewBox="0 0 16 20" fill="none" xmlns="http://www.w3.org/2000/svg">
<path d="M15.63 1.64835C15.5138 1.55438 15.3781 1.48763 15.2327 1.45302C15.0873 1.41841 14.9361 1.41681 14.79 1.44835C13.7214 1.6723 12.6183 1.67515 11.5486 1.45674C10.4789 1.23833 9.46524 0.803269 8.57 0.178355C8.4026 0.062228 8.20373 0 8 0C7.79627 0 7.5974 0.062228 7.43 0.178355C6.53476 0.803269 5.52108 1.23833 4.45137 1.45674C3.38166 1.67515 2.27857 1.6723 1.21 1.44835C1.06394 1.41681 0.91267 1.41841 0.767306 1.45302C0.621941 1.48763 0.486181 1.55438 0.370005 1.64835C0.253985 1.74247 0.160527 1.86139 0.096498 1.99637C0.0324694 2.13135 -0.00050219 2.27896 5.78148e-06 2.42835V9.87835C-0.000883254 11.3121 0.340779 12.7253 0.99654 14.0003C1.6523 15.2753 2.60318 16.3752 3.77 17.2083L7.42 19.8083C7.58936 19.9289 7.7921 19.9937 8 19.9937C8.2079 19.9937 8.41064 19.9289 8.58 19.8083L12.23 17.2083C13.3968 16.3752 14.3477 15.2753 15.0035 14.0003C15.6592 12.7253 16.0009 11.3121 16 9.87835V2.42835C16.0005 2.27896 15.9675 2.13135 15.9035 1.99637C15.8395 1.86139 15.746 1.74247 15.63 1.64835ZM14 9.87835C14.0008 10.9931 13.7353 12.0919 13.2256 13.0834C12.716 14.0748 11.977 14.9302 11.07 15.5783L8 17.7683L4.93 15.5783C4.02304 14.9302 3.28399 14.0748 2.77435 13.0834C2.26472 12.0919 1.99924 10.9931 2 9.87835V3.57835C4.09643 3.75779 6.19604 3.27138 8 2.18835C9.80396 3.27138 11.9036 3.75779 14 3.57835V9.87835ZM9.54 7.58835L6.85 10.2883L5.96 9.38835C5.7717 9.20005 5.5163 9.09426 5.25 9.09426C4.9837 9.09426 4.72831 9.20005 4.54 9.38835C4.3517 9.57665 4.24591 9.83205 4.24591 10.0983C4.24591 10.3647 4.3517 10.62 4.54 10.8083L6.14 12.4083C6.23296 12.5021 6.34357 12.5765 6.46542 12.6272C6.58728 12.678 6.71799 12.7041 6.85 12.7041C6.98201 12.7041 7.11272 12.678 7.23458 12.6272C7.35644 12.5765 7.46704 12.5021 7.56 12.4083L11 8.99835C11.1883 8.81005 11.2941 8.55465 11.2941 8.28835C11.2941 8.02205 11.1883 7.76665 11 7.57835C10.8117 7.39005 10.5563 7.28426 10.29 7.28426C10.0237 7.28426 9.7683 7.39005 9.58 7.57835L9.54 7.58835Z" fill="#EC6559"/>
</svg>
