<svg width="20" height="19" viewBox="0 0 20 19" fill="none" xmlns="http://www.w3.org/2000/svg">
<path d="M19.0729 17.0938L15.5313 13.5625C16.6739 12.1067 17.294 10.309 17.2917 8.45834C17.2917 6.81016 16.8029 5.199 15.8873 3.82859C14.9716 2.45818 13.6701 1.39007 12.1474 0.759341C10.6246 0.128611 8.94909 -0.0364171 7.33259 0.285126C5.71608 0.60667 4.23122 1.40034 3.06578 2.56578C1.90034 3.73122 1.10667 5.21608 0.785126 6.83259C0.463583 8.44909 0.628611 10.1246 1.25934 11.6474C1.89007 13.1701 2.95818 14.4716 4.32859 15.3873C5.699 16.3029 7.31016 16.7917 8.95834 16.7917C10.809 16.794 12.6067 16.1739 14.0625 15.0313L17.5938 18.5729C17.6906 18.6706 17.8058 18.7481 17.9327 18.8009C18.0597 18.8538 18.1958 18.881 18.3333 18.881C18.4709 18.881 18.607 18.8538 18.7339 18.8009C18.8609 18.7481 18.9761 18.6706 19.0729 18.5729C19.1706 18.4761 19.2481 18.3609 19.3009 18.2339C19.3538 18.107 19.381 17.9709 19.381 17.8333C19.381 17.6958 19.3538 17.5597 19.3009 17.4327C19.2481 17.3058 19.1706 17.1906 19.0729 17.0938ZM2.70834 8.45834C2.70834 7.2222 3.07489 6.01383 3.76165 4.98602C4.44841 3.95822 5.42453 3.15714 6.56657 2.68409C7.7086 2.21104 8.96527 2.08727 10.1777 2.32843C11.39 2.56959 12.5037 3.16484 13.3778 4.03892C14.2518 4.913 14.8471 6.02664 15.0882 7.23902C15.3294 8.4514 15.2056 9.70807 14.7326 10.8501C14.2595 11.9921 13.4585 12.9683 12.4307 13.655C11.4028 14.3418 10.1945 14.7083 8.95834 14.7083C7.30073 14.7083 5.71102 14.0499 4.53892 12.8778C3.36682 11.7057 2.70834 10.1159 2.70834 8.45834Z" fill="#A5A4A4"/>
</svg>
