<svg width="160" height="85" viewBox="0 0 160 85" fill="none" xmlns="http://www.w3.org/2000/svg">
<rect x="77.7144" y="34.1663" width="3.04762" height="50.6437" fill="#A5A4A4"/>
<path d="M101.664 19.0901C91.3082 20.9975 73.1468 27.4334 83.3468 37.9179C93.5469 48.4025 99.8083 29.7346 101.664 19.0901Z" fill="#214347"/>
<path d="M56.9337 19.0964C58.7893 29.7409 65.0506 48.4087 75.2507 37.9242C85.4508 27.4397 67.2894 21.0038 56.9337 19.0964Z" fill="#214347"/>
<path d="M79.4921 9.14285C85.5027 18.0185 93.9175 35.7699 79.4921 35.7699C65.0667 35.7699 73.4815 18.0185 79.4921 9.14285Z" fill="#467A80"/>
<path d="M49.7778 45.5115C58.4128 39.3333 75.6826 30.6839 75.6826 45.5115C75.6826 60.3391 58.4128 51.6897 49.7778 45.5115Z" fill="#467A80"/>
<path d="M108.698 45.5115C100.064 39.3333 82.7937 30.6839 82.7937 45.5115C82.7937 60.3391 100.064 51.6897 108.698 45.5115Z" fill="#467A80"/>
<path d="M85.697 62.6067C89.3395 58.427 87.6372 50.3817 89.3969 50.3817C91.4286 50.3817 89.9048 57.4301 88.8889 61.3458C88.4813 62.9169 87.3378 64.1098 86.0161 64.857C83.9278 66.0376 84.121 64.4151 85.697 62.6067Z" fill="#467A80"/>
<path d="M85.079 60.3878C90.2557 58.6529 92.7368 50.8606 94.252 51.7732C96.005 52.8289 91.2236 58.1185 88.4212 60.9691C87.3032 62.1064 85.7414 62.5429 84.2413 62.5064C81.8566 62.4485 82.821 61.1444 85.079 60.3878Z" fill="#467A80"/>
<path d="M68.4438 61.0469C71.5106 56.4059 68.7826 48.6672 70.5263 48.4265C72.54 48.1485 71.9425 55.3426 71.4428 59.3625C71.2423 60.9748 70.2641 62.3131 69.0516 63.2345C67.135 64.6908 67.1162 63.0561 68.4438 61.0469Z" fill="#467A80"/>
<path d="M65.3074 62.355C67.3179 57.1447 63.0394 50.2016 64.6905 49.5808C66.5986 48.8633 67.5234 56.0214 67.8782 60.0579C68.0201 61.6734 67.3487 63.194 66.3612 64.3613C64.7969 66.2107 64.4344 64.6175 65.3074 62.355Z" fill="#467A80"/>
<rect x="27.9365" y="24.7931" width="3.04762" height="60.0112" fill="#A5A4A4"/>
<path d="M51.886 9.8786C41.53 11.7686 23.3682 18.146 33.5685 28.5351C43.7688 38.9242 50.0303 20.4262 51.886 9.8786Z" fill="#214347"/>
<path d="M7.15573 9.89709C9.01142 20.4447 15.2729 38.9427 25.4732 28.5536C35.6735 18.1645 17.5117 11.7871 7.15573 9.89709Z" fill="#214347"/>
<path d="M29.7143 0C35.7249 8.79474 44.1397 26.3842 29.7143 26.3842C15.2889 26.3842 23.7037 8.79474 29.7143 0Z" fill="#467A80"/>
<path d="M-3.48162e-07 36.0272C8.63492 29.9054 25.9048 21.3348 25.9048 36.0272C25.9048 50.7196 8.63492 42.149 -3.48162e-07 36.0272Z" fill="#467A80"/>
<path d="M58.9207 36.0272C50.2857 29.9054 33.0159 21.3348 33.0159 36.0272C33.0159 50.7196 50.2857 42.149 58.9207 36.0272Z" fill="#467A80"/>
<path d="M35.951 52.9558C39.5518 48.8041 37.8645 40.8788 39.6191 40.8788C41.6508 40.8788 40.127 47.8629 39.1111 51.7429C38.7074 53.2849 37.5816 54.4592 36.2759 55.2009C34.1835 56.3893 34.3744 54.7736 35.951 52.9558Z" fill="#467A80"/>
<path d="M35.3366 50.7614C40.4892 49.019 42.9625 41.3352 44.4741 42.2373C46.2271 43.2834 41.4458 48.5247 38.6434 51.3493C37.5341 52.4675 35.9877 52.902 34.4984 52.8733C32.1016 52.8272 33.0681 51.5284 35.3366 50.7614Z" fill="#467A80"/>
<path d="M18.6924 51.4017C21.7171 46.7987 19.0098 39.1741 20.7485 38.9362C22.7622 38.6608 22.1647 45.7893 21.6649 49.7725C21.4664 51.3551 20.5046 52.6713 19.3078 53.5834C17.3896 55.0453 17.3675 53.4179 18.6924 51.4017Z" fill="#467A80"/>
<path d="M15.5452 52.6606C17.5171 47.5029 13.2659 40.6587 14.9126 40.0452C16.8207 39.3343 17.7453 46.4265 18.1 50.4258C18.2407 52.0124 17.5822 53.5066 16.6089 54.6591C15.0463 56.5096 14.6796 54.9246 15.5452 52.6606Z" fill="#467A80"/>
<rect x="129.016" y="24.7928" width="3.04762" height="60.0126" fill="#A5A4A4"/>
<path d="M152.965 9.87859C142.609 11.7687 124.448 18.1462 134.648 28.5355C144.848 38.9248 151.11 20.4265 152.965 9.87859Z" fill="#214347"/>
<path d="M108.235 9.89634C110.091 20.4442 116.352 38.9426 126.553 28.5533C136.753 18.1639 118.591 11.7864 108.235 9.89634Z" fill="#214347"/>
<path d="M130.794 0C136.804 8.79496 145.219 26.3849 130.794 26.3849C116.368 26.3849 124.783 8.79496 130.794 0Z" fill="#467A80"/>
<path d="M101.079 36.0287C109.714 29.9067 126.984 21.3359 126.984 36.0287C126.984 50.7214 109.714 42.1507 101.079 36.0287Z" fill="#467A80"/>
<path d="M160 36.0287C151.365 29.9067 134.095 21.3359 134.095 36.0287C134.095 50.7214 151.365 42.1507 160 36.0287Z" fill="#467A80"/>
<path d="M137.03 52.9167C140.631 48.765 138.944 40.8394 140.698 40.8394C142.73 40.8394 141.206 47.8236 140.19 51.7037C139.787 53.2458 138.661 54.4202 137.355 55.1618C135.263 56.3502 135.454 54.7345 137.03 52.9167Z" fill="#467A80"/>
<path d="M136.416 50.7628C141.569 49.0205 144.042 41.3363 145.553 42.2385C147.306 43.2847 142.525 48.526 139.723 51.3507C138.613 52.4689 137.067 52.9035 135.578 52.8748C133.181 52.8287 134.147 51.5299 136.416 50.7628Z" fill="#467A80"/>
<path d="M119.772 51.4013C122.796 46.7982 120.089 39.1733 121.828 38.9355C123.842 38.66 123.244 45.7887 122.744 49.772C122.546 51.3547 121.584 52.6709 120.387 53.583C118.469 55.0449 118.447 53.4175 119.772 51.4013Z" fill="#467A80"/>
<path d="M116.624 52.6645C118.597 47.5067 114.345 40.6622 115.992 40.0487C117.9 39.3378 118.825 46.4301 119.179 50.4296C119.32 52.0162 118.661 53.5105 117.688 54.6631C116.126 56.5136 115.759 54.9286 116.624 52.6645Z" fill="#467A80"/>
</svg>
