<svg width="1449" height="757" viewBox="0 0 1449 757" fill="none" xmlns="http://www.w3.org/2000/svg">
<g clip-path="url(#clip0_59_3820)">
<path d="M125.939 21.6294V757H84.5039V36.117L125.939 21.6294Z" fill="#9F4142"/>
<path d="M255.321 51.246V757H125.939V21.6294L255.321 51.246Z" fill="#EC6559"/>
<path d="M1399.86 314.209V756.854H1364.44V336.014L1399.86 314.209Z" fill="#EC6559"/>
<path d="M1423.76 332.516V756.854H1399.86V314.209L1423.76 332.516Z" fill="#9F4142"/>
<path d="M1062.22 103.687V756.854H974.744V135.84L1062.22 103.687Z" fill="#EE706B"/>
<path d="M1121.23 130.709V756.854H1062.22V103.687L1121.23 130.709Z" fill="#D25954"/>
<path d="M116.864 155.312V757H52.144V183.967L116.864 155.312Z" fill="#C44451"/>
<path d="M186.516 169.625V757H116.864V155.312L186.516 169.625Z" fill="#F4B6B6"/>
<path d="M146.744 168.284V183.442L135.073 180.702L121.796 177.612V162.454L135.073 165.573L146.744 168.284Z" fill="#9D404B"/>
<path d="M146.744 622.443V637.572L135.073 634.861L121.796 631.742V616.613L135.073 619.703L146.744 622.443Z" fill="#9D404B"/>
<path d="M146.744 561.898V577.027L135.073 574.316L121.796 571.197V556.068L135.073 559.158L146.744 561.898Z" fill="#9D404B"/>
<path d="M135.073 528.9V544.029L121.796 540.939V525.781L135.073 528.9Z" fill="#9D404B"/>
<path d="M135.073 498.613V513.742L121.796 510.652V495.523L135.073 498.613Z" fill="#9D404B"/>
<path d="M146.744 440.779V455.937L135.073 453.197L121.796 450.107V434.949L135.073 438.068L146.744 440.779Z" fill="#9D404B"/>
<path d="M170.088 355.428V370.557L158.416 367.816L146.744 365.106L135.073 362.365L121.796 359.275V344.117L135.073 347.236L146.744 349.947L170.088 355.428Z" fill="#9D404B"/>
<path d="M135.073 316.95V332.078L121.796 328.989V313.86L135.073 316.95Z" fill="#9D404B"/>
<path d="M135.073 286.662V301.821L121.796 298.701V283.573L135.073 286.662Z" fill="#9D404B"/>
<path d="M146.744 228.858V243.987L135.073 241.247L121.796 238.157V223.028L135.073 226.118L146.744 228.858Z" fill="#9D404B"/>
<path d="M181.585 206.704V221.862L170.088 219.18V204.022L181.585 206.704Z" fill="#9D404B"/>
<path d="M181.585 267.278V282.407L170.088 279.725V264.596L181.585 267.278Z" fill="#9D404B"/>
<path d="M181.585 297.535V312.694L170.088 310.012V294.854L181.585 297.535Z" fill="#9D404B"/>
<path d="M181.585 388.367V403.525L170.088 400.844L158.417 398.103V382.945L170.088 385.686L181.585 388.367Z" fill="#9D404B"/>
<path d="M181.585 600.318V615.447L170.088 612.765L158.417 610.025V594.896L170.088 597.636L181.585 600.318Z" fill="#9D404B"/>
<path d="M158.416 201.282V216.44L146.745 213.7L135.073 210.989V195.831L146.745 198.571L158.416 201.282Z" fill="#9D404B"/>
<path d="M158.416 261.856V276.985L146.744 274.274L135.073 271.534L121.796 268.444V253.286L135.073 256.405L146.744 259.116L158.416 261.856Z" fill="#9D404B"/>
<path d="M146.745 380.234V395.363L135.073 392.652V377.494L146.745 380.234Z" fill="#9D404B"/>
<path d="M146.745 471.066V486.195L135.073 483.484V468.326L146.745 471.066Z" fill="#9D404B"/>
<path d="M146.745 592.185V607.314L135.073 604.574V589.445L146.745 592.185Z" fill="#9D404B"/>
<path d="M170.088 658.181V673.31L158.416 670.57L146.745 667.859L135.073 665.119V649.99L146.745 652.73L158.416 655.441L170.088 658.181Z" fill="#9D404B"/>
<path d="M158.416 292.114V307.272L146.745 304.532V289.403L158.416 292.114Z" fill="#9D404B"/>
<path d="M158.416 534.351V549.48L146.745 546.769V531.611L158.416 534.351Z" fill="#9D404B"/>
<path d="M170.088 234.309V249.438L158.417 246.698V231.569L170.088 234.309Z" fill="#9D404B"/>
<path d="M170.088 325.141V340.27L158.416 337.529L146.745 334.819V319.69L158.416 322.401L170.088 325.141Z" fill="#9D404B"/>
<path d="M170.088 415.973V431.101L158.416 428.361L146.745 425.65L135.073 422.91V407.781L146.745 410.521L158.416 413.232L170.088 415.973Z" fill="#9D404B"/>
<path d="M181.585 448.941V464.07L170.088 461.388L158.417 458.648V443.519L170.088 446.259L181.585 448.941Z" fill="#9D404B"/>
<path d="M170.088 476.517V491.675L158.417 488.935V473.777L170.088 476.517Z" fill="#9D404B"/>
<path d="M170.088 506.804V521.933L158.416 519.193L146.745 516.482V501.353L158.416 504.064L170.088 506.804Z" fill="#9D404B"/>
<path d="M170.088 567.349V582.507L158.417 579.767V564.609L170.088 567.349Z" fill="#9D404B"/>
<path d="M170.088 627.894V643.052L158.417 640.312V625.154L170.088 627.894Z" fill="#9D404B"/>
<path d="M170.088 173.764V188.893L158.417 186.153V171.024L170.088 173.764Z" fill="#9D404B"/>
<path d="M111.904 698.467V713.479L103.296 717.21V702.198L111.904 698.467Z" fill="#942336"/>
<path d="M64.7204 658.822V673.835L57.1045 677.129V662.116L64.7204 658.822Z" fill="#942336"/>
<path d="M64.7204 598.831V613.815L57.1045 617.108V602.125L64.7204 598.831Z" fill="#942336"/>
<path d="M111.904 518.435V533.448L103.296 537.179V522.166L111.904 518.435Z" fill="#942336"/>
<path d="M111.904 428.42V443.403L103.296 447.134V432.151L111.904 428.42Z" fill="#942336"/>
<path d="M111.904 398.395V413.407L103.296 417.139V402.126L111.904 398.395Z" fill="#942336"/>
<path d="M111.904 368.399V383.412L103.296 387.143V372.131L111.904 368.399Z" fill="#942336"/>
<path d="M111.904 248.359V263.372L103.296 267.103L93.6665 271.242V256.23L103.296 252.09L111.904 248.359Z" fill="#942336"/>
<path d="M111.904 218.364V233.376L103.296 237.107V222.095L111.904 218.364Z" fill="#942336"/>
<path d="M111.904 164.29V173.356L103.296 177.087V167.992L111.904 164.29Z" fill="#942336"/>
<path d="M111.904 188.339V203.351L103.296 207.083L93.6665 211.222V196.21L103.296 192.07L111.904 188.339Z" fill="#942336"/>
<path d="M103.296 312.111V327.123L93.6665 331.262V316.25L103.296 312.111Z" fill="#942336"/>
<path d="M103.296 492.171V507.154L93.6665 511.293V496.31L103.296 492.171Z" fill="#942336"/>
<path d="M93.6667 226.234V241.247L84.0083 245.444V230.432L93.6667 226.234Z" fill="#942336"/>
<path d="M93.6667 376.27V391.282L84.0083 395.48V380.468L93.6667 376.27Z" fill="#942336"/>
<path d="M103.296 432.151V447.134L93.6667 451.273L84.0083 455.471V440.488L93.6667 436.29L103.296 432.151Z" fill="#942336"/>
<path d="M93.6667 526.306V541.318L84.0083 545.516V530.503L93.6667 526.306Z" fill="#942336"/>
<path d="M103.296 552.162V567.174L93.6667 571.314L84.0083 575.511V560.499L93.6667 556.301L103.296 552.162Z" fill="#942336"/>
<path d="M103.296 672.202V687.215L93.6667 691.354L84.0083 695.552V680.539L93.6667 676.342L103.296 672.202Z" fill="#942336"/>
<path d="M84.0081 290.452V305.435L74.3496 309.604V294.62L84.0081 290.452Z" fill="#942336"/>
<path d="M84.0079 350.443V365.455L74.3495 369.624L64.7202 373.763V358.751L74.3495 354.611L84.0079 350.443Z" fill="#942336"/>
<path d="M84.0079 470.483V485.496L74.3495 489.664L64.7202 493.803V478.791L74.3495 474.652L84.0079 470.483Z" fill="#942336"/>
<path d="M84.0081 590.524V605.507L74.3496 609.675V594.692L84.0081 590.524Z" fill="#942336"/>
<path d="M84.0081 650.515V665.527L74.3496 669.695V654.683L84.0081 650.515Z" fill="#942336"/>
<path d="M74.3495 714.703V729.716L64.7202 733.855V718.843L74.3495 714.703Z" fill="#942336"/>
<path d="M64.7204 184.637V193.732L57.1045 197.026V187.931L64.7204 184.637Z" fill="#942336"/>
<path d="M93.6665 172.161V181.226L84.0081 185.424L74.3496 189.593V180.498L93.6665 172.161Z" fill="#942336"/>
<path d="M84.0079 200.407V215.42L74.3495 219.588L64.7202 223.727V208.715L74.3495 204.576L84.0079 200.407Z" fill="#942336"/>
<path d="M74.3496 234.6V249.613L64.7204 253.752L57.1045 257.046V242.034L64.7204 238.74L74.3496 234.6Z" fill="#942336"/>
<path d="M64.7204 268.735V283.747L57.1045 287.041V272.029L64.7204 268.735Z" fill="#942336"/>
<path d="M84.0081 260.427V275.44L74.3496 279.608V264.596L84.0081 260.427Z" fill="#942336"/>
<path d="M103.296 282.115V297.098L93.6665 301.238V286.254L103.296 282.115Z" fill="#942336"/>
<path d="M64.7204 328.755V343.768L57.1045 347.062V332.049L64.7204 328.755Z" fill="#942336"/>
<path d="M84.0081 320.447V335.46L74.3496 339.628V324.616L84.0081 320.447Z" fill="#942336"/>
<path d="M111.904 338.375V353.387L103.296 357.118L93.6665 361.258V346.245L103.296 342.106L111.904 338.375Z" fill="#942336"/>
<path d="M74.3496 384.636V399.648L64.7204 403.788L57.1045 407.082V392.069L64.7204 388.775L74.3496 384.636Z" fill="#942336"/>
<path d="M84.0079 410.463V425.475L74.3495 429.644L64.7202 433.783V418.771L74.3495 414.632L84.0079 410.463Z" fill="#942336"/>
<path d="M74.3496 444.656V459.639L64.7204 463.779L57.1045 467.073V452.09L64.7204 448.796L74.3496 444.656Z" fill="#942336"/>
<path d="M111.904 458.415V473.427L103.296 477.159L93.6665 481.298V466.286L103.296 462.146L111.904 458.415Z" fill="#942336"/>
<path d="M64.7204 508.787V523.799L57.1045 527.093V512.081L64.7204 508.787Z" fill="#942336"/>
<path d="M84.0081 500.479V515.491L74.3496 519.66V504.647L84.0081 500.479Z" fill="#942336"/>
<path d="M74.3495 534.672V549.684L64.7202 553.824V538.811L74.3495 534.672Z" fill="#942336"/>
<path d="M74.3496 564.667V579.68L64.7204 583.819L57.1045 587.113V572.101L64.7204 568.807L74.3496 564.667Z" fill="#942336"/>
<path d="M111.904 578.455V593.439L103.296 597.17L93.6665 601.309V586.326L103.296 582.187L111.904 578.455Z" fill="#942336"/>
<path d="M103.296 642.207V657.19L93.6665 661.329V646.346L103.296 642.207Z" fill="#942336"/>
<path d="M74.3496 684.708V699.72L64.7204 703.859L57.1045 707.153V692.141L64.7204 688.847L74.3496 684.708Z" fill="#942336"/>
<path d="M93.6667 706.337V721.349L84.0083 725.547V710.535L93.6667 706.337Z" fill="#942336"/>
<path d="M74.3496 624.688V639.7L64.7204 643.839L57.1045 647.133V632.121L64.7204 628.827L74.3496 624.688Z" fill="#942336"/>
<path d="M93.6667 616.321V631.334L84.0083 635.531V620.519L93.6667 616.321Z" fill="#942336"/>
<path d="M111.904 608.451V623.463L103.296 627.194V612.182L111.904 608.451Z" fill="#942336"/>
<path d="M198.801 89.0245V757H164.398V103.745L198.801 89.0245Z" fill="#BC3A3D"/>
<path d="M393.779 189.563V757H198.801V340.124C238.835 313.014 356.954 231.569 393.779 189.563Z" fill="#CF5951"/>
<path d="M393.779 123.393V189.563C356.954 231.569 238.835 313.014 198.801 340.124V89.0245L393.779 123.393Z" fill="#D56A62"/>
<path d="M820.414 0V757H734.625V38.1867L820.414 0Z" fill="#D4605C"/>
<path d="M948.862 33.6976V757H820.414V0L948.862 33.6976Z" fill="#F9CFD1"/>
<path d="M841.044 17.082V37.4871L828.409 34.164V13.7589L841.044 17.082Z" fill="#A75749"/>
<path d="M863.833 23.0578V43.4629L849.943 39.8191V19.414L863.833 23.0578Z" fill="#A75749"/>
<path d="M888.168 29.4416V49.8467L874.045 46.1447V25.7396L888.168 29.4416Z" fill="#A75749"/>
<path d="M913.059 35.9713V56.3764L897.068 52.1788V31.7737L913.059 35.9713Z" fill="#A75749"/>
<path d="M939.758 42.9673V63.3724L921.958 58.7084V38.3033L939.758 42.9673Z" fill="#A75749"/>
<path d="M888.168 64.4218V84.8269L874.045 81.1248L863.833 78.443V58.0379L874.045 60.7197L888.168 64.4218Z" fill="#A75749"/>
<path d="M913.059 70.9514V91.3565L897.068 87.1589V66.7538L913.059 70.9514Z" fill="#A75749"/>
<path d="M863.833 270.776V291.181L849.943 289.432V269.027L863.833 270.776Z" fill="#A75749"/>
<path d="M888.168 273.836V294.242L874.045 292.463V272.058L888.168 273.836Z" fill="#A75749"/>
<path d="M888.168 516.686V535.809L874.045 534.322L863.833 533.273V514.179L874.045 515.229L888.168 516.686Z" fill="#A75749"/>
<path d="M913.059 519.251V538.374L897.068 536.712V517.619L913.059 519.251Z" fill="#A75749"/>
<path d="M939.758 522.021V541.143L921.958 539.278V520.184L939.758 522.021Z" fill="#A75749"/>
<path d="M849.943 54.3942V74.7993L841.044 72.4673L828.409 69.1441V48.739L841.044 52.0622L849.943 54.3942Z" fill="#A75749"/>
<path d="M849.943 89.3743V109.779L841.044 107.447L828.409 104.124V83.7192L841.044 87.0423L849.943 89.3743Z" fill="#A75749"/>
<path d="M841.044 124.005V144.41L828.409 141.67V121.265L841.044 124.005Z" fill="#A75749"/>
<path d="M841.044 158.985V179.39L828.409 176.65V156.245L841.044 158.985Z" fill="#A75749"/>
<path d="M841.044 193.965V214.37L828.409 211.63V191.225L841.044 193.965Z" fill="#A75749"/>
<path d="M863.833 232.88V253.315L849.943 250.633L841.044 248.884L828.409 246.435V226.001L841.044 228.45L849.943 230.199L863.833 232.88Z" fill="#A75749"/>
<path d="M841.044 267.89V288.295L828.409 286.721V266.316L841.044 267.89Z" fill="#A75749"/>
<path d="M841.044 302.87V323.275L828.409 321.701V301.296L841.044 302.87Z" fill="#A75749"/>
<path d="M841.044 337.85V355.807L828.409 353.941V336.276L841.044 337.85Z" fill="#A75749"/>
<path d="M849.943 371.285V390.408L841.044 389.067L828.409 387.201V368.079L841.044 369.944L849.943 371.285Z" fill="#A75749"/>
<path d="M849.943 445.181V464.303L841.044 463.371L828.409 462.059V442.936L841.044 444.248L849.943 445.181Z" fill="#A75749"/>
<path d="M849.943 512.751V531.844L841.044 530.912L828.409 529.6V510.506L841.044 511.818L849.943 512.751Z" fill="#A75749"/>
<path d="M849.943 480.336V499.458L841.044 498.526L828.409 497.214V478.091L841.044 479.403L849.943 480.336Z" fill="#A75749"/>
<path d="M863.833 128.931V149.336L849.943 146.334V125.929L863.833 128.931Z" fill="#A75749"/>
<path d="M863.833 163.911V184.316L849.943 181.314V160.909L863.833 163.911Z" fill="#A75749"/>
<path d="M863.833 198.891V219.297L849.943 216.294V195.889L863.833 198.891Z" fill="#A75749"/>
<path d="M863.833 305.756V326.161L849.943 324.412V304.007L863.833 305.756Z" fill="#A75749"/>
<path d="M863.833 340.736V359.217L849.943 357.148V338.987L863.833 340.736Z" fill="#A75749"/>
<path d="M863.833 410.784V429.906L849.943 428.157L841.043 427.02V407.898L849.943 409.035L863.833 410.784Z" fill="#A75749"/>
<path d="M874.045 374.871V393.993L863.833 392.478V373.355L874.045 374.871Z" fill="#A75749"/>
<path d="M874.045 447.659V466.781L863.833 465.732V446.609L874.045 447.659Z" fill="#A75749"/>
<path d="M888.168 99.402V119.807L874.045 116.105V95.6999L888.168 99.402Z" fill="#A75749"/>
<path d="M888.168 134.207V154.612L874.045 151.552V131.146L888.168 134.207Z" fill="#A75749"/>
<path d="M888.168 169.187V189.593L874.045 186.532V166.127L888.168 169.187Z" fill="#A75749"/>
<path d="M888.168 204.168V224.573L874.045 221.512V201.107L888.168 204.168Z" fill="#A75749"/>
<path d="M888.168 237.632V258.066L874.045 255.297V234.863L888.168 237.632Z" fill="#A75749"/>
<path d="M888.168 308.817V329.222L874.045 327.444V307.038L888.168 308.817Z" fill="#A75749"/>
<path d="M913.059 346.945V366.534L897.068 364.144L888.168 362.832L874.045 360.733V342.019L888.168 343.797L897.068 344.934L913.059 346.945Z" fill="#A75749"/>
<path d="M888.168 413.845V432.967L874.045 431.189V412.066L888.168 413.845Z" fill="#A75749"/>
<path d="M897.068 485.204V504.327L888.168 503.423L874.045 501.936V482.814L888.168 484.3L897.068 485.204Z" fill="#A75749"/>
<path d="M913.059 174.609V195.014L897.068 191.546V171.14L913.059 174.609Z" fill="#A75749"/>
<path d="M913.059 416.993V436.115L897.068 434.104V414.981L913.059 416.993Z" fill="#A75749"/>
<path d="M939.758 77.9475V98.3526L921.958 93.6885V73.2834L939.758 77.9475Z" fill="#A75749"/>
<path d="M913.059 105.932V126.337L897.068 122.139V101.734L913.059 105.932Z" fill="#A75749"/>
<path d="M939.758 112.928V133.333L921.958 128.669V108.264L939.758 112.928Z" fill="#A75749"/>
<path d="M913.059 139.629V160.034L897.068 156.565V136.16L913.059 139.629Z" fill="#A75749"/>
<path d="M939.758 145.401V165.806L921.958 161.958V141.553L939.758 145.401Z" fill="#A75749"/>
<path d="M939.758 180.381V200.786L921.958 196.938V176.533L939.758 180.381Z" fill="#A75749"/>
<path d="M913.059 209.589V229.995L897.068 226.526V206.121L913.059 209.589Z" fill="#A75749"/>
<path d="M939.758 215.361V235.766L921.958 231.919V211.513L939.758 215.361Z" fill="#A75749"/>
<path d="M913.059 242.442V262.876L897.068 259.786V239.352L913.059 242.442Z" fill="#A75749"/>
<path d="M939.758 247.63V268.065L921.958 264.625V244.191L939.758 247.63Z" fill="#A75749"/>
<path d="M913.059 276.985V297.39L897.068 295.378V274.973L913.059 276.985Z" fill="#A75749"/>
<path d="M939.758 280.366V300.771L921.958 298.527V278.122L939.758 280.366Z" fill="#A75749"/>
<path d="M913.059 311.965V332.37L897.068 330.359V309.953L913.059 311.965Z" fill="#A75749"/>
<path d="M939.758 315.346V335.751L921.958 333.507V313.102L939.758 315.346Z" fill="#A75749"/>
<path d="M939.758 350.326V370.527L921.958 367.875V348.082L939.758 350.326Z" fill="#A75749"/>
<path d="M913.059 380.672V399.794L897.068 397.404L888.168 396.092V376.97L897.068 378.281L913.059 380.672Z" fill="#A75749"/>
<path d="M939.758 384.665V403.788L921.958 401.135V382.013L939.758 384.665Z" fill="#A75749"/>
<path d="M939.758 420.374V439.497L921.958 437.252V418.13L939.758 420.374Z" fill="#A75749"/>
<path d="M897.068 450.049V469.172L888.168 468.268V449.145L897.068 450.049Z" fill="#A75749"/>
<path d="M939.758 454.48V473.602L921.958 471.737V452.614L939.758 454.48Z" fill="#A75749"/>
<path d="M939.758 489.635V508.757L921.958 506.892L913.059 505.988V486.866L921.958 487.769L939.758 489.635Z" fill="#A75749"/>
<path d="M784.96 181.052V757H684.261V156.74L784.96 181.052Z" fill="#EFA3A0"/>
<path d="M684.261 156.74V757H644.344V177.379L684.261 156.74Z" fill="#CD534D"/>
<path d="M694.591 179.915V424.718H703.316V183.092L694.591 179.915Z" fill="#EA685C"/>
<path d="M717.555 184.754V429.586H726.309V187.931L717.555 184.754Z" fill="#EA685C"/>
<path d="M740.549 187.669V432.501H749.303V190.846L740.549 187.669Z" fill="#EA685C"/>
<path d="M763.542 190.584V435.416H772.296V193.761L763.542 190.584Z" fill="#EA685C"/>
<path d="M503.436 21.6294V757H420.157V59.1165L503.436 21.6294Z" fill="#D46557"/>
<path d="M503.436 21.6294V757H671.51V61.5942L503.436 21.6294ZM653.156 539.044L566.668 524.469V504.472L653.156 519.047V539.044ZM653.156 505.23L545.833 485.292V463.808L653.156 483.747V505.23ZM653.156 468.006L581.433 454.684V436.232L653.156 449.553V468.006ZM653.156 429.556L566.668 413.495V398.191L653.156 415.739V429.556ZM653.156 396.85L548.372 373.763V355.282L653.156 378.369V396.85ZM653.156 360.879L569.236 343.826V325.345L653.156 342.398V360.879ZM653.156 325.345L554.967 305.406V288.994L653.156 308.933V325.345ZM653.156 288.091L541.252 269.231V250.75L653.156 269.61V288.091ZM653.156 251.245L531.565 222.328V205.917L653.156 234.834V251.245ZM653.156 218.393L595.672 204.721V186.24L653.156 199.912V218.393ZM653.156 179.915L552.428 155.982V139.571L653.156 163.503V179.915ZM653.156 143.535L537.167 115.959V101.268L653.156 128.844V143.535ZM653.156 108.876L566.668 88.3249V68.3279L653.156 88.8788V108.876Z" fill="#E4635A"/>
<path d="M653.156 88.8788V108.876L566.668 88.3249V68.3279L653.156 88.8788Z" fill="#F9CDCE"/>
<path d="M653.156 128.844V143.535L537.167 115.959V101.268L653.156 128.844Z" fill="#F9CDCE"/>
<path d="M653.156 163.503V179.915L552.428 155.982V139.571L653.156 163.503Z" fill="#F9CDCE"/>
<path d="M653.156 199.912V218.393L595.672 204.721V186.24L653.156 199.912Z" fill="#F9CDCE"/>
<path d="M653.156 234.834V251.245L531.565 222.328V205.917L653.156 234.834Z" fill="#F9CDCE"/>
<path d="M653.156 269.61V288.091L541.252 269.231V250.75L653.156 269.61Z" fill="#F9CDCE"/>
<path d="M653.156 308.933V325.345L554.967 305.406V288.994L653.156 308.933Z" fill="#F9CDCE"/>
<path d="M653.156 342.398V360.879L569.236 343.826V325.345L653.156 342.398Z" fill="#F9CDCE"/>
<path d="M653.156 378.369V396.85L548.373 373.763V355.282L653.156 378.369Z" fill="#F9CDCE"/>
<path d="M653.156 449.553V468.006L581.433 454.684V436.232L653.156 449.553Z" fill="#F9CDCE"/>
<path d="M653.157 483.747V505.23L545.834 485.292V463.808L653.157 483.747Z" fill="#F9CDCE"/>
<path d="M653.156 519.047V539.044L566.668 524.469V504.472L653.156 519.047Z" fill="#F9CDCE"/>
<path d="M653.157 557.526V577.406L545.834 559.333V539.453L653.157 557.526Z" fill="#F9CDCE"/>
<path d="M653.156 415.739V429.556L566.668 413.495V398.191L653.156 415.739Z" fill="#F9CDCE"/>
<path d="M434.338 456.87V75.7321L443.384 72.7879V456.87H434.338Z" fill="#E36257"/>
<path d="M449.103 450.428V69.2899L458.149 66.3457V450.428H449.103Z" fill="#E36257"/>
<path d="M463.956 444.015V62.8769L473.001 59.9327V444.015H463.956Z" fill="#E36257"/>
<path d="M479.362 437.864V56.7553L488.408 53.782V437.864H479.362Z" fill="#E36257"/>
<path d="M1178.16 223.669V757H996.075V288.353L1178.16 223.669Z" fill="#EE9A96"/>
<path d="M1287.4 254.656V757H1178.16V223.669L1287.4 254.656Z" fill="#F8CBC3"/>
<path d="M1164.38 268.298V277.801L1138.53 286.983V277.48L1164.38 268.298Z" fill="#EF9E9D"/>
<path d="M1024.26 318.057V327.56L1002.93 335.139V325.636L1024.26 318.057Z" fill="#EF9E9D"/>
<path d="M1042.09 311.732V321.235L1030.39 325.403V315.9L1042.09 311.732Z" fill="#EF9E9D"/>
<path d="M1086.59 295.932V305.435L1057.56 315.754V306.251L1086.59 295.932Z" fill="#EF9E9D"/>
<path d="M1133.74 279.171V288.674L1119.62 293.688V284.185L1133.74 279.171Z" fill="#EF9E9D"/>
<path d="M1164.38 248.097V257.6L1138.53 266.782V257.279L1164.38 248.097Z" fill="#EF9E9D"/>
<path d="M1024.26 297.856V307.359L1002.93 314.938V305.435L1024.26 297.856Z" fill="#EF9E9D"/>
<path d="M1042.09 291.531V301.033L1030.39 305.202V295.699L1042.09 291.531Z" fill="#EF9E9D"/>
<path d="M1086.59 275.731V285.234L1057.56 295.553V286.05L1086.59 275.731Z" fill="#EF9E9D"/>
<path d="M1133.74 258.97V268.473L1119.62 273.487V263.984L1133.74 258.97Z" fill="#EF9E9D"/>
<path d="M1164.38 288.499V298.002L1138.53 307.184V297.681L1164.38 288.499Z" fill="#EF9E9D"/>
<path d="M1024.26 338.258V347.761L1002.93 355.34V345.837L1024.26 338.258Z" fill="#EF9E9D"/>
<path d="M1042.09 331.933V341.436L1030.39 345.604V336.101L1042.09 331.933Z" fill="#EF9E9D"/>
<path d="M1086.59 316.133V325.636L1057.56 335.955V326.452L1086.59 316.133Z" fill="#EF9E9D"/>
<path d="M1133.74 299.372V308.875L1119.62 313.889V304.386L1133.74 299.372Z" fill="#EF9E9D"/>
<path d="M1164.38 308.7V318.203L1138.53 327.385V317.882L1164.38 308.7Z" fill="#EF9E9D"/>
<path d="M1024.26 358.459V367.962L1002.93 375.541V366.038L1024.26 358.459Z" fill="#EF9E9D"/>
<path d="M1042.09 352.134V361.637L1030.39 365.805V356.302L1042.09 352.134Z" fill="#EF9E9D"/>
<path d="M1086.59 336.334V345.837L1057.56 356.156V346.653L1086.59 336.334Z" fill="#EF9E9D"/>
<path d="M1133.74 319.573V329.076L1119.62 334.09V324.587L1133.74 319.573Z" fill="#EF9E9D"/>
<path d="M1164.38 328.901V338.404L1138.53 347.586V338.083L1164.38 328.901Z" fill="#EF9E9D"/>
<path d="M1024.26 378.66V388.163L1002.93 395.742V386.239L1024.26 378.66Z" fill="#EF9E9D"/>
<path d="M1042.09 372.335V381.838L1030.39 386.006V376.503L1042.09 372.335Z" fill="#EF9E9D"/>
<path d="M1086.59 356.535V366.038L1057.56 376.357V366.855L1086.59 356.535Z" fill="#EF9E9D"/>
<path d="M1133.74 339.774V349.277L1119.62 354.291V344.788L1133.74 339.774Z" fill="#EF9E9D"/>
<path d="M1164.38 349.102V358.605L1138.53 367.787V358.284L1164.38 349.102Z" fill="#EF9E9D"/>
<path d="M1024.26 398.861V408.364L1002.93 415.943V406.44L1024.26 398.861Z" fill="#EF9E9D"/>
<path d="M1042.09 392.536V402.039L1030.39 406.207V396.704L1042.09 392.536Z" fill="#EF9E9D"/>
<path d="M1086.59 376.736V386.239L1057.56 396.558V387.056L1086.59 376.736Z" fill="#EF9E9D"/>
<path d="M1133.74 359.975V369.478L1119.62 374.492V364.989L1133.74 359.975Z" fill="#EF9E9D"/>
<path d="M1164.38 389.504V399.007L1138.53 408.189V398.686L1164.38 389.504Z" fill="#EF9E9D"/>
<path d="M1024.26 439.263V448.766L1002.93 456.345V446.842L1024.26 439.263Z" fill="#EF9E9D"/>
<path d="M1042.09 432.938V442.441L1030.39 446.609V437.106L1042.09 432.938Z" fill="#EF9E9D"/>
<path d="M1086.59 417.139V426.641L1057.56 436.961V427.458L1086.59 417.139Z" fill="#EF9E9D"/>
<path d="M1133.74 400.377V409.88L1119.62 414.894V405.391L1133.74 400.377Z" fill="#EF9E9D"/>
<path d="M1164.38 369.303V378.806L1138.53 387.988V378.485L1164.38 369.303Z" fill="#EF9E9D"/>
<path d="M1024.26 419.062V428.565L1002.93 436.144V426.641L1024.26 419.062Z" fill="#EF9E9D"/>
<path d="M1042.09 412.737V422.24L1030.39 426.408V416.905L1042.09 412.737Z" fill="#EF9E9D"/>
<path d="M1086.59 396.937V406.44L1057.56 416.76V407.257L1086.59 396.937Z" fill="#EF9E9D"/>
<path d="M1133.74 380.176V389.679L1119.62 394.693V385.19L1133.74 380.176Z" fill="#EF9E9D"/>
<path d="M1164.38 409.705V419.208L1138.53 428.39V418.888L1164.38 409.705Z" fill="#EF9E9D"/>
<path d="M1024.26 459.465V468.967L1002.93 476.546V467.044L1024.26 459.465Z" fill="#EF9E9D"/>
<path d="M1042.09 453.139V462.642L1030.39 466.81V457.307L1042.09 453.139Z" fill="#EF9E9D"/>
<path d="M1086.59 437.34V446.842L1057.56 457.162V447.659L1086.59 437.34Z" fill="#EF9E9D"/>
<path d="M1133.74 420.578V430.081L1119.62 435.095V425.592L1133.74 420.578Z" fill="#EF9E9D"/>
<path d="M1164.38 429.906V439.409L1138.53 448.591V439.089L1164.38 429.906Z" fill="#EF9E9D"/>
<path d="M1024.26 479.666V489.169L1002.93 496.748V487.245L1024.26 479.666Z" fill="#EF9E9D"/>
<path d="M1042.09 473.34V482.843L1030.39 487.011V477.508L1042.09 473.34Z" fill="#EF9E9D"/>
<path d="M1086.59 457.541V467.044L1057.56 477.363V467.86L1086.59 457.541Z" fill="#EF9E9D"/>
<path d="M1133.74 440.779V450.282L1119.62 455.296V445.793L1133.74 440.779Z" fill="#EF9E9D"/>
<path d="M1164.38 450.107V459.61L1138.53 468.793V459.29L1164.38 450.107Z" fill="#EF9E9D"/>
<path d="M1024.26 499.867V509.37L1002.93 516.949V507.446L1024.26 499.867Z" fill="#EF9E9D"/>
<path d="M1042.09 493.541V503.044L1030.39 507.212V497.71L1042.09 493.541Z" fill="#EF9E9D"/>
<path d="M1086.59 477.742V487.245L1057.56 497.564V488.061L1086.59 477.742Z" fill="#EF9E9D"/>
<path d="M1133.74 460.98V470.483L1119.62 475.497V465.994L1133.74 460.98Z" fill="#EF9E9D"/>
<path d="M1164.38 470.308V479.811L1138.53 488.994V479.491L1164.38 470.308Z" fill="#EF9E9D"/>
<path d="M1024.26 520.068V529.571L1002.93 537.15V527.647L1024.26 520.068Z" fill="#EF9E9D"/>
<path d="M1042.09 513.742V523.245L1030.39 527.413V517.911L1042.09 513.742Z" fill="#EF9E9D"/>
<path d="M1086.59 497.943V507.446L1057.56 517.765V508.262L1086.59 497.943Z" fill="#EF9E9D"/>
<path d="M1133.74 481.181V490.684L1119.62 495.698V486.195L1133.74 481.181Z" fill="#EF9E9D"/>
<path d="M1164.38 510.71V520.213L1138.53 529.396V519.893L1164.38 510.71Z" fill="#EF9E9D"/>
<path d="M1024.26 560.47V569.973L1002.93 577.552V568.049L1024.26 560.47Z" fill="#EF9E9D"/>
<path d="M1042.09 554.144V563.647L1030.39 567.816V558.313L1042.09 554.144Z" fill="#EF9E9D"/>
<path d="M1086.59 538.345V547.848L1057.56 558.167V548.664L1086.59 538.345Z" fill="#EF9E9D"/>
<path d="M1133.74 521.583V531.086L1119.62 536.1V526.597L1133.74 521.583Z" fill="#EF9E9D"/>
<path d="M1164.38 490.509V500.012L1138.53 509.195V499.692L1164.38 490.509Z" fill="#EF9E9D"/>
<path d="M1024.26 540.269V549.772L1002.93 557.351V547.848L1024.26 540.269Z" fill="#EF9E9D"/>
<path d="M1042.09 533.943V543.446L1030.39 547.615V538.112L1042.09 533.943Z" fill="#EF9E9D"/>
<path d="M1086.59 518.144V527.647L1057.56 537.966V528.463L1086.59 518.144Z" fill="#EF9E9D"/>
<path d="M1133.74 501.382V510.885L1119.62 515.899V506.396L1133.74 501.382Z" fill="#EF9E9D"/>
<path d="M1164.38 530.911V540.414L1138.53 549.597V540.094L1164.38 530.911Z" fill="#EF9E9D"/>
<path d="M1024.26 580.671V590.174L1002.93 597.753V588.25L1024.26 580.671Z" fill="#EF9E9D"/>
<path d="M1042.09 574.345V583.848L1030.39 588.017V578.514L1042.09 574.345Z" fill="#EF9E9D"/>
<path d="M1086.59 558.546V568.049L1057.56 578.368V568.865L1086.59 558.546Z" fill="#EF9E9D"/>
<path d="M1133.74 541.784V551.287L1119.62 556.301V546.798L1133.74 541.784Z" fill="#EF9E9D"/>
<path d="M1164.38 551.113V560.616L1138.53 569.798V560.295L1164.38 551.113Z" fill="#EF9E9D"/>
<path d="M1024.26 600.872V610.375L1002.93 617.954V608.451L1024.26 600.872Z" fill="#EF9E9D"/>
<path d="M1042.09 594.546V604.049L1030.39 608.218V598.715L1042.09 594.546Z" fill="#EF9E9D"/>
<path d="M1086.59 578.747V588.25L1057.56 598.569V589.066L1086.59 578.747Z" fill="#EF9E9D"/>
<path d="M1133.74 561.986V571.489L1119.62 576.502V566.999L1133.74 561.986Z" fill="#EF9E9D"/>
<path d="M1164.38 571.314V580.817L1138.53 589.999V580.496L1164.38 571.314Z" fill="#EF9E9D"/>
<path d="M1024.26 621.073V630.576L1002.93 638.155V628.652L1024.26 621.073Z" fill="#EF9E9D"/>
<path d="M1042.09 614.747V624.25L1030.39 628.419V618.916L1042.09 614.747Z" fill="#EF9E9D"/>
<path d="M1086.59 598.948V608.451L1057.56 618.77V609.267L1086.59 598.948Z" fill="#EF9E9D"/>
<path d="M1133.74 582.187V591.69L1119.62 596.703V587.2L1133.74 582.187Z" fill="#EF9E9D"/>
<path d="M1215.04 296.982V757H1150.32V323.625L1215.04 296.982Z" fill="#C24051"/>
<path d="M1337.01 326.103V757H1215.04V296.982L1337.01 326.103Z" fill="#E36255"/>
<path d="M1324.4 590.932V341.902L1315.27 339.366V588.396L1324.4 590.932Z" fill="#F9CDCE"/>
<path d="M1296.54 585.218V336.189L1287.4 333.652V582.682L1296.54 585.218Z" fill="#F9CDCE"/>
<path d="M1271.27 578.135V329.134L1262.1 326.598V575.599L1271.27 578.135Z" fill="#F9CDCE"/>
<path d="M1245.76 572.946V323.946L1236.6 321.409V570.41L1245.76 572.946Z" fill="#F9CDCE"/>
<path d="M159.116 357.731V757H0V410.172L159.116 357.731Z" fill="#9F4142"/>
<path d="M298.245 391.02V478.704C277.79 505.463 218.088 578.572 159.116 602.854V357.731L298.245 391.02Z" fill="#EC6559"/>
<path d="M298.245 478.704V757H159.116V602.854C218.088 578.572 277.79 505.463 298.245 478.704Z" fill="#D25954"/>
<path d="M291.183 435.357V447.017L168.279 419.179V407.519L291.183 435.357Z" fill="#F9CDCD"/>
<path d="M291.183 467.423V481.998L168.279 454.159V439.584L291.183 467.423Z" fill="#F9CDCD"/>
<path d="M291.183 496.573V508.233L168.279 483.309V471.649L291.183 496.573Z" fill="#F9CDCD"/>
<path d="M291.183 522.808V537.383L168.279 518.29V503.714L291.183 522.808Z" fill="#F9CDCD"/>
<path d="M291.183 554.873V569.477L168.279 550.384V535.809L291.183 554.873Z" fill="#F9CDCD"/>
<path d="M291.183 613.202V627.777L168.279 614.514V602.854L291.183 613.202Z" fill="#F9CDCD"/>
<path d="M291.183 636.522V651.098L168.279 643.664V629.089L291.183 636.522Z" fill="#F9CDCD"/>
<path d="M168.279 658.239L291.183 665.673V680.248L168.279 672.814V658.239Z" fill="#F9CDCD"/>
<path d="M291.183 584.052V598.627L168.279 582.449V567.874L291.183 584.052Z" fill="#F9CDCD"/>
<path d="M148.203 407.519V419.179L25.2988 447.017V435.357L148.203 407.519Z" fill="#F9CDCD"/>
<path d="M148.203 439.584V454.159L25.2988 481.998V467.423L148.203 439.584Z" fill="#F9CDCD"/>
<path d="M148.203 471.649V483.309L25.2988 508.233V496.573L148.203 471.649Z" fill="#F9CDCD"/>
<path d="M148.203 503.714V518.29L25.2988 537.383V522.808L148.203 503.714Z" fill="#F9CDCD"/>
<path d="M148.203 535.809V550.384L25.2988 569.477V554.873L148.203 535.809Z" fill="#F9CDCD"/>
<path d="M148.203 567.874V582.449L25.2988 598.627V584.052L148.203 567.874Z" fill="#F9CDCD"/>
<path d="M148.203 602.854V614.514L25.2988 627.777V613.202L148.203 602.854Z" fill="#F9CDCD"/>
<path d="M148.203 629.089V643.664L25.2988 651.098V636.522L148.203 629.089Z" fill="#F9CDCD"/>
<path d="M148.203 658.239V672.814L25.2988 680.248V665.673L148.203 658.239Z" fill="#F9CDCD"/>
<path d="M467.078 296.982V757H404.925V326.278L467.078 296.982Z" fill="#D25954"/>
<path d="M584.35 323.916V362.074L467.078 487.274V296.982L584.35 323.916Z" fill="#EC6559"/>
<path d="M584.35 362.074V757H467.078V487.274L584.35 362.074Z" fill="#D25954"/>
<path d="M417.181 343.214V727.296H410.645V346.158L417.181 343.214Z" fill="#F9CDCD"/>
<path d="M429.465 337.704V727.296H424.563V339.891L429.465 337.704Z" fill="#F9CDCD"/>
<path d="M444.201 331.087V727.296H438.482V333.653L444.201 331.087Z" fill="#F9CDCD"/>
<path d="M461.183 323.45V727.296H452.4V327.385L461.183 323.45Z" fill="#F9CDCD"/>
<path d="M494.157 326.656V727.296H480.763V323.45L494.157 326.656Z" fill="#F9CDCD"/>
<path d="M522.11 333.332V727.296H511.168V330.737L522.11 333.332Z" fill="#F9CDCD"/>
<path d="M547.818 339.483V727.296H538.539V337.267L547.818 339.483Z" fill="#F9CDCD"/>
<path d="M575.801 346.187V727.296H564.654V343.534L575.801 346.187Z" fill="#F9CDCD"/>
<path d="M777.053 333.536V416.089C739.002 445.152 652.485 498.263 615.952 520.388V370.994L777.053 333.536Z" fill="#D25954"/>
<path d="M777.053 416.089V757H615.952V520.388C652.485 498.263 739.002 445.152 777.053 416.089Z" fill="#EC6559"/>
<path d="M885.397 377.932V757H777.053V333.536L885.397 377.932Z" fill="#EC6559"/>
<path d="M1004.77 446.959V757H921.462V453.314L1004.77 446.959Z" fill="#9F4142"/>
<path d="M1004.77 446.959V757H1127.91V470.338L1004.77 446.959ZM1019.1 465.003L1040.16 469.23V488.061L1019.1 483.455V465.003Z" fill="#F9CDCD"/>
<path d="M1040.16 469.23V488.061L1019.1 483.455V465.003L1040.16 469.23Z" fill="#D25954"/>
<path d="M1040.16 497.476V517.298L1019.1 514.063V493.22L1040.16 497.476Z" fill="#D25954"/>
<path d="M1040.16 525.898V543.621L1019.1 540.444V522.196L1040.16 525.898Z" fill="#D25954"/>
<path d="M1040.16 553.357V575.074L1019.1 572.684V549.917L1040.16 553.357Z" fill="#D25954"/>
<path d="M1040.16 587.317V602.971L1019.1 602.154V585.772L1040.16 587.317Z" fill="#D25954"/>
<path d="M1040.16 615.476H1019.1V629.352H1040.16V615.476Z" fill="#D25954"/>
<path d="M1040.16 644.131H1019.1V656.665H1040.16V644.131Z" fill="#D25954"/>
<path d="M1040.16 670.103H1019.1V683.542H1040.16V670.103Z" fill="#D25954"/>
<path d="M1040.16 695.173H1019.1V709.952H1040.16V695.173Z" fill="#D25954"/>
<path d="M1076.9 476.605V496.077L1055.83 491.471V472.378L1076.9 476.605Z" fill="#D25954"/>
<path d="M1076.9 504.88V522.983L1055.83 519.718V500.625L1076.9 504.88Z" fill="#D25954"/>
<path d="M1076.9 532.369V549.13L1055.83 545.953V528.667L1076.9 532.369Z" fill="#D25954"/>
<path d="M1076.9 559.333V579.301L1055.83 576.881V555.922L1076.9 559.333Z" fill="#D25954"/>
<path d="M1076.9 589.999V604.399L1055.83 603.583V588.454L1076.9 589.999Z" fill="#D25954"/>
<path d="M1076.9 615.476H1055.83V629.352H1076.9V615.476Z" fill="#D25954"/>
<path d="M1076.9 644.131H1055.83V656.665H1076.9V644.131Z" fill="#D25954"/>
<path d="M1076.9 670.103H1055.83V683.542H1076.9V670.103Z" fill="#D25954"/>
<path d="M1076.9 695.173H1055.83V709.952H1076.9V695.173Z" fill="#D25954"/>
<path d="M1115.01 484.242V504.414L1094.41 499.896V480.103L1115.01 484.242Z" fill="#D25954"/>
<path d="M1115.01 512.547V528.871L1094.41 525.664V508.408L1115.01 512.547Z" fill="#D25954"/>
<path d="M1115.01 539.074V554.844L1094.41 551.754V535.43L1115.01 539.074Z" fill="#D25954"/>
<path d="M1115.01 565.542V583.644L1094.41 581.283V562.19L1115.01 565.542Z" fill="#D25954"/>
<path d="M1115.01 592.797V605.915L1094.41 605.099V591.281L1115.01 592.797Z" fill="#D25954"/>
<path d="M1115.01 615.476H1094.41V629.352H1115.01V615.476Z" fill="#D25954"/>
<path d="M1115.01 644.131H1094.41V656.665H1115.01V644.131Z" fill="#D25954"/>
<path d="M1115.01 670.103H1094.41V683.542H1115.01V670.103Z" fill="#D25954"/>
<path d="M1115.01 695.173H1094.41V709.952H1115.01V695.173Z" fill="#D25954"/>
<path d="M1305.44 458.707V757H1170.25V491.092L1305.44 458.707Z" fill="#D25954"/>
<path d="M1449 494.328V757H1305.44V458.707L1449 494.328Z" fill="#F09E9E"/>
<path d="M1181.07 531.903V520.359L1294.03 493.483V503.219L1181.07 531.903Z" fill="#F09E9E"/>
<path d="M1294.03 518.698V528.754L1181.07 554.407V544L1294.03 518.698Z" fill="#F09E9E"/>
<path d="M1294.03 541.668V551.346L1181.07 574.608V564.58L1294.03 541.668Z" fill="#F09E9E"/>
<path d="M1294.03 567.174V576.473L1181.07 594.925V585.626L1294.03 567.174Z" fill="#F09E9E"/>
<path d="M1294.03 587.638V597.986L1181.07 615.418V606.906L1294.03 587.638Z" fill="#F09E9E"/>
<path d="M1294.03 610.258V621.335L1181.07 637.076V627.573L1294.03 610.258Z" fill="#F09E9E"/>
<path d="M1294.03 633.549V643.897L1181.07 656.549V647.221L1294.03 633.549Z" fill="#F09E9E"/>
<path d="M1294.03 657.569V668.704L1181.07 677.916V667.48L1294.03 657.569Z" fill="#F09E9E"/>
<path d="M1294.03 680.131V689.08L1181.07 695.843V687.331L1294.03 680.131Z" fill="#F09E9E"/>
<path d="M1294.03 701.236V713.071L1181.07 715.111V705.404L1294.03 701.236Z" fill="#F09E9E"/>
<path d="M376.562 533.331V571.226L206.591 627.632V559.974L376.562 533.331Z" fill="#D25954"/>
<path d="M376.562 571.226V757H206.591V627.632L376.562 571.226Z" fill="#9F4142"/>
<path d="M547.351 568.719V757H376.562V533.331L547.351 568.719Z" fill="#D25954"/>
<path d="M915.393 533.331V757H820.413V572.888L915.393 533.331Z" fill="#EC6559"/>
<path d="M1107.92 579.767V757H915.393V533.331L1107.92 579.767Z" fill="#F09E9E"/>
<path d="M835.499 603.32V757H826.424V607.052L835.499 603.32Z" fill="#F09E9E"/>
<path d="M903.575 575.307V757H892.982V579.651L903.575 575.307Z" fill="#F09E9E"/>
<path d="M883.383 583.615V757H871.302V588.571L883.383 583.615Z" fill="#F09E9E"/>
<path d="M859.688 593.351V757H849.125V597.694L859.688 593.351Z" fill="#F09E9E"/>
<path d="M957.499 579.33V616.205L938.036 612.503V575.307L957.499 579.33Z" fill="#F9CDCD"/>
<path d="M957.499 631.363V680.335L938.036 678.003V628.302L957.499 631.363Z" fill="#F9CDCD"/>
<path d="M957.499 694.24V757H938.036V692.374L957.499 694.24Z" fill="#F9CDCD"/>
<path d="M985.365 696.922V757H1003.22V698.641L985.365 696.922Z" fill="#F9CDCD"/>
<path d="M1090.47 606.818V641.624L1075.76 638.796V603.787L1090.47 606.818Z" fill="#F9CDCD"/>
<path d="M1090.47 652.205V696.193L1075.76 694.444V649.902L1090.47 652.205Z" fill="#F9CDCD"/>
<path d="M1090.47 707.037V757H1075.76V705.608L1090.47 707.037Z" fill="#F9CDCD"/>
<path d="M1046.85 702.839V757H1028.99V701.119L1046.85 702.839Z" fill="#F9CDCD"/>
<path d="M1046.85 597.811V633.287L1028.99 629.847V594.109L1046.85 597.811Z" fill="#F9CDCD"/>
<path d="M1003.22 588.804V624.95L985.365 621.539V585.102L1003.22 588.804Z" fill="#F9CDCD"/>
<path d="M1003.22 638.534V685.786L985.365 683.658V635.735L1003.22 638.534Z" fill="#F9CDCD"/>
<path d="M1046.85 645.384V690.975L1028.99 688.847V642.557L1046.85 645.384Z" fill="#F9CDCD"/>
</g>
<defs>
<clipPath id="clip0_59_3820">
<rect width="1449" height="757" fill="white"/>
</clipPath>
</defs>
</svg>
